<svg version="1.1" id="Layer_1" xmlns="http://www.w3.org/2000/svg" x="0" y="0" viewBox="0 0 648 648" xml:space="preserve"><style>.st2{fill:#5d76a9}.st3{fill:#fb2}</style><path d="M569.4 177.4c7-13.2 10.3-26.4 10.3-39 0-28.8-16.1-54.6-38.7-70C509.6 47 462.4 44.1 429.1 84c-48.7-6.7-89.5 6.7-105.1 13.1-15.5-6.4-56.4-19.8-105.1-13.1-33.4-39.9-80.6-37-112-15.6-22.6 15.4-38.7 41.2-38.7 70 0 12.6 3.3 25.9 10.3 39C53.4 213.8 36 256.9 36 300.8c0 52.9 22.6 80.1 31.1 91.8l6.8-6.8c23.9 60.8 64.8 93.6 114.2 123.4 0 0 1.1-6 2.1-11.4 53.2 46.1 78.5 34.8 133.8 97.3 55.1-62.3 81.1-51.6 133.8-97.3 1 5.4 2.1 11.4 2.1 11.4 22-13.3 84-46.6 114.2-123.4l6.8 6.8c5.2-7.2 31.1-36 31.1-91.8 0-43.9-17.4-87-42.6-123.4" fill="#707271"/><path d="M554.2 178.2c50.7-77.9-64.3-159-120.1-80.5-56.3-10-103.8 10.5-110.1 13.5-6.4-3-53.8-23.5-110.1-13.5-55.7-78.4-170.8 2.6-120.1 80.5-57.8 79.4-52 157.6-25.2 194.5l11.1-11.1s15.8 76.5 99 126.8l3-16.5c51.3 54.7 98.1 53.5 142.3 103.5 44.2-50 91-48.8 142.3-103.5l3 16.5c83.3-50.3 99-126.8 99-126.8l11.1 11.1c26.8-37 32.6-115.1-25.2-194.5" fill="#12173f"/><path class="st2" d="M324.5 469.4s-40 .6-45.9 4.3c0 0-6.9 11.9 45.9 11.7 50.2-.2 42.8-9.4 43.1-10.7.1-.1-16.9-5.3-43.1-5.3M289.9 422.9s6.2-18.1 12.9-12.4c9.2 7.9 21.3 24 21.3 25.7v21.5l-14.6.8c-8.4.2-35.4 6.7-35.4 6.7-37.2-92.1-16.6-161.7-6.6-186.6-36.9 8-42.8-36.2-42.8-36.2 3.8-.8 9.5.9 15.8 3.9 9.9 4.7 21.4 12.7 30.7 19.9 2.7 2.1 5.3 4.2 7.5 6.1 25.1 21.1 45.4 16.8 45.4 16.8v90.1c-.1 0-73.2-5.6-34.2 43.7M358.4 422.9c46.5-47.2-29.4-44.4-34.2-43.7 7.8.5 66.6.8 34.2 43.7"/><path class="st2" d="M389.3 280.1c41.9 112.8-11.2 185.3-11.5 185.7 33-86.3 11.8-158.1-2.6-184.7-7.4.7-16.3.3-16.3.3s11.1-6.9 18.3-13.4c.5-.5 1.1-1 1.7-1.5 6-5.3 17.4-14.7 31.3-20.1 5.1-2 10.5-3.4 16.1-4-.1.1-4.1 37.2-37 37.7"/><path class="st2" d="M455.6 134.2s17.1-42.7 69.4-32.4c0 0-48.1-31.6-81.5 25.5 0 0-48-22.5-119.5 8.4 0 0-67.2-23.6-118.3-10.3 0 0-29.8-51.7-71.8-30.4-42 21.3-20.1 70.5-12.8 83.3 0 0-69.5 70.8-43.4 158.4l14-17.5s20 95.4 71.5 125.5l3.1-23.5s53.8 64.9 117.1 92.5c6 2.8 39.5 19.5 40.6 27.7V496s-43.9 3.7-55.5-16.6c-7.9-13.8-58.3-103.8-33.4-198.1 0 0-24.3-3.6-28.9-44.6 0 0-18.1-8.8-40.6-7 0 0 40.2-12.6 78 2 37.7 14.6 47.8 51.8 73.4 35.3l7-104.7 7.7 104.7c25.5 16.4 35.7-20.7 73.4-35.3 37.7-14.6 78-2 78-2s-16.1-11.4-42-16.5c-21.6-4.3-53.3 9.6-53.3 9.6s4.4-29.7 18.8-45.5c12.3-13.5 40.3-16.5 49-43.1zm-325.4 36.1c-1.5-14.2 16.5-28.4 16.5-28.4-7.4-7.7-20.4-1-20.4-1 11.8-23 38.1-11.8 38.1-11.8-10-12.2-31.1-11.5-31.1-11.5 26.2-25.9 57.8 13.7 57.8 13.7-28.2 6.4-60.9 39-60.9 39z"/><path class="st3" d="M271.1 266.3c-4-1.3-10.7 2.9-14.4 10.2-12.5-3.6-16.8-17.1-16.2-30 9.8 4.6 21.4 12.6 30.6 19.8M393.9 276.4c-3.9-7.6-11.1-11.9-15.1-9.9 6-5.3 17.4-14.7 31.3-20.1.6 13-3.8 26.4-16.2 30"/></svg>