<svg width="648" height="648" fill="none" xmlns="http://www.w3.org/2000/svg"><g clip-path="url(#a)"><path d="M161.333 225.92s49.031-80.169 149.44-80.169c100.409 0 147.111 77.805 147.111 77.805h136.214l-5.449 33.466s-3.893 13.236-10.116 14.791h9.334s3.12 11.68-15.565 52.151H612s1.556 70.836-84.062 104.303c0 0-44.365 14.009-66.942-10.116 0 0-45.147 84.062-150.223 84.062-105.075 0-152.56-86.4-152.56-86.4H36l19.458-35.022H42.222l15.565-28.809h26.47l4.676-10.898H76.49l30.364-56H124L130.96 268h-14.782l22.569-42.036 22.586-.044z" fill="#fff"/><path d="M312.231 483.502c85.911 0 155.556-70.693 155.556-157.902 0-87.209-69.636-157.902-155.556-157.902-85.92 0-155.555 70.693-155.555 157.902 0 87.209 69.653 157.902 155.555 157.902z" fill="#FDB927"/><path d="M383.138 341.778c-14.534 17.626-22.765 23.653-37.529 23.653-5.023 0-7.645-1.12-6.223-3.555l17.503-35.209h6.675c7.458 0 6.427 6.275 4.4 14.782-.364 1.182.542 1.262 1.431.222l16.631-29.227c.809-1.84-1.28-2.204-2.32-.808-8.337 11.324-17.102 10.48-20.8 10.48h-3.013l18.667-35.68h7.538c9.493.595 13.92 8.648 11.173 28.08h3.947l13.742-27.094c1.111-2.293-1.236-4.382-3.831-4.382h-93.28c-5.387 0-5.636 4.133-.463 4.133 4.196 0 3.983 6.027.214 8.934l-39.582 31.449 8 37.12c.595 2.808 2.382 4.151 5.484 4.151h77.138a6.138 6.138 0 0 0 5.52-2.667l13.982-24.124c1.902-3.44-2.569-3.227-5.004-.258zm-53.743-16.942-6.791-.063a.9.9 0 0 0-.763.162.897.897 0 0 0-.342.701.888.888 0 0 0 1.105.862l6.889-.071c2.32 0 4.445.302 3.876 1.333l-17.831 34.053c-2.214 4.063-6.916 3.023-7.654-.213l-8.835-45.636 31.057-24.097c3.085-2.667 9.023-6.978 12.063-6.925h6.764c4.125 0 5.591 1.894 4.622 4.382l-1.191 2.303c-.782 1.297-3.226 1.449-5.333 1.449h-3.911a.882.882 0 0 0-.692.866.893.893 0 0 0 .692.867h3.858c1.662 0 3.76 0 2.986 1.289l-14.409 27.475c-.622 1.04-3.609 1.245-6.16 1.245v.018z" fill="#552583"/><path d="M265.333 364.658a4.246 4.246 0 0 1-3.902-2.88c-.666-1.991-.613-5.511.205-7.067l35.982-63.822c.587-1.182 2.044-3.653 3.831-3.645 3.173 0 4.551-4.168-.827-4.168h-28.8c-5.386 0-5.44 4.097-.275 4.097a2.422 2.422 0 0 1 2.076 1.019 2.415 2.415 0 0 1 .27 2.297l-8 14.435c-.995 1.592-3.208 1.707-5.528 1.707h-6.863a.894.894 0 0 0-.691.867.886.886 0 0 0 .691.866h6.8c1.849 0 3.316.56 2.249 2.667L236 359.44c-1.92 2.667-5.724 3.244-5.511-1.849l9.449-70.871c.373-2.222-.213-3.716-2.578-3.716h-14.222a4.204 4.204 0 0 0-3.556 1.929l-5.093 6.409c-.667.658-2.098.658-3.689.658h-11.955a.89.89 0 1 0-.401 1.732.89.89 0 0 0 .401-.008h9.777c1.778 0 3.76.409 3.031 1.227l-13.733 17.227c-.409.48-1.778.622-2.56.622h-3.867a.878.878 0 0 0-.751.172.883.883 0 0 0-.247 1.08.887.887 0 0 0 .998.481h3.227c.996 0 1.005.498.596.943l-12.871 16.186c-.658.622-1.956.756-3.209.756h-11.369a.887.887 0 0 0 0 1.715h9.778c1.484 0 2.666.267 1.848 1.263l-18.311 22.968c-3.44 4.383-20.009 6.605-23.244 6.605l61.92-115.858a6.591 6.591 0 0 1 5.28-3.36h13.084c6.223 0 6.027-4.133.631-4.133H152.8c-5.387 0-5.609 4.133.596 4.133h12.231c3.475 0 4.595 2.098 3.698 3.805l-1.778 3.2c-.596 1.031-1.414 1.448-4.774 1.448h-21.626a.888.888 0 0 0 0 1.725h21.609c1.182 0 2.933.302 1.822 2.409l-3.022 5.626c-.525.845-1.849 1.245-3.36 1.245h-9.778a.896.896 0 0 0-1.015.472.895.895 0 0 0 0 .78.884.884 0 0 0 1.015.472h9.778c1.404 0 1.431.889.622 2.214l-6.96 12.942c-.596 1.102-1.725 1.253-3.947 1.253h-3.902a.886.886 0 0 0-1.015.473.888.888 0 0 0 1.015 1.252h3.858c1.466 0 1.858.826 1.2 2.231l-5.725 10.622c-.889 1.52-2.062 2.124-5.866 2.124h-21.627a.9.9 0 0 0-.763.162.886.886 0 0 0-.252 1.091.892.892 0 0 0 1.015.472h21.484c2.436.044 3.343 1.12 2.374 2.853l-11.156 20.987c-.666.889-2.489 1.058-5.591 1.058h-21.627a.888.888 0 0 0 0 1.733h21.6c2.578 0 4.16.107 3.387 1.476l-6.435 12.088c-1.183 1.858-4.498 1.849-5.796 1.849h-6.862a.89.89 0 0 0 0 1.734h6.809c2.4 0 3.671.409 3.04 1.706l-8.587 16.143c-.773 1.448-4.142 1.511-6.72 1.511h-33.44a.888.888 0 0 0 0 1.724h33.378c2.222 0 5.013.276 3.982 2.045l-5.484 10.311c-.516.844-2.391.889-5.085.889h-6.862a.886.886 0 0 0-1.105.862.893.893 0 0 0 .342.701.89.89 0 0 0 .763.161h6.809c1.662 0 3.68.187 2.978 1.449l-3.431 6.587c-1.103 1.635-2.214 3.093-4.863 3.093H72.97c-6.222 0-5.982 4.133-.595 4.133l98.524.054c2.88 0 2.969-.392 4.329-2.507l14.613-25.476h74.667c5.404-.106 4.018-4.16.826-4.275zm-58.568-7.591c-.738 4.204-4.969 6.995-10.276 8.391l-5.484 1.369 4.497-8.107c1.183-2.222-1.413-3.556-4.249-.222-19.075 22.222-25.146 32.844-54.56 32.889h-7.911c-2.382 0-5.013-.934-3.395-3.227l10.418-19.378h39.52c5.386 0 4.008-4.053.835-4.169a7.542 7.542 0 0 1-6-3.822c-.444-.711-1.431-3.555.116-5.698l15.111-20.106h25.164l-3.786 22.08zm5.688-25.431h-24.524l31.049-40.943-6.525 40.943zM585.947 344.302c-.4-2.018-1.138-.791-2.472 1.778-.408.773-1.697.791-2.986.791h-3.947a.886.886 0 0 0-.763.162.892.892 0 0 0-.342.7.892.892 0 0 0 .705.87.9.9 0 0 0 .4-.007h3.876c1.484 0 1.502.986.809 2.462A65.856 65.856 0 0 1 572 365.369a4.768 4.768 0 0 1-3.271 1.369h-3.965a.886.886 0 0 0-1.105.862.895.895 0 0 0 .342.701.896.896 0 0 0 .763.161h3.885c1.955 0 0 1.209-.356 1.645a86.624 86.624 0 0 1-16.738 17.431c-.595.48-3.448.311-5.448.302h-3.912a.886.886 0 0 0-1.014.472.882.882 0 0 0 .251 1.091.896.896 0 0 0 .763.161h3.858c2.951 0 .738 1.689.294 2.063-10.729 8.942-26.729 11.822-34.036 10.906-23.769-2.977-28.658-21.004-30.418-28.213-.364-1.502-1.502-4.587-1.875-6.498-.738-3.769 9.982-4.844 12.942-2.862 4.444 3.004 14.951 6.08 23.182 6.116 7.618 0 23.209-5.503 27.716-18.587 4.613-13.387-6.978-28.24-12.116-33.369-6.542-6.542-12.711-16.96-10.107-24.596 1.956-5.76 5.245-8.373 12.276-8.373 9.084 0 15.698 5.84 15.698 14.133 0 .738-.454 1.618-1.049 1.618h-3.209a.887.887 0 0 0-.673.862.886.886 0 0 0 .673.863h3.013c.889 0 1.378.649 1.165 1.68-.596 2.773-.791 4.72-1.396 7.502-.346 1.618 2.018 2.729 2.827 1.555l14.284-25.493c1.031-1.92-1.262-2.435-2.96-1.849-3.902 1.36-10.266 2.294-12.515.676-5.334-3.831-10.205-6.294-17.662-6.294-12.694 0-21.583 3.129-27.289 13.574-.436.818-1.689.8-2.756.8h-2.444a.887.887 0 0 0-.485 1.409.887.887 0 0 0 .485.315h2.08c.889 0 1.484.249 1.04 1.28-.445 1.031-.747 1.929-1.076 2.96-1.449 4.516-.978 10.862 1.28 16.525.151.364-.32.542-1.2.542h-3.893a.886.886 0 0 0-1.105.862.892.892 0 0 0 .705.87.886.886 0 0 0 .4-.008h3.929c1.777 0 2.177.178 2.906 1.218 2.009 2.818 4.063 4.907 6.64 8.187.818 1.04-2.666 1.324-4.497 1.306h-15.396a.9.9 0 0 0-.763.162.886.886 0 0 0-.252 1.091.892.892 0 0 0 1.015.472h15.582c2.507 0 6.809 0 7.28.515 3.778 4.347 8.338 11.049 9.102 16.694.223 1.626-.391 2.311-2.391 2.311h-2.08a.89.89 0 0 0-.889.889.887.887 0 0 0 .889.889h1.831c1.592 0 2.454.257 2.089 1.431-2.017 6.462-5.049 11.138-17.386 11.075-12.934-.071-15.565-12.746-11.778-25.973.755-2.667 0-3.769-1.218-1.698l-8.995 14.125a3.117 3.117 0 0 1-2.463 1.129h-1.271a.886.886 0 0 0-1.105.862.895.895 0 0 0 .342.701.894.894 0 0 0 .763.161c1.138 0 1.582.604 1.147 1.236l-3.307 5.155c-5.431-12.444-14.551-27.76-19.404-33.342l.08-.267c11.991-.729 29.689-11.955 32.578-22 5.031-17.422-11.894-23.858-21.112-23.858h-40.533c-5.387 0-5.778 4.08-.613 4.08 2.791 0 5.235 2.445 4 4.916l-9.014 16.196c-.746 1.324-3.555 1.244-7.111 1.244h-3.937a.887.887 0 0 0-.485 1.409.887.887 0 0 0 .485.315h3.866c2.587 0 5.431.16 4.445 2l-10.596 19.174c-.515.889-1.893.969-5.511.969H400.8a.888.888 0 0 0 0 1.733h3.831c2.844 0 3.902.382 3.093 1.858l-14.178 25.644c-1.697 1.849-3.715 2.187-7.182 2.187-5.164 0-5.111 4.098.276 4.098h34.72c5.395 0 4.018-4.169.844-4.169-1.866 0-3.849-3.431-2.613-5.494l17.742-33.564h1.778c7.884 0 9.778 12.933 11.271 27.049.107 1.004-1.778 1.067-5.742 1.067h-9.831a.888.888 0 1 0 0 1.777h9.778c2.586 0 6.222 0 6.293.889.675 6.222 1.191 11.645 2.364 16.614.374 1.546-2.391 1.306-5.333 1.306H435.36a.887.887 0 0 0-.673.862.886.886 0 0 0 .673.863h12.542c3.938 0 5.973 0 6.222.809 5.396 19.795 28.56 35.386 51.076 34.524 19.315-.738 35.635-11.244 43.991-17.947 11.12-8.889 27.449-27.555 34.089-41.173 1.164-2.524 3.111-5.716 2.667-7.938zm-129.885-26.364c-2.711 2.222-6.978 4.782-7.804 3.964a33.508 33.508 0 0 0-6.658-4.498L457.689 288a3.204 3.204 0 0 1 3.191-1.6c6.267 0 8.32 6.791 5.378 15.253-2.063 5.929-5.369 12.347-10.196 16.285z" fill="#552583"/><path d="M260.569 256.871c-3.254 4.213-7.574 5.28-12.445 5.28h-1.369l8.543-16.889a2.735 2.735 0 0 1 2.417-1.378c1.076 0 .943-2.142-.453-2.142h-13.44c-1.138 0-1.547 2.142-.48 2.142s1.36 1.272.809 2.338l-7.644 15.111a3.402 3.402 0 0 1-2.303 1.28c-1.137.294-1.92 2.32-.631 2.32h21.494a2.488 2.488 0 0 0 2.488-1.209l4.32-6.684c.623-.871-.684-.987-1.306-.169zM325.307 242.329c-.649.355-2.196.542-2.853 0a13.342 13.342 0 0 0-6.854-2.525c-5.067 0-8.738 1.005-10.942 5.787-1.885 4.071.044 7.485 4.516 9.556 1.937.889 4.506 2.062 3.555 4.4-.72 1.697-2.667 1.866-4.444 1.849-2.4 0-6.009-1.778-6.569-5.2-.187-1.112-1.476-.889-1.84-.267l-3.058 6.098c-.48.809.773 1.715 1.28 1.173a3.907 3.907 0 0 1 4.382-.631c1.529 1.013 5.44 2.791 7.778 2.773 5.138 0 8.524-1.351 11.333-5.76 2.569-4.018.987-8-3.697-10.204-2.472-1.165-4.596-3.227-3.485-5.502.72-1.485 2.925-1.156 4.018-.969 2.098.346 4.773 2.311 5.093 4.053a.779.779 0 0 0 .66.646.781.781 0 0 0 .816-.433l1.618-3.751c.284-.746-.898-1.315-1.307-1.093zM474.435 248.382l1.867-3.449c.818-1.511-.524-3.235-2.667-3.235h-25.093c-1.778 0-1.28 1.893-.533 1.893 1.609 0 2.08 1.956 1.102 3.618l-7.547 13.884c-1.12 1.325-1.84 1.894-3.449 1.894-1.297 0-1.777 1.893.054 1.893H463.6a1.976 1.976 0 0 0 1.849-.889l3.458-4.595c.888-1.103-.978-1.103-1.529-.552-4.391 4.392-9.085 4.267-12.498 4.267h-2.96l3.475-7.778h.747c2.231 0 4.818 0 5.485 1.68a1.092 1.092 0 0 0 1.733 0l2.969-5.937c.48-.889-.889-1.04-1.218-.409-1.182 2.097-6.329 1.537-7.68 1.537h-.747l4.338-8.56h4.836a7.118 7.118 0 0 1 6.435 4.445c.205.551 1.805.995 2.142.293zM410.222 241.698h-8.889c-1.778 0-1.271 1.893-.542 1.893a3.002 3.002 0 0 1 2.46 1.444 3.007 3.007 0 0 1 .144 2.849l-3.733 6.783-8.107-11.947a3.865 3.865 0 0 0-2.942-1.093h-8.791c-1.778 0-1.387 1.866-.649 1.866 1.867 0 1.387 1.405.889 2.4l-6.987 13.485a1.655 1.655 0 0 1-1.519.839 1.66 1.66 0 0 1-1.432-.981l-5.422-17.654c-.222-.702-3.387-.666-4.196 0l-13.582 11.191h-7.031c-1.395 0-1.946.569-1.946 1.307s.524 1.413 2 1.413h3.679l-3.679 3.023c-2.045 1.528-4.143 3.617-5.529 3.617h-.889c-1.334 0-2.08.214-2.08 1.289 0 1.076.56 1.44 1.778 1.44h10.959c2.063 0 1.663-2.666.623-2.666s-2.996-1.44-1.263-3.476l3.343-3.2h6.586c3.911 0 6.649 4.533 4.32 5.938l-1.777.995c-.889.445-1.218 2.436 0 2.436h21.395c1.591 0 1.271-2.107.533-2.107-2.195 0-1.164-3.146-.737-3.991l5.626-10.667 7.894 15.307c.515.96.986 1.44 1.911 1.44h3.022c.96 0 1.28-.551 1.724-1.289l8.996-16.249c1.449-2.906 2.56-3.742 4.373-3.742.774.009 1.289-1.893-.533-1.893zm-59.867 11.093 8.365-6.844v6.844h-8.365zM283.449 240.684c-7.529 0-15.28 3.707-16.827 11.556a11.626 11.626 0 0 0 6.67 13.021 11.622 11.622 0 0 0 5.135.988c8 0 15.395-5.245 16.889-12.818 1.493-7.573-4.205-12.747-11.867-12.747zm2.133 14.48c-2.391 4.765-6.391 7.592-8.889 6.312-2.497-1.28-2.666-6.169-.284-10.934 2.382-4.764 6.382-7.582 8.889-6.311 2.507 1.271 2.675 6.169.284 10.933zM435.68 252.204h-9.671c-1.778 0-1.28 1.894-.542 1.894.737 0 1.475.4 1.475 1.618 0 3.911-1.671 5.413-5.022 5.413-3.68 0-5.013-4.445-2.525-9.947a12.144 12.144 0 0 1 10.738-6.773c3.049 0 5.6.658 5.991 3.511.098.711 1.147.711 1.511.044l2.303-4.106c.257-.445-.151-.969-.845-1.014-.693-.044-1.911.72-2.782.08a18.521 18.521 0 0 0-9.333-2.835c-5.191 0-12.445 1.173-17.334 9.671-4.444 7.689 2.018 15.822 8 15.831 3.325 0 7.174-2.453 9.387-3.378l2.462 1.671c.472.568 1.15.926 1.885.996h.889c.888 0 1.182-1.164 1.511-1.902l3.831-9.2c.48-.889.169-1.574-1.929-1.574zM568.16 242.329c-.649.355-2.195.542-2.853 0a13.342 13.342 0 0 0-6.853-2.525c-5.058 0-8.738 1.005-10.943 5.787-1.875 4.071 0 7.485 4.525 9.556 1.929.889 4.506 2.062 3.555 4.4-.711 1.697-2.666 1.866-4.444 1.849-2.391 0-6-1.778-6.569-5.2-.178-1.112-1.467-.889-1.831-.267l-3.067 6.098c-.48.809.782 1.715 1.28 1.173a3.92 3.92 0 0 1 4.391-.631c1.431.987 5.316 2.764 7.689 2.764 5.129 0 8.516-1.351 11.334-5.76 2.568-4.017.986-8-3.698-10.204-2.48-1.165-4.596-3.227-3.494-5.502.72-1.485 2.934-1.156 4.027-.969 2.089.346 4.773 2.311 5.085 4.053a.777.777 0 0 0 .659.646.78.78 0 0 0 .816-.433l1.618-3.751c.364-.737-.818-1.306-1.227-1.084zM500.889 256.871c-3.253 4.213-7.573 5.28-12.444 5.28h-1.369l8.551-16.889a2.662 2.662 0 0 1 2.418-1.378c1.066 0 .888-2.142-.472-2.142h-13.404c-1.147 0-1.547 2.142-.48 2.142s1.36 1.272.809 2.338l-7.653 15.111a3.384 3.384 0 0 1-2.294 1.28c-1.138.294-1.92 2.32-.622 2.32h21.484a2.485 2.485 0 0 0 2.489-1.209l4.32-6.684c.631-.871-.684-.987-1.333-.169zM533.324 243.644a7.111 7.111 0 0 1 6.436 4.445c.204.551 1.778.995 2.142.293l1.867-3.449c.817-1.511-.525-3.235-2.667-3.235H516c-1.778 0-1.271 1.893-.542 1.893 1.617 0 2.097 1.956 1.12 3.618l-7.547 13.884c-1.129 1.325-1.849 1.894-3.467 1.894-1.289 0-1.778 1.893.071 1.893h25.476a1.998 1.998 0 0 0 1.858-.889l3.449-4.595c.888-1.103-.969-1.103-1.52-.552-4.392 4.392-9.094 4.267-12.507 4.267h-2.96l3.475-7.778h.747c2.231 0 4.809 0 5.485 1.68a1.092 1.092 0 0 0 1.733 0l2.907-5.902c.48-.889-.889-1.04-1.218-.409-1.174 2.098-6.329 1.538-7.68 1.538h-.738l4.329-8.56 4.853-.036zM383.138 341.778c-14.533 17.626-22.764 23.653-37.529 23.653-5.022 0-7.644-1.12-6.222-3.555l17.502-35.209h6.676c7.458 0 6.426 6.275 4.4 14.782-.365 1.182.542 1.262 1.431.222l16.631-29.227c.809-1.84-1.28-2.204-2.32-.808-8.338 11.324-17.102 10.48-20.8 10.48h-3.013l18.666-35.68h7.538c9.493.595 13.92 8.648 11.173 28.08h3.947l13.742-27.094c1.111-2.293-1.235-4.382-3.831-4.382h-93.28c-5.386 0-5.635 4.133-.462 4.133 4.196 0 3.982 6.027.213 8.934l-39.582 31.449 8 37.12c.596 2.808 2.382 4.151 5.485 4.151h77.137a6.144 6.144 0 0 0 5.52-2.667l13.983-24.124c1.902-3.44-2.569-3.227-5.005-.258zm-53.742-16.942-6.791-.063a.9.9 0 0 0-.763.162.889.889 0 0 0 .763 1.563l6.889-.071c2.32 0 4.444.302 3.875 1.333l-17.831 34.053c-2.213 4.063-6.915 3.023-7.653-.213l-8.836-45.636 31.058-24.097c3.084-2.667 9.022-6.978 12.062-6.925h6.765c4.124 0 5.591 1.894 4.622 4.382l-1.191 2.303c-.782 1.297-3.227 1.449-5.334 1.449h-3.911a.883.883 0 0 0-.691.866.888.888 0 0 0 .691.867h3.858c1.662 0 3.76 0 2.987 1.289l-14.409 27.475c-.622 1.04-3.609 1.245-6.16 1.245v.018z" fill="#552583"/><path d="M265.333 364.658a4.246 4.246 0 0 1-3.902-2.88c-.666-1.991-.613-5.511.205-7.067l35.982-63.822c.587-1.182 2.044-3.653 3.831-3.645 3.173 0 4.551-4.168-.827-4.168h-28.8c-5.386 0-5.44 4.097-.275 4.097a2.422 2.422 0 0 1 2.076 1.019 2.415 2.415 0 0 1 .27 2.297l-8 14.435c-.995 1.592-3.208 1.707-5.528 1.707h-6.863a.894.894 0 0 0-.691.867.886.886 0 0 0 .691.866h6.8c1.849 0 3.316.56 2.249 2.667L236 359.44c-1.92 2.667-5.724 3.244-5.511-1.849l9.449-70.871c.373-2.222-.213-3.716-2.578-3.716h-14.222a4.204 4.204 0 0 0-3.556 1.929l-5.093 6.409c-.667.658-2.098.658-3.689.658h-11.955a.89.89 0 1 0-.401 1.732.89.89 0 0 0 .401-.008h9.777c1.778 0 3.76.409 3.031 1.227l-13.733 17.227c-.409.48-1.778.622-2.56.622h-3.867a.878.878 0 0 0-.751.172.883.883 0 0 0-.247 1.08.887.887 0 0 0 .998.481h3.227c.996 0 1.005.498.596.943l-12.871 16.186c-.658.622-1.956.756-3.209.756h-11.369a.887.887 0 0 0 0 1.715h9.778c1.484 0 2.666.267 1.848 1.263l-18.311 22.968c-3.44 4.383-20.009 6.605-23.244 6.605l61.92-115.858a6.591 6.591 0 0 1 5.28-3.36h13.084c6.223 0 6.027-4.133.631-4.133H152.8c-5.387 0-5.609 4.133.596 4.133h12.231c3.475 0 4.595 2.098 3.698 3.805l-1.778 3.2c-.596 1.031-1.414 1.448-4.774 1.448h-21.626a.888.888 0 0 0 0 1.725h21.609c1.182 0 2.933.302 1.822 2.409l-3.022 5.626c-.525.845-1.849 1.245-3.36 1.245h-9.778a.896.896 0 0 0-1.015.472.895.895 0 0 0 0 .78.884.884 0 0 0 1.015.472h9.778c1.404 0 1.431.889.622 2.214l-6.96 12.942c-.596 1.102-1.725 1.253-3.947 1.253h-3.902a.886.886 0 0 0-1.015.473.888.888 0 0 0 1.015 1.252h3.858c1.466 0 1.858.826 1.2 2.231l-5.725 10.622c-.889 1.52-2.062 2.124-5.866 2.124h-21.627a.9.9 0 0 0-.763.162.886.886 0 0 0-.252 1.091.892.892 0 0 0 1.015.472h21.484c2.436.044 3.343 1.12 2.374 2.853l-11.156 20.987c-.666.889-2.489 1.058-5.591 1.058h-21.627a.888.888 0 0 0 0 1.733h21.6c2.578 0 4.16.107 3.387 1.476l-6.435 12.088c-1.183 1.858-4.498 1.849-5.796 1.849h-6.862a.89.89 0 0 0 0 1.734h6.809c2.4 0 3.671.409 3.04 1.706l-8.587 16.143c-.773 1.448-4.142 1.511-6.72 1.511h-33.44a.888.888 0 0 0 0 1.724h33.378c2.222 0 5.013.276 3.982 2.045l-5.484 10.311c-.516.844-2.391.889-5.085.889h-6.862a.886.886 0 0 0-1.105.862.893.893 0 0 0 .342.701.89.89 0 0 0 .763.161h6.809c1.662 0 3.68.187 2.978 1.449l-3.431 6.587c-1.103 1.635-2.214 3.093-4.863 3.093H72.97c-6.222 0-5.982 4.133-.595 4.133l98.524.054c2.88 0 2.969-.392 4.329-2.507l14.613-25.476h74.667c5.404-.106 4.018-4.16.826-4.275zm-58.568-7.591c-.738 4.204-4.969 6.995-10.276 8.391l-5.484 1.369 4.497-8.107c1.183-2.222-1.413-3.556-4.249-.222-19.075 22.222-25.146 32.844-54.56 32.889h-7.911c-2.382 0-5.013-.934-3.395-3.227l10.418-19.378h39.52c5.386 0 4.008-4.053.835-4.169a7.542 7.542 0 0 1-6-3.822c-.444-.711-1.431-3.555.116-5.698l15.111-20.106h25.164l-3.786 22.08zm5.688-25.431h-24.524l31.049-40.943-6.525 40.943zM585.947 344.302c-.4-2.018-1.138-.791-2.471 1.778-.409.773-1.698.791-2.987.791h-3.946a.89.89 0 1 0 0 1.725h3.875c1.485 0 1.502.986.809 2.462A65.856 65.856 0 0 1 572 365.369a4.766 4.766 0 0 1-3.271 1.369h-3.964a.886.886 0 0 0-1.105.862.895.895 0 0 0 .342.701.884.884 0 0 0 .763.161h3.884c1.956 0 0 1.209-.355 1.645a86.68 86.68 0 0 1-16.738 17.431c-.596.48-3.449.311-5.449.302h-3.911a.886.886 0 0 0-.763.161.893.893 0 0 0-.252 1.091.896.896 0 0 0 1.015.472h3.858c2.951 0 .737 1.689.293 2.063-10.729 8.942-26.729 11.822-34.036 10.906-23.768-2.977-28.657-21.004-30.417-28.213-.365-1.502-1.503-4.587-1.876-6.498-.738-3.769 9.982-4.844 12.942-2.862 4.445 3.004 14.951 6.08 23.183 6.116 7.617 0 23.208-5.503 27.715-18.587 4.613-13.387-6.978-28.24-12.115-33.369-6.543-6.542-12.712-16.96-10.107-24.596 1.955-5.76 5.244-8.373 12.275-8.373 9.085 0 15.698 5.84 15.698 14.133 0 .738-.453 1.618-1.049 1.618h-3.209a.886.886 0 0 0-.484 1.409.895.895 0 0 0 .484.316h3.014c.889 0 1.378.649 1.164 1.68-.595 2.773-.791 4.72-1.395 7.502-.347 1.618 2.017 2.729 2.826 1.555l14.285-25.493c1.031-1.92-1.262-2.435-2.96-1.849-3.902 1.36-10.267 2.294-12.516.676-5.333-3.831-10.204-6.294-17.662-6.294-12.693 0-21.582 3.129-27.289 13.574-.435.818-1.689.8-2.755.8h-2.445a.89.89 0 0 0-.485 1.409.89.89 0 0 0 .485.315h2.08c.889 0 1.485.249 1.04 1.28-.444 1.031-.747 1.929-1.075 2.96-1.449 4.516-.978 10.862 1.28 16.525.151.364-.32.542-1.2.542h-3.894a.886.886 0 0 0-1.105.862.892.892 0 0 0 .705.87.886.886 0 0 0 .4-.008h3.929c1.778 0 2.178.178 2.907 1.218 2.009 2.818 4.062 4.907 6.64 8.187.818 1.04-2.667 1.324-4.498 1.306h-15.396a.9.9 0 0 0-.762.162.875.875 0 0 0-.252.311.88.88 0 0 0 0 .78.88.88 0 0 0 .614.479.886.886 0 0 0 .4-.007h15.583c2.506 0 6.809 0 7.28.515 3.777 4.347 8.337 11.049 9.102 16.694.222 1.626-.391 2.311-2.391 2.311h-2.08a.893.893 0 0 0-.629.26.893.893 0 0 0 0 1.257.89.89 0 0 0 .629.261h1.831c1.591 0 2.453.257 2.089 1.431-2.018 6.462-5.049 11.138-17.387 11.075-12.933-.071-15.564-12.746-11.778-25.973.756-2.667 0-3.769-1.217-1.698l-8.996 14.125a3.109 3.109 0 0 1-2.462 1.129h-1.271a.886.886 0 0 0-1.105.862.881.881 0 0 0 .342.701.886.886 0 0 0 .763.161c1.137 0 1.582.604 1.146 1.236l-3.306 5.155c-5.431-12.444-14.551-27.76-19.405-33.342l.08-.267c11.991-.729 29.689-11.955 32.578-22 5.031-17.422-11.893-23.858-21.111-23.858h-40.533c-5.387 0-5.778 4.08-.614 4.08 2.791 0 5.236 2.445 4 4.916l-9.013 16.196c-.747 1.324-3.556 1.244-7.111 1.244h-3.938a.89.89 0 0 0-.485 1.409.89.89 0 0 0 .485.315h3.867c2.586 0 5.431.16 4.444 2l-10.595 19.174c-.516.889-1.894.969-5.512.969H400.8a.888.888 0 0 0 0 1.733h3.831c2.845 0 3.903.382 3.094 1.858l-14.178 25.644c-1.698 1.849-3.716 2.187-7.182 2.187-5.165 0-5.111 4.098.275 4.098h34.72c5.396 0 4.018-4.169.845-4.169-1.867 0-3.849-3.431-2.614-5.494l17.743-33.564h1.777c7.885 0 9.778 12.933 11.272 27.049.106 1.004-1.778 1.067-5.743 1.067h-9.831a.889.889 0 1 0 0 1.777h9.778c2.587 0 6.222 0 6.293.889.676 6.222 1.191 11.645 2.365 16.614.373 1.546-2.391 1.306-5.334 1.306H435.36a.886.886 0 0 0-.484 1.409.895.895 0 0 0 .484.316h12.543c3.937 0 5.973 0 6.222.809 5.395 19.795 28.56 35.386 51.075 34.524 19.316-.738 35.636-11.244 43.991-17.947 11.12-8.889 27.449-27.555 34.089-41.173 1.165-2.524 3.111-5.716 2.667-7.938zm-129.884-26.364c-2.712 2.222-6.978 4.782-7.805 3.964a33.479 33.479 0 0 0-6.658-4.498L457.689 288a3.212 3.212 0 0 1 3.191-1.6c6.267 0 8.32 6.791 5.378 15.253-2.062 5.929-5.369 12.347-10.195 16.285z" fill="#552583"/><path d="M260.569 256.871c-3.254 4.213-7.574 5.28-12.445 5.28h-1.369l8.543-16.889a2.735 2.735 0 0 1 2.417-1.378c1.076 0 .943-2.142-.453-2.142h-13.44c-1.138 0-1.547 2.142-.48 2.142s1.36 1.272.809 2.338l-7.644 15.111a3.402 3.402 0 0 1-2.303 1.28c-1.137.294-1.92 2.32-.631 2.32h21.494a2.488 2.488 0 0 0 2.488-1.209l4.32-6.684c.623-.871-.684-.987-1.306-.169zM325.307 242.329c-.649.355-2.196.542-2.853 0a13.342 13.342 0 0 0-6.854-2.525c-5.067 0-8.738 1.005-10.942 5.787-1.885 4.071.044 7.485 4.516 9.556 1.937.889 4.506 2.062 3.555 4.4-.72 1.697-2.667 1.866-4.444 1.849-2.4 0-6.009-1.778-6.569-5.2-.187-1.112-1.476-.889-1.84-.267l-3.058 6.098c-.48.809.773 1.715 1.28 1.173a3.907 3.907 0 0 1 4.382-.631c1.529 1.013 5.44 2.791 7.778 2.773 5.138 0 8.524-1.351 11.333-5.76 2.569-4.018.987-8-3.697-10.204-2.472-1.165-4.596-3.227-3.485-5.502.72-1.485 2.925-1.156 4.018-.969 2.098.346 4.773 2.311 5.093 4.053a.779.779 0 0 0 .66.646.781.781 0 0 0 .816-.433l1.618-3.751c.284-.746-.898-1.315-1.307-1.093zM474.436 248.382l1.867-3.449c.817-1.511-.525-3.235-2.667-3.235h-25.093c-1.778 0-1.28 1.893-.534 1.893 1.609 0 2.08 1.956 1.102 3.618l-7.546 13.884c-1.12 1.325-1.84 1.894-3.449 1.894-1.298 0-1.778 1.893.053 1.893H463.6a1.976 1.976 0 0 0 1.849-.889l3.458-4.595c.889-1.103-.978-1.103-1.529-.552-4.391 4.392-9.084 4.267-12.498 4.267h-2.96l3.476-7.778h.747c2.231 0 4.817 0 5.484 1.68a1.087 1.087 0 0 0 .867.427 1.097 1.097 0 0 0 .866-.427l2.969-5.937c.48-.889-.889-1.04-1.218-.409-1.182 2.097-6.328 1.537-7.68 1.537h-.746l4.338-8.56h4.835a7.111 7.111 0 0 1 6.436 4.445c.204.551 1.804.995 2.142.293zM410.223 241.698h-8.889c-1.778 0-1.271 1.893-.543 1.893a3.009 3.009 0 0 1 2.461 1.444 3.006 3.006 0 0 1 .144 2.849l-3.733 6.783-8.107-11.947a3.866 3.866 0 0 0-2.942-1.093h-8.791c-1.778 0-1.387 1.866-.649 1.866 1.866 0 1.386 1.405.889 2.4l-6.987 13.485a1.66 1.66 0 0 1-1.52.839 1.653 1.653 0 0 1-1.431-.981l-5.422-17.654c-.223-.702-3.387-.666-4.196 0l-13.582 11.191h-7.031c-1.396 0-1.947.569-1.947 1.307s.524 1.413 2 1.413h3.68l-3.68 3.023c-2.044 1.528-4.142 3.617-5.529 3.617h-.889c-1.333 0-2.08.214-2.08 1.289 0 1.076.56 1.44 1.778 1.44h10.96c2.062 0 1.662-2.666.622-2.666s-2.995-1.44-1.262-3.476l3.342-3.2h6.587c3.911 0 6.649 4.533 4.32 5.938l-1.778.995c-.889.445-1.218 2.436 0 2.436h21.396c1.591 0 1.271-2.107.533-2.107-2.196 0-1.164-3.146-.738-3.991l5.627-10.667 7.893 15.307c.516.96.987 1.44 1.911 1.44h3.023c.96 0 1.28-.551 1.724-1.289l8.996-16.249c1.448-2.906 2.56-3.742 4.373-3.742.773.009 1.289-1.893-.533-1.893zm-59.867 11.093 8.364-6.844v6.844h-8.364zM283.449 240.684c-7.529 0-15.28 3.707-16.827 11.556a11.626 11.626 0 0 0 6.67 13.021 11.622 11.622 0 0 0 5.135.988c8 0 15.395-5.245 16.889-12.818 1.493-7.573-4.205-12.747-11.867-12.747zm2.133 14.48c-2.391 4.765-6.391 7.592-8.889 6.312-2.497-1.28-2.666-6.169-.284-10.934 2.382-4.764 6.382-7.582 8.889-6.311 2.507 1.271 2.675 6.169.284 10.933zM435.68 252.204h-9.671c-1.778 0-1.28 1.894-.542 1.894s1.476.4 1.476 1.618c0 3.911-1.672 5.413-5.023 5.413-3.68 0-5.013-4.445-2.524-9.947a12.142 12.142 0 0 1 10.738-6.773c3.049 0 5.6.658 5.991 3.511.098.711 1.146.711 1.511.044l2.302-4.106c.258-.445-.151-.969-.844-1.014-.694-.044-1.911.72-2.783.08a18.515 18.515 0 0 0-9.333-2.835c-5.191 0-12.444 1.173-17.333 9.671-4.445 7.689 2.018 15.822 8 15.831 3.324 0 7.173-2.453 9.386-3.378l2.463 1.671a2.791 2.791 0 0 0 1.884.996h.889c.889 0 1.182-1.164 1.511-1.902l3.831-9.2c.48-.889.169-1.574-1.929-1.574zM568.16 242.329c-.649.355-2.195.542-2.853 0a13.342 13.342 0 0 0-6.853-2.525c-5.058 0-8.738 1.005-10.943 5.787-1.875 4.071 0 7.485 4.525 9.556 1.929.889 4.506 2.062 3.555 4.4-.711 1.697-2.666 1.866-4.444 1.849-2.391 0-6-1.778-6.569-5.2-.178-1.112-1.467-.889-1.831-.267l-3.067 6.098c-.48.809.782 1.715 1.28 1.173a3.92 3.92 0 0 1 4.391-.631c1.431.987 5.316 2.764 7.689 2.764 5.129 0 8.516-1.351 11.334-5.76 2.568-4.017.986-8-3.698-10.204-2.48-1.165-4.596-3.227-3.494-5.502.72-1.485 2.934-1.156 4.027-.969 2.089.346 4.773 2.311 5.085 4.053a.777.777 0 0 0 .659.646.78.78 0 0 0 .816-.433l1.618-3.751c.364-.737-.818-1.306-1.227-1.084zM500.889 256.871c-3.253 4.213-7.573 5.28-12.444 5.28h-1.369l8.551-16.889a2.662 2.662 0 0 1 2.418-1.378c1.066 0 .888-2.142-.472-2.142h-13.404c-1.147 0-1.547 2.142-.48 2.142s1.36 1.272.809 2.338l-7.653 15.111a3.384 3.384 0 0 1-2.294 1.28c-1.138.294-1.92 2.32-.622 2.32h21.484a2.485 2.485 0 0 0 2.489-1.209l4.32-6.684c.631-.871-.684-.987-1.333-.169zM533.325 243.644a7.118 7.118 0 0 1 6.435 4.445c.205.551 1.778.995 2.142.293l1.867-3.449c.818-1.511-.524-3.235-2.667-3.235H516c-1.778 0-1.271 1.893-.542 1.893 1.618 0 2.098 1.956 1.12 3.618l-7.547 13.884c-1.129 1.325-1.849 1.894-3.466 1.894-1.289 0-1.778 1.893.071 1.893h25.475a1.996 1.996 0 0 0 1.858-.889l3.449-4.595c.889-1.103-.969-1.103-1.52-.552-4.391 4.392-9.093 4.267-12.507 4.267h-2.96l3.476-7.778h.747c2.231 0 4.809 0 5.484 1.68a1.087 1.087 0 0 0 .867.427 1.097 1.097 0 0 0 .866-.427l2.907-5.902c.48-.889-.889-1.04-1.218-.409-1.173 2.098-6.329 1.538-7.68 1.538h-.738l4.329-8.56 4.854-.036z" fill="#552583"/><path d="M434.507 223.342c-1.929-2.222-4.596-6.942-23.743-23.626C382.667 175.191 345.333 164 310.32 164c-25.778 0-48.418 5.796-73.449 19.556-31.893 17.564-45.102 37.733-48.364 41.84-2.4 3.013-2.747 4.782-1.191 5.68 1.12.648 3.262-1.698 5.271-4.356 9.484-12.524 21.955-24.942 35.093-32.249 4.08.587 9.778 6.267 12.018 9.298-8.409 4.578-22.329 15.182-27.556 19.271-4.551 3.556-6.124 5.493-4.898 6.933 1.023 1.191 4.507-1.155 7.423-3.555 5.04-4.134 20.026-14.765 27.449-18.747 5.04 5.902 3.413 16.827 1.626 19.191-.96 1.271-1.084 2.667 0 3.254 1.085.586 2.169-.889 3.636-3.032 3.44-4.968 2.062-17.004-.889-21.333 9.049-5.609 22.035-9.378 29.893-11.147.676 1.254 10.205 29.12 12.018 34.178.996 2.774 1.982 6.089 4.009 5.467 1.351-.418.462-3.458-.667-6.498-1.386-3.769-8.604-27.164-10.826-34.107 2.595-1.404 18.257-4.577 22.177-4.444-1.929 10.187 5.28 14.364 13.431 19.707 4.329 2.844 31.858 18.666 37.609 22.222 3.28 2.027 5.831 3.324 6.534 2.364.8-1.102-1.431-3.395-4.445-5.173-2.418-1.413-28.026-16.267-38.729-23.031-7.662-4.836-11.777-10.027-9.937-16.827 2.524-.738 10.24-.809 18.248-.738 54.596.445 98.374 31.743 103.272 36.756 2.48 2.551 5.928 4.729 7.262 3.698.791-.622-.667-3.502-1.831-4.836zm-190.365-21.555c-1.458-2.463-8.4-8.8-12.16-10.045 8.747-6.489 29.085-15.795 36.791-17.413 1.334 2.213 4.898 11.662 6.089 15.644-6.862 1.476-24.924 7.974-30.72 11.814zm59.645-17.574c-7.111.445-20.027 3.245-24.623 4.578-1.191-3.102-4.444-12.702-5.493-15.795a118.302 118.302 0 0 1 40.062-3.992c-3.262 2.516-8.755 12.4-9.946 15.209zm35.466-.435c-11.84-.845-21.52-1.182-29.973-.302 2.444-6.169 7.351-11.938 11.129-14.472 7.724.369 15.41 1.308 22.995 2.809 21.12 4.169 53.956 17.04 68.107 36.027-18.853-12.587-50.178-22.507-72.258-24.062zM446.32 410.222c2.018-3.715 3.662-5.831 1.929-6.782-1.583-.889-3.12 2.56-5.04 5.902-6.383 11.067-13.334 20.214-29.085 34.542-17.431 15.876-37.466 25.103-44.444 27.467-5.938-16.684-28.56-87.742-29.156-89.778-.889-3.022-1.653-3.902-2.666-3.555-1.014.346-.445 2.062.151 4.729.595 2.666 27.555 86.729 28.444 89.68-5.333 2.666-27.049 8.729-42.204 9.226-13.503.445-29.378 0-37.396-1.84-9.387-7.582-30.755-37.751-38.862-53.813-9.556-18.924-15.885-36.338-17.52-43.716-.782-3.555-1.778-6.08-3.556-5.751-1.92.374-.817 3.165.294 6.943 2.871 9.777 7.564 23.52 17.52 43.182 10.533 20.818 29.333 45.244 34.853 51.893a149.788 149.788 0 0 1-57.973-26.471c-17.111-12.764-31.814-29.004-39.209-40.889-1.271-2.035-2.756-4.907-4.596-3.698-.835.551.196 2.863 1.485 5.174 10.729 19.28 36.924 46.586 70.471 61.564 39.111 17.458 81.778 16.533 119.884 1.778 33.325-12.818 62.347-39.378 76.676-65.787z" fill="#061922"/><path d="M434.507 223.342c-1.929-2.222-4.596-6.942-23.743-23.626C382.667 175.191 345.333 164 310.32 164c-25.778 0-48.418 5.796-73.449 19.556-31.893 17.564-45.102 37.733-48.364 41.84-2.4 3.013-2.747 4.782-1.191 5.68 1.12.648 3.262-1.698 5.271-4.356 9.484-12.524 21.955-24.942 35.093-32.249 4.08.587 9.778 6.267 12.018 9.298-8.409 4.578-22.329 15.182-27.556 19.271-4.551 3.556-6.124 5.493-4.898 6.933 1.023 1.191 4.507-1.155 7.423-3.555 5.04-4.134 20.026-14.765 27.449-18.747 5.04 5.902 3.413 16.827 1.626 19.191-.96 1.271-1.084 2.667 0 3.254 1.085.586 2.169-.889 3.636-3.032 3.44-4.968 2.062-17.004-.889-21.333 9.049-5.609 22.035-9.378 29.893-11.147.676 1.254 10.205 29.12 12.018 34.178.996 2.774 1.982 6.089 4.009 5.467 1.351-.418.462-3.458-.667-6.498-1.386-3.769-8.604-27.164-10.826-34.107 2.595-1.404 18.257-4.577 22.177-4.444-1.929 10.187 5.28 14.364 13.431 19.707 4.329 2.844 31.858 18.666 37.609 22.222 3.28 2.027 5.831 3.324 6.534 2.364.8-1.102-1.431-3.395-4.445-5.173-2.418-1.413-28.026-16.267-38.729-23.031-7.662-4.836-11.777-10.027-9.937-16.827 2.524-.738 10.24-.809 18.248-.738 54.596.445 98.374 31.743 103.272 36.756 2.48 2.551 5.928 4.729 7.262 3.698.791-.622-.667-3.502-1.831-4.836zm-190.365-21.555c-1.458-2.463-8.4-8.8-12.16-10.045 8.747-6.489 29.085-15.795 36.791-17.413 1.334 2.213 4.898 11.662 6.089 15.644-6.862 1.476-24.924 7.974-30.72 11.814zm59.645-17.574c-7.111.445-20.027 3.245-24.623 4.578-1.191-3.102-4.444-12.702-5.493-15.795a118.302 118.302 0 0 1 40.062-3.992c-3.262 2.516-8.755 12.4-9.946 15.209zm35.466-.435c-11.84-.845-21.52-1.182-29.973-.302 2.444-6.169 7.351-11.938 11.129-14.472 7.724.369 15.41 1.308 22.995 2.809 21.12 4.169 53.956 17.04 68.107 36.027-18.853-12.587-50.178-22.507-72.258-24.062zM446.32 410.222c2.018-3.715 3.662-5.831 1.929-6.782-1.583-.889-3.12 2.56-5.04 5.902-6.383 11.067-13.334 20.214-29.085 34.542-17.431 15.876-37.466 25.103-44.444 27.467-5.938-16.684-28.56-87.742-29.156-89.778-.889-3.022-1.653-3.902-2.666-3.555-1.014.346-.445 2.062.151 4.729.595 2.666 27.555 86.729 28.444 89.68-5.333 2.666-27.049 8.729-42.204 9.226-13.503.445-29.378 0-37.396-1.84-9.387-7.582-30.755-37.751-38.862-53.813-9.556-18.924-15.885-36.338-17.52-43.716-.782-3.555-1.778-6.08-3.556-5.751-1.92.374-.817 3.165.294 6.943 2.871 9.777 7.564 23.52 17.52 43.182 10.533 20.818 29.333 45.244 34.853 51.893a149.788 149.788 0 0 1-57.973-26.471c-17.111-12.764-31.814-29.004-39.209-40.889-1.271-2.035-2.756-4.907-4.596-3.698-.835.551.196 2.863 1.485 5.174 10.729 19.28 36.924 46.586 70.471 61.564 39.111 17.458 81.778 16.533 119.884 1.778 33.325-12.818 62.347-39.378 76.676-65.787z" fill="#061922"/></g><defs><clipPath id="a"><path fill="#fff" transform="translate(36 36)" d="M0 0h576v576H0z"/></clipPath></defs></svg>