<svg width="150" height="150" fill="none" xmlns="http://www.w3.org/2000/svg"><g clip-path="url(#a)"><path d="M74.78 129.718l-8.951-11.629a29.289 29.289 0 0 1-20.05-26.003l-5.562-7.2C34.934 87.172 29.65 90.77 29.65 90.77L13.037 74.066l7.015-15.39L7.5 42.386h19.958l3.853-8.421 9.876-3.992 1.107-2.976 8.006 3.668 1.915-6.645 1.316-.438c6.345-2.123 13.636-3.277 21.111-3.3.208-.023 2.585.023 2.654.023.277 0 1.453.07 1.453.07 6.322.3 12.252 1.361 17.651 3.138l1.315.438 1.754 6.345 2.884-2.169 16.197 5.768 3.9 8.537h20.05l-12.69 16.36 6.922 15.158-16.913 17.397s-6.206-4.522-10.452-6.206l-5.099 6.575c-.577 12.252-8.93 23.004-20.627 26.604l-8.86 11.398z" fill="#fff"/><path d="M74.804 121.665l57.682-74.364H17.514l57.29 74.364z" fill="#BEC0C2"/><path d="M12.76 44.97l62.02 80.502 62.436-80.501H12.761zm119.726 2.33l-57.682 74.365-57.29-74.364h114.972z" fill="#0067B1"/><path d="M124.157 52.47l-.023-.047-.046-.023-3.692-2.469 1.385-2.63.046-.07-.046-.092-5.076-11.12-.024-.07-.069-.023-13.682-4.869-.092-.022-.07.069-3.622 2.768-.046.023-.023.047-.623 1.523s-5.676-1.431-14.005-2.262c-.854-.092-3.115-.277-6.738-.553l-.346-.023-.37-.024h-.091l-.07.07-2.745 2.63v-2.769s-7.684.439-12.713 1.108c-5.03.692-9.968 1.938-9.968 1.938l-.9-1.938-.023-.07-.07-.023-6.46-2.953-.184-.092-.07.184-.76 2.054-.162-.415-.07-.162-.161.07-9.252 3.714-.07.023-.023.07-17.05 37.47L30.157 87.54l.646-.369c.415-.23 1.015-.6 1.684-.992 1.684-.992 4.015-2.353 5.122-2.907l.231-.116c1.43-.692 2.146-1.038 8.952-3.945l.577-.208s.762-.3 2.17-.761c3.737-1.246 13.45-4.13 22.864-4.13h.116c.369 0 .761 0 1.13.023 6.392.184 13.867 1.546 19.012 2.653 4.938 1.062 8.676 2.1 9.737 2.4l.716.207c4.683 1.8 10.405 4.8 15.712 8.191l.669.439 14.167-14.606-9.506-20.95z" fill="#0067B1"/><path d="M122.634 53.784l-13.613-9.09-2.377-6.645 4.223 1.5 1.707 4.153 6.414 2.053-3.737-8.26-12.114-4.292-2.215 1.73 4.015 13.083 12.944 9.16 3.322 8.283-5.399-2.422-1.845-5.146-6.599-1.938 3.53 11.652a93.96 93.96 0 0 1 3.253 1.246c2.93 1.2 5.815 2.515 8.629 3.945a98.321 98.321 0 0 1 5.746 3.161l2.815-2.884-8.699-19.289zm-91.876 6.161l4.545-4.06 1.084 1.268-4.476 12.898a104.954 104.954 0 0 1 7.476-2.977l3.253-10.636-2.792-4.638 5.815-5.514 3.391-11.306-4.176-1.869-3.784 10.66-5.999 5.168 5.468-13.82-5.883 2.353L18.483 73.05l2.538 2.538c1.5-.876 3.022-1.73 4.568-2.515l5.169-13.128zM71.85 34.588l-4.983.254-2.33 26.672a97.968 97.968 0 0 1 6.39-.416l.923-26.51zm14.744 21.388l-5.768-.346-.923-16.335 4.891.23-.576-4.499-6.576-.461-2.953 2.93v20.443l3.091 3.16c3.184.093 6.345.347 9.46.716l-.646-5.838zM53.877 45.109l2.076 10.152-1.338 7.683c2.007-.392 4.06-.715 6.114-.992h.023l3.207-26.764-4.614.669-1.523 8.767-1.707-8.237-5.422 1.362-7.545 28.08c2.169-.67 4.384-1.292 6.622-1.823l4.107-18.897zM94 54.5l1.616-2.192 2.376 1.961 2.192 9.944a95.602 95.602 0 0 1 6.784 1.962l-4.084-14.582-4.2-3.438 2.4-3.184-1.984-7.407-5.076-1.13 1.984 7.452-3.161 4.222-2.33-12.274-4.707-.6s2.353 17.997 3.46 26.857c2.123.3 4.223.669 6.323 1.107L94 54.5z" fill="#F58426"/><path d="M65.251 66.59s1.962-1.154 5.861-1.569l-.115-3.092a98.91 98.91 0 0 0-6.391.415c.184 1.2.46 3 .645 4.246zm12.46-1.777c1.592.185 3.3.716 4.8 1.13 1.36.324 2.814.9 3.99 1.431l.647-4.753a95.71 95.71 0 0 0-9.344-.715c-.047.946-.047 2.238-.093 2.907zm-20.604 7.522c1.822-1.361 2.907-2.746 4.845-3.922-.37-1.73-.854-3.946-1.2-5.653-2.076.277-4.153.623-6.206 1.015.784 2.561 1.776 5.999 2.56 8.56zm30.963-3.991c1.777 1.038 3.162 2.191 4.754 3.737l.323.231 2.492-8.283a114.17 114.17 0 0 0-6.46-1.154l-1.108 5.469zm7.915 7.198l5.976 1.408 5.03-9.922a88.042 88.042 0 0 0-6.922-1.96l-4.084 10.474zM47.97 76.95c1.569-.577 3.738-1.362 5.768-1.892L49.862 64.79a95.398 95.398 0 0 0-6.668 1.892c1.453 3.438 3.069 6.968 4.776 10.268zm-8.999 3.691c.347-.3 3.738-1.753 6.046-2.745-1.754-3.184-3.877-6.715-5.653-9.945-2.515.9-4.823 1.846-7.268 2.93l6.875 9.76zm-8.444 4.477a163.231 163.231 0 0 1 3.484-2.03l-7.914-9.345c-1.5.784-3 1.592-4.453 2.445l8.883 8.93zm74.572-6.945c4.753 1.845 11.398 5.56 14.051 7.337 1.223-1.177 7.822-8.099 8.745-9.068a105.631 105.631 0 0 0-17.282-8.168l-5.514 9.899zM76.788 64.675l-2.261-.092-.046-5.515 2.353 2.446-.046 3.16z" fill="#BEC0C2"/><path d="M75.035 63.567c-14.744 0-26.719 11.952-26.719 26.719 0 14.744 11.952 26.695 26.719 26.695 14.743 0 26.718-11.951 26.718-26.695S89.778 63.567 75.035 63.567z" fill="#0067B1"/><path d="M76.673 65.575c-2.054.715-4.015 1.753-5.976 2.653-1.338-.807-2.1-.992-3-1.592 2.815-.992 5.838-1.153 8.976-1.061z" fill="#F58426"/><path d="M70.697 68.32l-.023-.023a13.418 13.418 0 0 0-1.685-.876c-.461-.231-.876-.416-1.315-.693l-.115-.069.115-.046c3.023-1.108 6.253-1.154 8.999-1.084l.023.115c-1.523.53-3.023 1.246-4.476 1.961-.485.23-.993.485-1.5.715h-.023zm-2.861-1.638c.392.254.761.416 1.2.623.461.23.992.462 1.66.877.485-.23.993-.462 1.454-.692 1.362-.646 2.746-1.315 4.177-1.846-2.63-.07-5.63.023-8.491 1.038zM95.8 76.904c-6.299-6.346-15.736-5.884-23.742-8.122 0 0 4.707-2.238 7.153-2.861 6.552 1.107 12.874 5.03 16.59 10.983z" fill="#F58426"/><path d="M95.777 76.95c-4.476-4.5-10.636-5.584-16.59-6.622-2.376-.416-4.845-.854-7.129-1.477l-.161-.046.161-.07c.046-.022 4.753-2.26 7.153-2.86h.046c6.853 1.176 13.06 5.283 16.635 11.028l-.115.047zm-23.534-8.168c2.238.623 4.637 1.038 6.945 1.43 5.791 1.016 11.79 2.054 16.243 6.276-3.6-5.445-9.621-9.344-16.243-10.498-2.123.554-6.092 2.4-6.945 2.792zM60.43 77.873c-6.046 9.275-6.853 20.696-2.054 30.71-6.23-5.215-9.921-15.344-7.13-25.173 2.285-3.184 5.238-6.022 9.183-5.537z" fill="#F58426"/><path d="M58.353 108.629c-3.138-2.653-5.63-6.507-6.968-10.89-1.454-4.707-1.523-9.668-.185-14.352v-.023c1.892-2.63 4.915-6.091 9.252-5.56l.093.022-.046.093c-6.046 9.275-6.807 20.742-2.054 30.641l-.092.069zm-7.037-25.196c-1.316 4.638-1.246 9.575.184 14.26 1.315 4.245 3.669 8.006 6.691 10.636-4.637-9.852-3.83-21.204 2.123-30.41-4.2-.439-7.153 2.93-8.998 5.514z" fill="#F58426"/><path d="M66.913 84.472c3.253 9.69 3.969 20.419 12.413 30.179-6.575 1.338-13.082-.646-18.296-3.922-6.438-9.391-5.838-23.397.6-32.51 3.137.877 4.845 4.984 5.283 6.253z" fill="#F58426"/><path d="M75.104 115.112c-4.707 0-9.575-1.499-14.12-4.36l-.024-.023c-6.299-9.184-6.022-23.189.6-32.58l.023-.046.046.023c3.438.992 5.122 5.769 5.307 6.322.854 2.538 1.523 5.077 2.215 7.753 1.938 7.476 3.969 15.182 10.198 22.404l.07.092-.116.023a22.722 22.722 0 0 1-4.2.392zm-14.029-4.453c5.838 3.692 12.275 5.099 18.136 3.946-6.184-7.199-8.191-14.905-10.152-22.358-.692-2.676-1.362-5.214-2.215-7.752-.185-.531-1.846-5.215-5.192-6.207-6.575 9.344-6.83 23.257-.577 32.371z" fill="#F58426"/><path d="M62.39 77.18a27.796 27.796 0 0 1 3.323-3.899c13.682 3.853 26.719 18.043 28.957 31.979-.647 1.062-2.215 2.515-3.254 3.577-3.391 3.068-7.152 4.637-10.752 5.491-6.39-6.622-8.49-15.228-10.752-23.72-1.73-6.506-2.93-11.42-7.522-13.404v-.024z" fill="#F58426"/><path d="M80.641 114.42l-.023-.023c-6.16-6.414-8.375-14.744-10.521-22.796l-.37-1.43c-1.684-6.369-2.907-10.96-7.36-12.898l-.023-.023-.023-.093.023-.023a28.479 28.479 0 0 1 3.323-3.899l.023-.023h.046c6.668 1.869 13.336 6.23 18.804 12.229 5.492 6.045 9.137 13.082 10.199 19.796v.023l-.023.023c-.554.9-1.777 2.123-2.769 3.092-.185.162-.346.346-.508.485-3 2.699-6.53 4.499-10.775 5.514l-.023.046zM62.46 77.18c4.453 1.962 5.699 6.576 7.383 12.967l.37 1.431c2.122 8.03 4.337 16.359 10.451 22.704 4.223-1.015 7.707-2.792 10.683-5.469.162-.161.323-.323.508-.484.969-.969 2.192-2.146 2.745-3.046-1.084-6.69-4.683-13.705-10.175-19.727-5.445-5.976-12.09-10.314-18.712-12.183a28.863 28.863 0 0 0-3.253 3.807z" fill="#F58426"/><path d="M94.347 77.111c-6.6-5.837-15.805-5.076-23.535-7.799-1.5.923-2.953 1.985-4.2 3.115 13.683 4.292 26.096 17.674 29.05 31.495 2.146-3.092 3.438-6.691 3.968-10.521.346-5.86.277-11.19-5.283-16.29z" fill="#F58426"/><path d="M95.639 104.084l-.023-.139c-1.43-6.668-5.146-13.52-10.498-19.289-5.33-5.768-11.906-10.083-18.528-12.16l-.115-.022.092-.07c1.269-1.13 2.722-2.192 4.2-3.114l.022-.024h.023c2.677.946 5.56 1.477 8.376 1.985 5.33.992 10.844 2.007 15.182 5.814 5.491 5.03 5.653 10.152 5.306 16.336-.553 3.968-1.892 7.522-3.968 10.544l-.07.139zM66.75 72.404c6.6 2.1 13.152 6.415 18.459 12.16 5.306 5.745 9.044 12.575 10.498 19.197 2.03-2.977 3.346-6.46 3.876-10.36.346-6.138.185-11.237-5.26-16.244-4.315-3.807-9.806-4.822-15.113-5.791-2.792-.508-5.7-1.038-8.376-1.984a30.17 30.17 0 0 0-4.084 3.022zm-2.167.462c-1.316 1.269-2.308 2.515-3.346 3.968h-.023c-3.623-.807-6.484 1.062-8.768 3.392 1.085-2.769 3.392-6.045 5.815-8.19 2.238.091 3.876.045 6.322.83z" fill="#F58426"/><path d="M52.492 80.272l-.115-.069c1.107-2.815 3.46-6.114 5.837-8.214l.023-.023h.024c.276.023.53.023.807.023 1.892.07 3.392.115 5.538.808l.092.023-.07.092c-1.176 1.13-2.145 2.284-3.322 3.968l-.023.047-.07-.023c-3.022-.693-5.79.369-8.72 3.368zm5.792-8.168c-2.261 2.008-4.523 5.123-5.653 7.845 2.884-2.838 5.606-3.853 8.606-3.184 1.154-1.638 2.1-2.769 3.253-3.876-2.1-.646-3.553-.692-5.399-.761-.3-.024-.554-.024-.807-.024zm7.268-.092c1.292-1.154 2.538-2.169 4.107-3.092l-3.508-1.73c-2.33.946-4.845 2.192-6.552 3.76 2.653.3 3.784.462 5.953 1.062z" fill="#F58426"/><path d="M65.575 72.081h-.023c-2.17-.6-3.3-.761-5.953-1.061l-.139-.023.116-.092c1.453-1.339 3.6-2.561 6.575-3.784h.024l.023.023 3.622 1.8-.092.069c-1.684 1.015-3.023 2.122-4.107 3.091l-.046-.023zm-5.838-1.176c2.538.3 3.669.461 5.791 1.038 1.062-.946 2.354-2.03 3.992-3.023l-3.368-1.684c-2.885 1.177-4.984 2.376-6.415 3.669z" fill="#F58426"/><path d="M71.25 30.827l-1.084 1.084-1.846.116-.692-.6-.877.738-2.007.185-.877-.854 1.154-7.891 1.523-.208-.83 6.968 1.084-.115.853-6.991 1.5-.139-.623 6.922 1.061-.092.554-6.899c.646-.069.97-.069 1.546-.092l-.438 7.868zm4.961-7.96l.023 4.96h.97l-.07-4.937s1.015.023 1.477.069l.208 5.56-.946.947-.3.023.046 2.376-1.662-.046-.023-2.377-.323-.023-.992-1.015.07-5.537c.507-.047 1.522 0 1.522 0zm-12.298.9l-.253 1.638-1.846.346-.346 1.915a53.603 53.603 0 0 1 1.892-.3c-.116.715-.139.946-.277 1.615l-1.846.254-.346 1.823 1.892-.277s-.185 1.223-.277 1.776a67.536 67.536 0 0 0-3.946.577s1.43-6.622 1.777-8.652l3.576-.715zm-6.945 9.69l-1.915.37.877-3.6-.6-1.292-1.523 5.191-1.869.439c.785-2.815 1.593-5.63 2.354-8.445.646-.208 1.13-.37 1.707-.53.208.484.716 1.43.716 1.43l.461-1.754s1.2-.323 1.8-.438l-2.008 8.63zM84.01 24.39c.185 2.26.554 4.43.785 6.53l-.831 1.291-2.723-.184-.992-1.062c-.184-2.307-.3-4.637-.438-6.945.254-.323.623-.577.923-.9l2.26.231 1.016 1.038zm-2.538.369l.485 5.399.946.069-.508-5.353-.923-.115zm11.328.438c.347 1.292.993 3.969.993 3.969l.646.138.323-.438-.808-3.323s.808.23 1.662.485l.853 3.207-.392.577.739.83 1.13 3.923-1.869-.416-.738-2.745-1.154-.254.623 2.723-1.892-.37a925.153 925.153 0 0 1-1.846-8.744s.97.184 1.73.438zm-2.953.323l.624 3.23-.37.508.623.761.554 3.207-1.8-.323-.484-2.676-1.085-.116.393 2.608-1.8-.231-1.2-8.86 3.461.6 1.084 1.292zm-2.607.092l.323 2.238 1.016.116-.439-2.192-.9-.162z" fill="#0067B1"/></g><defs><clipPath id="a"><path fill="#fff" transform="translate(7.5 20.282)" d="M0 0h135v109.435H0z"/></clipPath></defs></svg>