<svg version="1.1" id="Layer_1" xmlns="http://www.w3.org/2000/svg" x="0" y="0" viewBox="0 0 648 648" xml:space="preserve"><style>.st2{fill:#c8102e}</style><circle cx="323.4" cy="324.1" r="288" fill="#fff"/><path d="M323.4 59.9c-145.7 0-264.2 118.5-264.2 264.2s118.5 264.2 264.2 264.2 264.2-118.5 264.2-264.2S469.1 59.9 323.4 59.9zm191 117.4c30.2 39.2 47.4 85.9 49.7 135.2h-99.6c2.4-49.3 19.6-96 49.9-135.2zm-382 0c30.3 39.3 47.5 85.9 49.8 135.2H82.7c2.3-49.3 19.5-96 49.7-135.2zm0 293.6C102.2 431.7 85 385 82.7 335.7h99.6c-2.4 49.2-19.6 95.9-49.9 135.2zM335 564.8v-69h-23.2v69c-62.7-3-120.9-29.9-164.1-75.9 35.3-44.1 55.2-97 57.6-153.3v-23.2c-2.4-56.3-22.3-109.2-57.6-153.3 43.2-46 101.4-72.9 164.1-75.9v68.4H335V83.3c62.7 3 120.9 29.9 164.1 75.9-35.3 44.1-55.2 97-57.6 153.3v23.2c2.4 56.3 22.3 109.2 57.6 153.3-43.2 45.9-101.4 72.8-164.1 75.8zm179.4-93.9c-30.3-39.3-47.5-85.9-49.8-135.2h99.6c-2.4 49.3-19.6 96-49.8 135.2z" fill="#061922"/><path class="st2" d="M264.5 213.4v220.4h117.8v-30.3h-86.2V213.4z"/><path d="M422.3 287.3v-90.8c0-13.6-5.5-19.2-18.9-19.2H243.1c-13.3 0-18.7 5.6-18.7 19.2v255.3c0 13.6 5.4 19.2 18.7 19.2h160.3c13.4 0 18.9-5.6 18.9-19.2v-90.9h-31.8V443H256V205.1h134.6v82.1h31.7z" fill="#1d428a"/><path class="st2" d="M382.3 395V213.4h-76.5L305 395h30.6l.5-56.6h15.6l-.2 56.6h30.8zm-30.8-86.8h-15.4v-64.5h15.4v64.5z"/></svg>