<svg width="648" height="648" viewBox="0 0 648 648" fill="none" xmlns="http://www.w3.org/2000/svg">
<g clip-path="url(#clip0_1715_14051)">
<path d="M612 174.7V132.42L601.66 121.92C468.85 -4.4 184.48 161.46 87.87 241.38L40.15 315.24L99.5 300.58C8.36005 414.97 40.93 489.88 44.77 497.66C54.35 524.63 76.24 546.22 111.74 560.38C138.7 571.15 169.29 572.47 195.5 571.25C308.81 565.96 442.64 495.33 529.12 420.2L531.14 418.45L548.35 331.66L514.75 350.34C398.08 401.52 304.25 429.93 304.25 429.93C242.82 449.07 214.59 452.18 194.48 447.53L192.04 446.77C186.5 444.62 185.51 439.59 185.51 438.24C184.63 399.82 250.72 317.21 284 281.46C315.03 248.13 363.82 211.53 405.08 194.18C432.72 182.54 450.58 177.89 458.94 178.74C456.66 185.89 452.94 194.73 447.47 205.48C447.47 205.48 403.3 292.63 401.33 296.23L612 174.67V174.7Z" fill="#BC945C"/>
<path d="M349.7 168.47C311.62 188.48 267.97 228.99 254.28 243.57C142.9 362.17 64.8799 520.69 308.78 444.77C308.78 444.77 403.58 416.06 521.27 364.33C188.11 645.77 -126.33 528.08 183.09 232.22C154.94 238.65 126.5 244.78 98.6899 252.54C197.77 170.56 469.54 17.61 590.86 133.04L461.24 212.51C516.89 103.49 416.65 129.07 349.7 168.48" fill="#860038"/>
</g>
<defs>
<clipPath id="clip0_1715_14051">
<rect width="576" height="576" fill="white" transform="translate(36 36)"/>
</clipPath>
</defs>
</svg>
