<svg version="1.1" id="Layer_1" xmlns="http://www.w3.org/2000/svg" x="0" y="0" viewBox="0 0 648 648" xml:space="preserve"><style>.st1{fill:#98002e}.st2{fill:#f9a01b}</style><path d="M585.4 221.9c-21-23.1-67.3-41.9-126.9-53.3.3-6.9 4.4-9.8 11.9-14.9 3.9-2.7 8.3-5.7 12.7-9.9 19.2-18.3-3.3-46.3-4.3-47.5l-12.4-15.2 3 19.4c2 13.3-2.8 18-17.3 28.1-1.8 1.3-3.4 2.7-4.8 4.2.6-8.9 1-18.8-2-31.1-3-12.4-9.1-17.4-9.1-17.4l-1.6 18c0 .1-1.4 14-20 30.9 1.6-1.8 3.1-3.7 4.4-5.6 9.1-13.3 6.5-28.3 3.4-45.8l-.6-3.7c-3.1-18.2 1.7-29.6 4.9-31.4 3.1-3.7 9.1-9.9 9.1-9.9s-3.2-1.4-12.2-.3c-11.6 1.6-31.2 8.6-30.7 24.5.2 7 2.5 13.6 4.5 19.5 2.1 6.3 4.1 12.2 2.3 15.3-1.4 2.4-5.7 4.3-12.5 5.6-27.4 5-48.4 17.8-59.1 36.1-3.5 6-5.9 12.5-7.1 19.3-68 .2-132.3 8.7-182.3 24.1C82.9 198.1 52 221.7 49.6 249c-1.3 14.3 5.2 35 41.1 54.9l-.2.3 10.2 4.9 5.4 2.6.1-.1c16.6 7.4 36 13.8 57.6 19.1-7.7 4.3-14.8 9.3-21.2 15-34.8 28.6-54.8 70.9-54.8 116 0 40.2 15.6 77.9 44 106.3 28.4 28.4 66.1 44 106.3 44 71.1 0 132.9-50.4 147.2-119.9 12.1-36.3 10.7-75.3 10.2-89.9-1.2-33.4 15.2-51.8 25.6-60.2 47.5-6 89.5-16.4 120.8-30.4l.1.1 5.1-2.4 10.8-5.2-.3-.3c25.2-14.1 39.2-30.6 40.8-48.2 1-11.7-3.4-23-13-33.7zm-48.8 29.2c4.3 4.7 4 7.7 3.9 8.7-.5 5.4-7.3 12-18.6 17.9-23.9 12.6-65 22-113.9 27.1 2.2-1.4 4.5-2.6 7-3.6l.8-.3c14-5.7 30-12.2 30.7-35.4.1-3.7.3-15 2.3-19.1 2.6-5.2 9.3-13.3 15.2-15.4.1 0-9.9-2-9.9-2-.5-.1-1-.1-1.5-.1 3.3-2.4 5.7-5.3 7.5-8.4 39.8 8.3 66.5 19.6 76.5 30.6zm-429.1 5.8c1.7-19.2 70.8-44.5 182.5-48.5-10.4 7.8-22.6 21.4-25.7 43.2l-1.1 8.3c-.7 5.1-1.6 10.3-3.6 15.4-4.3 11.3-16.4 20.6-29.4 27.7-45-5.7-82.6-15.1-104.5-27-12.1-6.5-18.7-13.5-18.2-19.1z" fill="#061922"/><path class="st1" d="M93.5 472.3c3.9 19.8 15.3 43.5 37.7 59.3 6.8 4.8 14.2 8.6 22 11.6-4.9-8.3-10.5-16.6-16.3-25.1-10.8-15.9-21.9-32.3-28.9-49.9-7.3-18.2-9.3-37.3-6.1-56.5-5.7 15.6-8.9 32.4-8.9 50 .1 3.6.3 7.1.5 10.6z"/><path class="st1" d="M117.8 464.3c6.6 16.6 17.4 32.5 27.9 47.9 8.1 11.9 16 23.5 22 35.3 6.6 1.5 13.4 2.5 20.4 3-7.2-10.3-13.5-22-18.8-35.4-20.9-51.9-17.8-116 8-153 13.4-19.1 29.3-32.1 49.9-43.4 17.7-9.7 28.8-12.6 40-19.3 12.2-7.3 18.8-19.5 10.7-46.9-2.4-8-2.8-14.3-2.3-19.2-2.8 5.4-5 11.7-6 19l.1-.1c-1.3 7.7-1.8 16.3-5.1 24.9-10.8 28.4-63.3 44.1-70.2 46.2-19.9 6-35.8 15.2-48.3 26.2-35.8 32.1-42.3 80-28.3 114.8z"/><path class="st1" d="M336.5 208c.5 1.8 1 3.5 1.2 5.2 1.4 9.9-1.6 17.9-13.8 19.9-12.5 2-16.8-8.9-17.7-17.8-.1-3.1.1-5.5.4-7.3-2.1 0-4.2.1-6.3.1-4 2.3-9.2 5.9-14.3 11-2.5 5.4-5.5 12.8-.9 30.2 8.2 30.7 4.7 49.2-19.9 59.8-31.4 13.5-51.5 21.4-78.4 55.3-12.8 16.1-19.8 42.8-21 69.7-1.1 26.1 4.2 53.9 13.4 76.8 6.1 15.3 13.3 28.6 21.8 39.8 8.4-.3 16.9-1.4 25.4-3.3-9.4-11-14.7-24.3-15.7-39.2-3.2-49.8 23.6-70.7 64.8-103.7l18.4-15.5c73.6-62.5 52.1-126.1 60.2-180.4-5.7-.3-11.6-.5-17.6-.6z"/><path class="st1" d="M366 209.1c-2.2 10.8-3.3 22.2-4 33.9-2.9 47.3-1.5 100.8-61.4 154l-18.1 14.6c-40.1 32.1-63 52.2-61.4 95.9.5 14.4 6.6 27 16.8 36.9 11.2-3.4 22.3-8.1 32.9-14.1 52.1-29.6 84.8-73.7 97.3-130.4 7.9-35.8 7.8-65 7.6-88.4-.1-11.8 1.5-35.1 1.5-35.1 1.7-14.7 4-35.2 21-62.2.6-.9 1.1-1.8 1.7-2.6-10.7-1-22.1-1.9-33.9-2.5z"/><path class="st1" d="M383.5 361.1v-.2.2c-1.6 8.6-2.1 18.1-3.1 27.6-.5 3.6-1 7.2-1.5 10.6-.2 1-.4 1.9-.6 2.9-13.1 59.7-47.2 106.1-101.9 137.2-9.4 5.3-18.9 9.7-28.5 13.1 16 10.6 34.7 13.9 47.6 12 49.1-7.4 73.1-39.4 84.6-73.7 11.8-35.2 10.6-72.8 10-88.3-1.9-51.9 38.3-71.1 38.3-71.1-31.2-1.8-41.5 11.8-44.9 29.7z"/><path class="st1" d="M350.7 552.7c-20.1 16.8-41.8 20.5-51.6 22-19.3 3-42.3-1.6-62.5-17.6-.3-.3-.6-.6-1-.8-8.7 2.3-17.4 3.9-26 4.6 19.8 21.3 45.9 33.4 81 35.8h.5c23.8-9.4 44.6-24.8 60.3-44.5-.3.1-.5.3-.7.5zM167.8 588.4c.4-11-2.7-21.7-7.7-32.5-12-3.5-23.8-8.6-35.1-15.5-6.4-3.9-12.1-9.8-17.2-15.3l-.1-.1c13 26.9 34.1 49 60.1 63.4 0 .1 0 .1 0 0zM268 603.4c-19.6-4.5-36.4-11.5-51.1-22.6-7.5-5.7-14.4-12.2-20.6-19.4-7.9-.1-15.8-.9-23.6-2.3 4.3 11.2 6.5 22.6 5.1 34.5 18.3 8.4 38.7 13.1 60.2 13.1 10.4 0 20.4-1.1 30.2-3.2 0-.1-.1-.1-.2-.1zM436.4 247.4c-3.4 11.3-14.5 10-17.7 3.9-5.1-9.6-3.2-17.1 2.2-22.2 5.3-5.1 14-7.8 22.5-11.6 0 0 .1 0 .1-.1-9.8-1.7-20.2-3.2-31.2-4.5-.1.2-.3.3-.5.5-1 1.1-1.9 2.2-2.9 3.4-17.5 26.3-19.7 45.8-21.4 60.8l-.5 4.6c-1 7.9-.9 17.8-.9 29.2v4.9c-.1 4-.3 7.9-.5 11.8.1 0 .2 0 .2.1.1-1.6.2-2.2.2-1.4 4.9-15.7 14-25.3 26.8-30.5 13.9-5.6 27.5-10.8 28.2-30.9.3-8.4.9-16.8 2.8-21.1 3.5-7.8 9.7-9.8 9.7-9.8-6.5-.8-13.8 2-17.1 12.9z"/><g><path class="st2" d="M453.2 167.7c1-13.5 13.8-16 26.1-27.7 15.8-15-4.8-40.2-4.8-40.2 2.6 16.9-5.2 23.3-19.5 33.3-4.5 3.2-7.8 7.6-8.3 13.2-.5 6.3-.9 13-2.3 19.9 3 .4 5.9.9 8.8 1.5zM409.6 144.2c-3.8 2.8-7.4 5.8-10.7 8.7-2.4 2.3-4.7 4.5-6.8 6.7 13.9 1.2 27.5 2.8 40.5 4.7 8.3-15.2 12.3-32.4 7.4-61.7-.1 0-1.2 19.9-30.4 41.6zM331.8 156.7c15.9.2 31.5.8 46.8 1.8l1.5-1.5c10.2-11 26-20.2 34.5-32.5s5-27.3 1.9-45.5c-5.4-31.4 7.8-37.2 7.8-37.2s-26.5 3.7-26 19c.7 20.6 21.9 40-10.1 45.8-35.1 6.4-56.9 25.4-61.7 50.2 1.8-.1 3.5-.1 5.3-.1z"/></g><path d="M331.7 165c-147-1.5-269.7 36.5-273.9 84.7-1.7 19.2 15.6 37.2 46.4 51.9 19 9.1 43.2 17 71.1 23.2 5.6-2.5 11.4-4.7 17.6-6.6 4.9-1.5 13.9-4.4 23.8-8.7-41.2-6-74.5-15.2-95-26.3-15.1-8.2-23.3-17.4-22.4-27.1 2.9-32.4 105.8-57.7 229.9-56.5 124.1 1.2 222.4 28.5 219.5 60.9-.8 8.8-9 17.1-23 24.5-25.9 13.6-71.7 24.1-127.3 29-1.9 2.6-3.6 5.6-5 8.9 25.3-9.6 54.4 4.6 54.4 4.6s2 .8 3.3 1.7c36.9-6.6 68.6-15.9 92.4-27.3 28.1-13.4 45.1-29.5 46.7-47 4.3-48.2-111.5-88.5-258.5-89.9z" fill="#fff"/></svg>