<svg version="1.1" id="Layer_1" xmlns="http://www.w3.org/2000/svg" x="0" y="0" viewBox="0 0 648 648" xml:space="preserve"><style>.st2{fill:#fdbb30}</style><path d="M567.5 130.8C528.2 83.4 471.6 57 408.2 56.9H154.4L36.6 592.1l216.7.2 31.1-129.5h105.5c72.6.5 132.1-24.1 172.2-71.1 72.8-79.3 60-195 5.4-260.9z" fill="#bec0c2"/><path d="M273.3 448.7l-31.1 129.5-188 .1L165.7 71l242.4.2c60.4.1 112.1 24.6 148.5 68.6 53.8 64.9 59 172.7-5.3 242.8-39.4 46.2-97.3 66.6-161.4 66.1H273.3z" fill="#002d62"/><path class="st2" d="M140.7 183.7l106.2.1c12.2 0 25.2 10.3 19.6 25.8-3.5 9.6-6.1 20.7-7.4 31.1-1 8.1 8.1 13.3 13.3 13.3l216.5.2c4.1 0 6.2-1.2 6.2-3.1 0-1.9-.2-9.1-1-14.1-.8-4.8-1.6-5.6-5.4-5.6-27 0-38-12.1-66.3-30.3-28.3-18.2-69.8-28.7-105.4-28.8l-173.8-.1-2.5 11.5zM271.9 323.9c-3.8-8-7.2-17.6-9.3-26.3-2.7-11.2-12.2-20.4-28.5-20.4l-114-.1 2.8-12.8 369.3.3c3.7 0 2.9 1.5 2.7 5.6-.2 4.1-1.2 11.6-1.8 16.1-.6 4.5-4.3 3.4-7.8 3.5-8.3.2-23.8 2.1-32.8 8.9-15.3 11.5-48 31.7-66.3 37.6-19.7 6.3-93.2 28.8-114.8-12.7"/><path class="st2" d="M99.7 370.1l192.9.1c8.5 0 15.8 2 21.5 6.8 16.3 13.4 37.4 23.2 59.9 29.7 10.1 2.9 27.4-.9 42.9-9.6 38.6-21.8 63.4-63.3 71.6-90.1 2.1-7-1.9-6.4-7.4-6-16.3 1.2-33.4 15.9-55.9 30.2-22.5 14.3-68.3 27.9-111.7 27.8l-211.3-.1-2.5 11.2zM382.7 111.9c2.7-.5 12.5-1.1 17.9 1.1 36.6 14.4 71.3 52.6 85.8 93.1 2.8 7.8 3.5 12.8 0 13.2-16.8 1.8-24.6-6.4-44.4-19.8-19.8-13.4-38-22.5-63-30.5-24.7-7.9-69.6-9-75.4-9.2-5.8-.2-5.1-2.6-2.5-5.1 21.5-21.6 50.4-37.2 81.6-42.8zM558.4 250.8c.1 1.5-1.5 3.3-3.5 3.3h-42.2c-5.4 0-5.5-2.5-5.7-5.6-.2-3.1-1.1-9.3-1.3-13-.2-3.6-1.5-7.7 3.3-9.7 11.8-5 22.9-16.5 27.9-26.4 1.7-3.3 4.3-8.8 7.1-4.2 10.1 16.1 13.3 35.8 14.4 55.6zM543.3 326.8c-.7 1.4-3.4 2.5-4.3.2-6.2-16.5-20.8-27.8-30.9-33.5-3-1.7-3.3-3.7-2.9-6.7.4-3 1.7-12.6 1.9-16.7.2-3.2 1.5-5.5 3.9-5.5h44c1.6 0 3.5 1.4 3.5 2.6 0 21-6.4 41.7-15.2 59.6z"/><path class="st2" d="M428.8 409.4c-3.1.4-9.9-.6.8-6.8 32-18.6 60.5-62.2 68.1-87.3 2.9-9.6 3.2-10.1 6.9-9 4.9 1.4 12.6 8.1 18.5 16.2s8.5 24 5.1 28.5c-23 30.8-59.6 52.5-99.4 58.4zM510.2 211.9c-7.4 4-8.9 3.3-10.5-2.3-13.9-48.8-54.9-84.9-71.6-95.5-3.2-2-2.4-3.4-.1-3.1 40.1 5.3 79.4 27.2 99.2 57.2 11.3 17.1-9.8 39.8-17 43.7z"/></svg>