<svg version="1.1" id="Layer_2" xmlns="http://www.w3.org/2000/svg" x="0" y="0" viewBox="0 0 648 648" xml:space="preserve"><style>.st1{fill:#ce0e2d}</style><path d="M611.5 324.5c0 159.1-128.9 288-288 288s-288-129-288-288 128.9-288 288-288 288 128.9 288 288" fill="#fff"/><path class="st1" d="M323.7 57.5c-88.2 0-166.4 42.5-215.4 108.1 7.2 2.1 20.7 5.9 37.3 10.7l-.1.1c26.3 7.7 113.7 33.4 130 38.6 47.7 15.3 60.2 21.3 73.6 35.7 13.4 14.4 33.8 31 53.7 44.9 19.9 13.9 29.6 29.1 29.6 53.3 0 24.1-18.5 44.4-30.1 51.4 0 0 4.2-11.6-1.4-16.7s-23.1-14.8-68.1-11.6c-44.9 3.3-105.1 25-145.9 46.8 0 0 19.4-30.6 48.6-44.5 0 0-24.1 0-158.5 58.6 41.3 95.2 136.1 161.8 246.5 161.8 148.3 0 268.6-120.2 268.6-268.6.1-148.4-120.1-268.6-268.4-268.6m0 477.8c-58.6 0-111.6-24.1-149.6-62.9 108.5-55.9 176-41.5 176-30.6 0 11.1-16.7 37-16.7 37 88.4-12.5 152.8-65.8 152.8-137.5 0-71.8-67.2-106.5-84.3-117.2-18.3-11.4-9.7-26.9-69.9-49.6-36.6-13.8-88-27.4-108.2-32.6 29.7-16.2 63.7-25.3 99.8-25.3C439.2 116.7 533 210.4 533 326c0 115.6-93.8 209.3-209.3 209.3"/><path class="st1" d="M321.3 256.1s-15.3 1.4-31-6.5-39.8-25.5-60.7-6c0 0 17.6-2.3 16.2 2.3-1.4 4.6-3.2 31.5 20.8 41.7 24.1 10.2 51.9 2.8 54.7-31.5"/></svg>