<svg version="1.1" id="Layer_1" xmlns="http://www.w3.org/2000/svg" x="0" y="0" viewBox="0 0 648 648" xml:space="preserve"><style>.st0{fill:#061922}.st1{fill:#fff}</style><path class="st0" d="M605.7 113.9V97.1l-6.7-3.4c-4.7-2.4-116.5-58-271.9-58H320c-155.2 0-267.2 55.6-271.9 58l-6.7 3.4v7.4s0 3.4.1 9c-1.3 66.1 6.9 234 109.6 364.5 83.3 105.9 161.3 130.4 170 132.9l3.3 1 3.3-.9c3.4-.9 82.9-24.2 168.5-132.9C598.9 347.5 607 179.8 605.7 113.9"/><path class="st1" d="M488.7 472.2c100.6-127.7 108.5-292.2 107.2-357 .1-6 .1-9.4.1-9.4v-2.4l-2.2-1.1c-4.6-2.3-114.1-56.8-266.6-56.8H320c-152.4 0-262 54.4-266.6 56.8l-2.2 1.1v2.4s0 3.3.1 9c-1.3 65 6.7 229.7 107.2 357.4 81.2 103.2 156.5 127 164.8 129.3l1.1.3 1.1-.3c3.2-.9 79.7-23.3 163.2-129.3M324.3 593.8c-6.3-1.8-80.6-24.7-160.5-126.2C58.6 334 58.2 159.1 59 117.9c-.1-5.8-.1-9.1-.1-9.1s.1-.1.3-.2v-.4l2.4-1.1c5.6-2.6 18-8 36.1-14.5C142.5 76.3 222.8 53.3 320 53.3h7.1c97 0 177.1 22.9 222 39.3 18.2 6.5 30.8 12 36.4 14.6l2.4 1.1v.4c.2.1.3.2.3.2s0 3.3-.1 9.1c.8 41.2.4 216.2-104.9 349.8-79.9 101.6-152.8 124.4-158.9 126"/><path class="st1" d="M200 88.9c-7 1.4-10.4 2.1-17.3 3.7-1.3.3-2.3 1.5-2.3 2.9l1.4 127.9c0 8.5.2 16.3.6 23.3-17.3-44.2-35.3-89.9-53.7-136.3-.6-1.5-2.2-2.2-3.7-1.7-10.2 3.4-15.2 5.1-25.2 8.9-1.1.4-1.9 1.5-1.9 2.7v175.9c0 1 .5 1.9 1.3 2.4.5.3 1.1.5 1.7.5.3 0 .7-.1 1-.2 6.2-2.3 9.3-3.5 15.9-5.8 1.2-.4 2-1.5 2-2.8-.2-41.6-.5-83.2-.7-124.8 0-10.9-.1-17.1-.5-24.8 18 45.9 35.6 90.9 52.3 133.8.5 1.4 2 2.2 3.4 1.8 10.7-2.6 16-3.8 26.7-6 1.4-.3 2.4-1.5 2.4-2.9V91.8c0-.9-.4-1.7-1.1-2.3-.5-.5-1.4-.7-2.3-.6zm116.4-12.6c-30.4.5-61 3.2-91.1 8-1.4.2-2.5 1.5-2.5 2.9v175.9c0 .9.4 1.7 1 2.2.5.5 1.2.7 1.9.7h.5c29.6-4.8 59.9-7.4 89.9-7.9 1.6 0 2.9-1.3 2.9-2.9v-11c0-.8-.3-1.5-.9-2.1-.6-.5-1.4-.8-2.1-.8-28.1.5-43.1 1.5-70 5v-69.6c22.3-2.9 34.1-3.9 57.4-4.7 1.6-.1 2.8-1.4 2.8-2.9v-10.7c0-.8-.3-1.6-.9-2.1-.6-.5-1.3-.9-2.1-.8-22.8.8-35.1 1.8-56.8 4.6V98.2c27.4-3.6 41.6-4.6 70.1-5 1.6 0 2.9-1.3 2.9-2.9v-11c0-.8-.3-1.6-.9-2.1-.5-.6-1.3-.9-2.1-.9zm126.4 10.2c-35.7-6.5-72.2-10-108.4-10.5-.8 0-1.5.3-2.1.8-.6.6-.9 1.3-.9 2.1v11.2c0 1.6 1.3 2.9 2.9 2.9 17 .2 25.7.6 41.8 1.8V257c0 1.5 1.2 2.8 2.7 2.9 7.1.6 10.6.9 17.7 1.7h.3c.7 0 1.4-.3 2-.8.6-.6 1-1.4 1-2.2V97.2c16.1 1.8 25 3.1 42 6.3.9.2 1.7-.1 2.4-.6.7-.6 1-1.4 1-2.3V89.4c0-1.4-1-2.6-2.4-2.9zm75.3 104.9c-37.4-38.7-41.7-44.9-41.7-60.8 0-15.7 6.9-17.9 13.6-17.9 3.5 0 7.8.7 12.8 2.2 27.1 7.8 27.1 22.5 27.1 33.5V164c0 1.3.8 2.4 2 2.8 6.5 2.2 9.8 3.4 16.6 5.9.9.3 1.9.2 2.7-.3.8-.6 1.3-1.4 1.3-2.4v-13.1c0-16.6 0-44.3-48.4-58.2-33.8-9.7-51.1.7-51.1 30 0 24.4 14.9 39 39.7 63.1l5 4.9c29.4 28.8 35.3 38.3 35.3 56.6 0 6.5-1 11.1-3 14-2.1 2.9-5.4 4.3-10.5 4.3-3.9 0-8.9-.9-14.7-2.6-12.9-3.7-22.2-8.7-27.7-15-6.8-7.6-6.8-14.1-6.8-26.9v-13.9c0-1.4-.9-2.6-2.3-2.9-7.2-1.6-10.7-2.4-17.6-3.7-.9-.2-1.8.1-2.4.6-.7.6-1.1 1.4-1.1 2.3v24.7c0 23.2 19 40.9 54.9 51.1 10.1 2.9 18.9 4.4 26 4.4 28.1 0 28.1-22.7 28.1-32.3 0-25.7-12.9-40.3-37.8-66zM433.1 400.1c2-2.1 3.6-4.3 4.8-6.7 9.2-17.7 1-37.6-2.5-44.5-25.7-42.4-74.2-67.3-124.8-62.5 52.4 2.8 103.1 49.6 122.5 113.7zm-171.1-52c12.6 5.3 29.2 14.2 46.7 23.6 27.6 14.8 56.2 30.2 75.6 35 17.2 4.3 31.4 3.9 41.3-1.1 0-.2-.1-.4-.1-.6-.1-.7-.3-1.4-.5-2.1-8.4-35.3-52.5-112.4-128.9-112.4-3.2 0-6.5.2-9.8.5-29.5 8.6-53.8 26.7-70.3 50.1 2.8-.9 6.4-1.7 11.4-1.7 9.4.1 21 2.9 34.6 8.7zm-19 106.4c31 10.2 48.3 13.5 70.9 13.5 8.2 0 17.6-.5 29.6-1.5 33.1-2.8 68-13.8 86.7-22.9 0-9.1-.9-18.3-2.5-27.5-5.6 3.4-11.8 5-19.6 5-7.8 0-17.2-1.5-32.5-5.2-18.1-4.3-43.9-19.7-66.6-33.2-12.5-7.4-24.3-14.5-34-19.3-37.2-18.4-58.3-15.8-63.9-14.6-13.3 22.1-20 48-18.2 74.8 2.4 3.6 15.1 19.3 50.1 30.9zm196-15.9c.3-.2.6-.5.9-.7 11-7.7 13.8-20.1 14.2-22.1 0-10.4-1.3-21-4-31.5-.1-.4-.2-.8-.4-1.3-1 9.7-5.8 18.6-14.2 26.7 2.4 9.7 3.5 19.4 3.5 28.9zm3.2 7.1c-.4.3-.9.6-1.3 1-.7.5-1.5 1.1-2.2 1.6-.6 8.3-2.2 16.5-4.5 24.5 4.1-1.4 5.5.2 6 1.2 0 .1.1.3.1.4 6.8-13.3 11.2-27.8 13.1-42.8-2.3 5-5.6 10.2-11.2 14.1zm-5 32.5c-.1-.5-.2-.5-.5-.5-.4 0-1.3.2-3.2 1.4-.3.2-.7.5-1 .7l-.9.6c-3.3 8.7-7.6 16.8-12.5 24.1 7.2-7.7 13.4-16.2 18.5-25.2h-.2l-.2-1.1zm-134.1 55.1c14.9-1.7 27.3-5.5 41.4-12.6 2.1-1 4.1-2.1 6.1-3.1l5.1-2.7c11.9-6.3 24.8-13 40.3-21.4 5.5-2.9 10.9-6 16.2-9.1l6.2-3.4c2.4-1.3 4.7-2.5 6.9-3.9.2-.1.5-.3.8-.5 2-7.3 3.3-15.1 3.9-23.5-15.3 7.6-38.1 14.3-71.7 21.1-43 8.6-85.1 4.7-122.6-11.1-25.2-10.6-37.2-25.4-42.2-33.5.7 5.8 1.7 11.6 3.1 17.3 8.3 32.8 28.4 59.5 54.7 76.8l-.1-.2 3.7 2.2c3 1.8 6.7 3.3 11.1 4.6 8.2 2.4 16.3 3.7 24.7 3.7 3.9.1 8-.2 12.4-.7zm119-46.3c-1.7 1.2-3.4 2.4-5.3 3.7-4.9 3.4-9.7 6.3-14.8 9.4-2.4 1.4-4.8 2.9-7.4 4.5-17.5 10.8-38.4 22.8-60.9 29.7-6.5 2-12.5 3.5-18.4 4.4-5.4.8-10.5 1.2-15.5 1.2h-1c-6.6 0-13.1-.7-19.2-1.8 23.5 8.3 49.6 10.1 75.6 3.7 14.9-3.7 28.6-9.8 40.7-17.8 11.6-9.1 21-22 27-37.5-.2.1-.5.3-.8.5z"/><path class="st1" d="M375.1 442.3c0-9.5 0-23.7-11.3-34.7 1.2-2.1 2.3-4.5 3-7 1.9-5.7 2-11.9 1.9-16V358c-.3-9.8-1.8-20.1-9.7-29-7.2-8.1-17.9-12.3-31.1-12.3l-35.6.1c-3.9 0-7.8 1.5-10.6 4.3s-4.4 6.6-4.4 10.5l.3 172.3c0 5.1 2.6 9.9 7 12.5 2.4 1.4 5.2 2.3 8.1 2.3l36.2-.1c13.1 0 24-3.7 32.6-11.1l.1-.1c11.9-10.7 13.2-23.3 13.5-35.4v-29.7z"/><path class="st0" d="M365.9 443.4c0-9.6 0-21.4-10-29.7-2.1-1.7-4.6-3.3-7.6-4.5 4.7-3.1 7.8-7.4 9.6-12.8 1.6-4.8 1.5-10.8 1.5-13.2l-.1-27.4c-.2-7.6-1.1-16.2-7.2-23.2-5.4-6-13.6-9.1-24.1-9.1l-37.1.1c-1.1 0-2.1.4-3 1.2-.8.8-1.2 1.8-1.2 2.9l.3 179.8c0 1.4.7 2.9 2 3.6.7.4 1.5.7 2.4.7l37.8-.1c4 0 16.3 0 26.6-8.8 9.1-8.2 10-17.9 10.3-28.8l-.2-30.7zm-26.2 45.7c-2.7 1.9-5.9 3-14.2 3.3h-15.3c-1.3 0-1.8-.8-1.8-2 0-10.5-.1-68.2-.1-68.7s.1-1.3 1.2-1.3c1.1 0 7.1-.1 7.1-.1 7.5.4 15.4.9 20.6 4.2 3 1.8 5 4.3 6.2 7.7 1.1 3.5 1.3 7.3 1.3 10.9l.1 25.5c0 11.6-.7 17.1-5.1 20.5m-12.5-89.4c-3.1.9-4.5 1.1-11.2 1.4h-6.6c-1.1 0-1.4-.5-1.4-1.4l-.1-55.4c0-.9.3-1.4 1.3-1.5h11c4.9.2 10.3.3 13.8 2.5 1.6 1 2.6 2.2 3.2 3.8.5 1.6.9 4.5 1.2 9.4l.1 21.4c-.1.4-.1.9-.1 1.6-.1 5.5-.3 14.9-11.2 18.2"/></svg>