<svg xmlns="http://www.w3.org/2000/svg" viewBox="0 0 648 648"><path d="M398.2 304.2l.6-51.6c-.1-24.2-25.2-28.3-43.8-27.9 12.5-4.1 27.4-11.2 38.3-22.9 11.4-10.5 19.5-25.3 18.1-46.1-2.4-35-46.1-52.4-118.6-45.3-1.2.1-2.4.2-3.6.4-3.4-25.8-8.7-50.9-16.8-74l-3.6 3.6c-9.6 29.9-15.4 53.7-18.7 75.8-43.3 7.5-73.6 17.4-73.6 17.4l-3.6 3.6s35-3.2 74.8-2.6c-4.4 45.3.1 88.4-.1 169.7-64.4-1.8-120.9 8.9-134.7 26.1-4.5 3.7-7 7.9-6.8 12.3.7 19.7 59.3 37.8 141.5 44.7l3.5 111.8 3.6-3.6 5.8-75.8c0-1.2.2-2.3.4-3.2 1.7.2 3.4 2.4 3.4 6.3l2.5 99.8 3.6-3.6 6.1-81.2c0-1.8.2-3.3.5-4.5 1.7.3 3.3 2.9 3.2 7.4l2.8 104.1 3.6-3.6 4.9-151.5c9.5.3 19.1.5 28.9.5 10.4 0 20.6-.2 30.7-.5l5 157.9 3.6-3.6 4.2-82.6c0-1.7.2-3 .5-4.2 1.6.4 3.1 2.8 3.1 7.1l4.3 115.9 3.6-3.6 4.3-100.1c0-1.4.3-2.6.6-3.6 2.1 0 4.1 2.4 4.2 7.2l3.6 132.7 3.6-3.6 5.2-222.2c70.3-6.1 123.7-20.3 137-36.6 4.4-3.7 6.7-7.5 6.7-11.4-.7-21.8-65.7-38.6-142.4-34.9m-151 59.5c-56.4-5.4-94.5-16.9-94.5-31.3 0-1.1.3-2.1.9-3 13.2-9.3 53.7-15.2 94.3-21.2-.1 15.9-.3 33.2-.8 52.3l.1 3.2zm114.9-194.1c2.1 16-2.4 28-10.7 37.1-14.7 13.3-37.8 19.4-56.5 22.2.3-30.1-.1-61.3-2.7-92 36.2 3.9 67.2 13 69.9 32.7m-10.6 197.2c-8.8.3-17.9.4-27.1.4-10.9 0-21.5-.2-31.8-.5l.4-12.9c-1-32.6 1.1-73.4 1.7-117 26.4 3.1 58.2 10.6 57.7 29.2l-.9 100.8zm140.2-25.2c-13.1 10.4-48.1 18.4-94.2 22.5l.7-55.4c52.8 6.9 95.6 14.6 95.6 27.3 0 1.9-.7 3.8-2.1 5.6" fill="#061922"/><path d="M540.9 338.9c-1-21.6-66-38.4-142.7-34.7l.6-51.6c-.1-31.9-43.8-28.8-58.5-26.8 17.2-3.1 74.7-17.5 71.1-70.1-2.4-35-46.1-52.4-118.6-45.3-1.2.1-2.4.2-3.6.4-3.4-25.8-8.7-50.9-16.8-74-10.1 31.3-15.9 55.9-19.2 78.9-44.9 7.5-76.7 17.9-76.7 17.9s35-3.2 74.8-2.6c-4.5 46 .2 89.7-.1 173.4-76.2-2.7-142.3 12.1-141.5 34.7.7 19.7 59.2 37.8 141.5 44.7l3.5 111.7 5.8-75.8c.2-9.4 7.3-8.5 7.3-.5l2.6 99.8 6.1-81.2c-.1-11 7.6-10.4 7.3-.6l2.8 104.1 5-155.1c10.6.4 21.4.6 32.4.6 10.4 0 20.6-.2 30.7-.5l5 157.9 4.2-82.6c.1-10.5 7.2-10 7.2-.7l4.3 115.9 4.3-100.1c.3-9.8 8.2-9.4 8.4 0l3.6 132.7 5.3-225.3v-.1c83.5-7.2 143.9-25.4 143.9-45.1M365.6 166.1c5.9 43.7-38.7 58.1-70.7 62.8.3-31.4-.1-64.1-3.1-96 37.9 3.6 71.1 12.7 73.8 33.2M152.8 332.4c0-13.4 49.3-20.4 98.7-27.8-.1 15.9-.3 33.2-.8 52.3l.2 7.3c-58.4-5.4-98.1-17.1-98.1-31.8m139.8 34.2l.4-12.9c-1-33.5 1.2-75.8 1.8-120.9 27 2.8 61.8 10.1 61.2 29.5l-1 104.3c-9.9.3-20.2.5-30.6.5-10.9.1-21.5-.1-31.8-.5m104.9-2.5l.7-59.5c54.4 7 99.1 14.8 99.1 27.7.1 14.9-40.7 26.6-99.8 31.8" fill="#ce1141"/></svg>