<svg version="1.1" id="Layer_1" xmlns="http://www.w3.org/2000/svg" x="0" y="0" viewBox="0 0 648 648" xml:space="preserve"><style>.st1{fill:#00788c}.st2{fill:#fff}</style><path d="M170.2 298.9h-42.3v46l-25.5 12.5 25.5 13.3v40.8l28.1 17.2c10.4-1.4 23.6-3 38.9-4.5l108.7 62.6 19.8 91.1c.1-.2 20-91.1 20-91.1l108.5-62.6c15.3 1.6 28.5 3.2 38.9 4.5l28.1-17.2v-40.8l25.5-13-25.5-12.7v-46h-42.3s6.6-6.3 14.8-20.6c3.5-6 6.7-13.4 10.8-22.2 30.8-9.4 53.6-29.1 63.4-48.3 26.4-48.4 46.3-107.5 46.3-107.5s-11.4 5.5-25.2 12.3c11.2-34.1 17.9-63 17.9-63s-121.9 80.6-216.8 156.4l-8.2-4.9c0-.8.3-7.7.3-8.3 0 0 .9-8.1-13.2-12.9-.9-.3-1.7-.6-2.5-.8 6.9-5.2 17.5-13 25.3-18.4 12.4-8.5 11-17.9 11-17.9l-45 33.5c-34.8-11.3-63.8 0-63.8 0l-45-33.5s-1.5 9.4 10.9 17.9c7.8 5.3 18.5 13.2 25.4 18.4-.8.3-1.7.6-2.5.8-14.2 4.8-13.2 12.9-13.2 12.9 0 .6.2 7.5.2 8.3l-8.2 4.9C164 130.1 42.2 49.5 42.2 49.5s6.7 28.9 17.9 63c-14.7-7.3-25.2-12.3-25.2-12.3s19.9 59.1 46.3 107.5c9.7 19.2 32.5 38.9 63.3 48.3 0 0 5.2 11.9 9.7 20.5 5.6 10.7 16 22.4 16 22.4z" fill="#1d1160"/><path class="st1" d="M374.4 230c-.4 1.3-.9 2.6-1.3 3.9 42.7-27.9 117.2-76.5 200.7-130.8 0 0 .1 1.8 7.5-19.6-88.2 53.3-166.4 113.7-206.9 146.5zM272.2 230c-40.5-32.8-118.7-93.2-206.9-146.5 7.4 21.5 7.5 19.6 7.5 19.6 83.5 54.3 158.1 102.9 200.7 130.8-.4-1.3-.9-2.5-1.3-3.9zM323.3 273.1c-7.3-2.8-25.7-12-36.7-35.9 9 7.8 20.6 10.3 29.9 1.3-11.3-4.9-12.7-25-14.9-30.3-4.4-10.7-11.4-16.1-16.9-18.4 2.7-.9 5.3-1.7 7.7-2.5 5.3 2.9 14.1 9.5 16.9 22.6 0 0 1.2-15-6.3-25.5 14.4-3.5 29-3 40.8 0-7.5 10.5-6.3 25.5-6.3 25.5 2.8-13.1 11.6-19.8 16.9-22.6 2.4.7 4.9 1.6 7.7 2.5-5.5 2.3-12.5 7.7-16.9 18.4-2.2 5.3-3.6 25.4-14.9 30.3 2.5 15.3-.7 29.6-7 34.6zm-128.6 28.2s-21-15-32.8-42.4l8.4 2.5c27.3 7.2 79.5 14.4 79.5 14.4-25.1.6-46.4 2.5-58.5 3.9-2.5-3.1-5.4-7.1-6.5-10.1 0 0 .9 9.6 3.1 15.6 2.7 8.8 6.8 16 6.8 16.1zM458.7 285.2c2.1-6 3.1-15.6 3.1-15.6-1.1 3-4 7-6.5 10.1-12.1-1.3-33.4-3.3-58.5-3.9 0 0 52.2-7.2 79.5-14.4l8.4-2.5c-11.8 27.4-32.7 42.3-32.8 42.4 0-.1 4.1-7.3 6.8-16.1zM258.3 430.9l-53.2-30.7c-3.8.4-7.6.7-11.2 1.1l73.8 42.6c-3.6-4-6.7-8.4-9.4-13zM388.3 430.9l53.2-30.7c3.8.4 7.6.7 11.2 1.1l-73.8 42.6c3.6-4 6.7-8.4 9.4-13zM299.7 438c-23.5-5.1-33.2-16.7-33.2-16.7 4.8 9.8 12.1 18.2 21 24.3-.1.1 9.8-2.8 12.2-7.6zM285.3 412.9l-5-5c-7.5 2.6-11.8 5.5-14 7.5 5.2 4.9 15.1 11.5 32.9 15.2-2.2-6.1-7.7-11.5-13.9-17.7z"/><path class="st1" d="M322.8 468.3c-7.8.1-13.3 3.1-15.2 3.8-1.9-3.7-4.2-7.4-6.4-10.7 6.7.8 12.6-.4 12.6-.4-2.8-.9-10-3.4-19.5-9.6.8-.3 1.6-.7 2.5-1.1 2.5-1.3 5-2.9 7-4.9 2.4-2.4 4-5.5 4-9.3 0-11.7-7.8-15.6-16.7-24.3-1.8-1.7-3.7-3.5-5.6-5.4 8.1-2.2 19.1-3.9 33.9-4.1l3.5 49.5h.5l3.7-49.5c14.8.3 25.8 2 33.9 4.1-1.9 1.9-3.8 3.7-5.6 5.4-8.8 8.7-16.7 12.6-16.7 24.3 0 3.8 1.6 6.8 4 9.3 2 2 4.5 3.7 7 4.9.8.4 1.7.8 2.5 1.1-9.5 6.3-16.7 8.7-19.5 9.6 0 0 5.9 1.3 12.6.4-2.1 3.3-4.4 7-6.4 10.7-1.9-.7-7.4-3.7-15.2-3.8h-.9z"/><path class="st1" d="M359.2 445.7c8.9-6.2 16.2-14.5 21-24.3 0 0-9.7 11.6-33.2 16.7 2.3 4.7 12.2 7.6 12.2 7.6zM347.4 430.6c17.8-3.7 27.7-10.3 32.9-15.2-2.2-2-6.5-4.9-14-7.5l-5 5c-6.2 6.2-11.7 11.6-13.9 17.7z"/><g><path class="st2" d="M307.4 239.8s-8.6-5.7-10-17.8c0 0-11.2 18.7 10 17.8zM339.8 239.8s8.6-5.7 10-17.8c0 0 11.2 18.7-10 17.8zM333.5 486.4c-1.5-1.6-3.8-3.5-10.6-3.5-6.5 0-8.7 1.6-10.6 3.2l11.1 43.8 10.1-43.5zM406.7 294.2v16h-5.4v-16h-4.5v-4.6h14.3v4.6h-4.4zM381.6 294.2v16h-5.4v-16h-4.5v-4.6H386v4.6h-4.4zM305.9 302.9h1.9v-11.1l-2.3-2.2H292v20.6h5.1v-7.3h3.8l2.9 7.3h5l-2.9-7.3zm-3.1-4.6H297v-4.1h5.7v4.1zM437.7 294.2v-4.6h-15.1v20.6h15.1v-4.6h-9.8v-3.4h9.8v-4.6h-9.8v-3.4zM326.1 305.6v-16h-5.3v20.6h12.9v-4.6zM357.4 289.6h-13.7v18.3l2.3 2.3h13.6v-18.3l-2.2-2.3zm-2.8 16h-5.8v-11.4h5.8v11.4zM279.8 310.2v-18.3l-2.3-2.3h-14v20.6h5.2v-6.7h5.9v6.7h5.2zm-11.1-11.3v-4.7h5.9v4.7h-5.9zM247.1 289.6v9.3h-5.8v-9.3h-5.2v20.6h5.2v-6.7h5.8v6.7h5.2v-20.6zM556.3 143.4c10-23.6 17.6-40.2 17.6-40.2-83.6 54.2-158.1 102.8-200.8 130.7-1.6 4.5-3.5 8.7-5.5 12.5l168.3-91.7-131.3 94.9 6.1-1.1 69.4-6.7s46.9-4.5 73-39.6c12.3-18.8 33.2-73.9 33.2-73.9l-30 15.1zM154.3 362.9l16.2-7v36.7c4.6-.6 9.4-1.2 14.2-1.8v-80.6h-14.2v29l-16.2 6.8v-35.9H140v41.7s-11.8 5.7-11.7 5.8l11.7 5.9v33.8c4.6-.8 9.4-1.6 14.3-2.4v-32zM265.2 362.6c3.6-.1 7-.2 10.6-.3 2.6 6.8 5.3 14.6 8 21.4 4.7-.1 9.5-.3 14.2-.3-2.6-6.9-5.3-14.6-7.9-21.4 1.8 0 3.6-.1 5.4-.1v-33l-6.3-6.2h-43.7l5.4 6.4V385c4.7-.3 9.5-.5 14.3-.7v-21.7zm0-26.7h16.1v12.6l-16.1.3v-12.9zM320.8 335.9h16.3v47.4c4.9 0 10 .1 14.9.2v-54.2l-6.5-6.5h-44.7l5.4 6.4v54.1c4.8-.1 9.7-.1 14.6-.1v-47.3zM405.4 371.9c-9.2-.5-18.3-.9-27.5-1.2v-10.1c9.2.3 18.4.6 27.6 1v-14.2c-9.2-.2-18.4-.5-27.6-.6V336h27.6v-13.1h-47.9l5.3 6.4v54.5c14.6.4 28.8 1.1 42.6 1.9v-13.8zM441.3 335.9h12.3v-13.1h-40.3v13.1h12.5v51.3c5.1.4 10.5.9 15.5 1.3v-52.6zM240.4 329.2l-6.4-6.4h-43.8l5.2 6.2v53.2l5.7 6.7c12.6-1.3 25.8-2.3 39.4-3.2l-.1-56.5zm-14.3 43.4c-5.5.3-10.9.7-16.3 1.1v-37.8h16.3v36.7zM505.1 363.3c4.4-2 8.8-4 13.3-6.1-14.2-6.6-28.4-12.6-42.7-18.1v-16.2h15.1v5.9h14.3v-18.6H456l5.4 6.3v33.3l29.3 12.7v18.6s-6.8-.9-15.1-1.9v-6l-14.2-1.7v19c15.6 1.8 30.2 3.9 43.6 6.3.1-10 .1-26 .1-33.5z"/><g><path class="st2" d="M219.4 303.8v1.8h-4.7v-11.4h4.7v1.7h5.1v-6.3h-14.8v18.3l2.3 2.3h12.5v-6.4z"/></g><path class="st2" d="M90.4 143.4c-10-23.6-17.6-40.2-17.6-40.2 83.5 54.2 158.1 102.9 200.7 130.8 1.6 4.5 3.5 8.7 5.5 12.5l-168.3-91.7L242 249.7l-6.1-1.1-69.4-6.7s-46.9-4.5-73-39.6c-12.3-18.8-33.2-73.9-33.2-73.9l30.1 15z"/></g><path d="M608.5 127.1c-13.3 35.7-31.1 72.4-39.9 87.6-14.9 25.5-44.7 40.8-62.1 46.4 0 0-8.5 20.4-17.2 31.7h35.6v48.4l33.8 16.2-33.8 17.1v40.6l-32.8 20s-26.1-3.2-38.9-4.6l-104 60.1c-21 94-25.9 121.4-25.9 121.4s-4.9-25.9-25.8-121.6l-104-60.1c-12.7 1.3-38.9 4.6-38.9 4.6l-32.8-20-.1-40.6-33.8-17.1 33.8-16.2v-48.4h35.6c-8.6-10.7-17.2-31.7-17.2-31.7-10.5-3.4-20.4-8.2-29.3-13.9-14-8.9-25.6-20.2-32.8-32.5-14.2-25-30.8-62.6-39.9-87.6-6-15.2-13.5-38.5-13.5-38.5s19.4 9.3 25.3 12.2C40.6 73 32.8 36 32.8 36S166 123.6 259.4 198.5l1.5-.9c0-1.6-.1-3.1-.1-4.8 0-.9 0-2.8.8-5 1.1-3.1 3.5-6.9 8.9-10.3-6.9-5-19.2-13.6-20.3-14.8-9-7.8-10.6-16.7-9.9-21l1.5-10 50.7 37.7c27.6-7.9 47-4 61.4 0l50.7-37.7 1.5 10c.7 4.4-.8 13.2-9.9 21-1.1 1.1-13.5 9.7-20.3 14.8 5.4 3.3 7.8 7.2 8.9 10.3.8 2.3.9 4.1.8 5 0 1.6 0 3.2-.1 4.8l1.5.9C482.8 121.8 613.8 36 613.8 36s-6.5 30.4-17.1 64.7c5-2.5 25.3-12.2 25.3-12.2-5.7 18.6-13.5 38.6-13.5 38.6zM170.2 298.9h-42.3v46l-25.5 12.5 25.5 13.3v40.8l28.1 17.2c10.4-1.4 23.6-3 38.9-4.5l108.7 62.6 19.8 91.1c.1-.2 20-91.1 20-91.1l108.5-62.6c15.3 1.6 28.5 3.2 38.9 4.5l28.1-17.2v-40.8l25.5-13-25.5-12.7v-46h-42.3s6.6-6.3 14.8-20.6c3.5-6 6.7-13.4 10.8-22.2 30.8-9.4 53.6-29.1 63.4-48.3 26.4-48.4 46.3-107.5 46.3-107.5s-11.4 5.5-25.2 12.3c11.2-34.1 17.9-63 17.9-63s-121.9 80.6-216.8 156.4l-8.2-4.9c0-.8.3-7.7.3-8.3 0 0 .9-8.1-13.2-12.9-.9-.3-1.7-.6-2.5-.8 6.9-5.2 17.5-13 25.3-18.4 12.4-8.5 11-17.9 11-17.9l-45 33.5c-34.8-11.3-63.8 0-63.8 0l-45-33.5s-1.5 9.4 10.9 17.9c7.8 5.3 18.5 13.2 25.4 18.4-.8.3-1.7.6-2.5.8-14.2 4.8-13.2 12.9-13.2 12.9 0 .6.2 7.5.2 8.3l-8.2 4.9C164 130.1 42.2 49.5 42.2 49.5s6.7 28.9 17.9 63c-14.7-7.3-25.2-12.3-25.2-12.3s19.9 59.1 46.3 107.5c9.7 19.2 32.5 38.9 63.3 48.3 0 0 5.2 11.9 9.7 20.5 5.6 10.7 16 22.4 16 22.4z" fill="#a1a1a4"/></svg>