<svg version="1.1" id="Layer_1" xmlns="http://www.w3.org/2000/svg" x="0" y="0" viewBox="0 0 648 648" xml:space="preserve"><style>.st3{fill:#fff}</style><path d="M611.4 323.6c0 159.1-128.9 288-288 288s-288-128.9-288-288 128.9-288 288-288c159 0 288 129 288 288" fill="#b5b3b3"/><path d="M603.1 323.6c0 154.5-125.2 279.7-279.7 279.7S43.7 478.1 43.7 323.6 168.9 43.9 323.4 43.9s279.7 125.2 279.7 279.7" fill="#1d428a"/><path d="M561.9 323.6c0 131.7-106.8 238.5-238.5 238.5S84.8 455.4 84.8 323.6c0-131.7 106.8-238.5 238.5-238.5s238.6 106.8 238.6 238.5" fill="#c8102e"/><path class="st3" d="M323.4 85.1c-131.5 0-238.5 107-238.5 238.5s107 238.5 238.5 238.5 238.5-107 238.5-238.5-107-238.5-238.5-238.5M98.7 330.6h43.9v-14H98.7c.2-5.3.4-10.6 1-15.8C115.2 222.5 209.6 162 323.4 162c113.8 0 208.1 60.4 223.7 138.8.5 5.2.8 10.5 1 15.8h-43.9v14H548c-.2 5.3-.4 10.6-1 15.8-15.6 78.3-109.9 138.8-223.7 138.8-113.8 0-208.1-60.4-223.7-138.8-.5-5.2-.8-10.4-.9-15.8M323.4 98.8c95.3 0 176.8 59.6 209.5 143.4-40-54.7-118.9-92-209.5-92s-169.6 37.3-209.5 92c32.6-83.8 114.2-143.4 209.5-143.4m0 449.7c-95.3 0-176.8-59.6-209.5-143.4 40 54.7 118.9 92 209.5 92s169.6-37.3 209.5-92c-32.7 83.8-114.3 143.4-209.5 143.4"/><path class="st3" d="M222.6 405.6h16.8v-75.7h-16.8zM287.2 329.9h-.5c-4.7 0-22-.1-25.3 0h-.9c-5.1 0-8.3 2.4-9.1 6.8-.1.7-.1 1.3-.1 1.3 0 .2-1.2 14.4.2 18.4 2.3 6.5 7.5 8.9 12.4 10.4.2 0 .3.1.5.1l.9.3c.5.2.9.5 1.1.9l.1 27.3h-13.9l.1 10.1H271c6.4-.3 10.7-3.1 12.4-7.9.5-3.7.5-29.1.2-34.4-.1-2-1-3.6-2.9-5.1-.7-.6-1.6-1.1-2.7-1.8-1-.5-2.1-1.1-3.1-1.5-4-1.9-8.4-4.1-8.4-9.2v-4.3h13.2c2.7 0 4.9-1.3 6.3-3.8 1.1-1.9 1.4-3.8 1.4-4 .1-1.2.1-2.4 0-3.2l-.2-.4zM364.3 329.8c-3.8 0-7.8.1-10.9 1-8.3 2-12.3 7.5-12.3 16.9v45.1c0 11.5 8.3 13.9 20.7 13.9 15 0 23.6-5.3 23.6-14.6v-47c0-15.3-9.7-15.3-21.1-15.3m-5.5 17.1c.1-2 .2-3.5.5-4.7l.3-.3c.8-.1 1.5-.2 2.4-.2h.3c5.7.1 5.9 1.8 5.9 12.1v31.6c0 .9 0 1.8-.1 2.8 0 .9-.1 1.8-.3 2.6l-.3.3c-1 .1-2 .2-3 .2-2.1 0-3.6-.5-4.5-1.4-1.3-1.4-1.4-3.7-1.3-6.4v-32c0 .2 0-3.4.1-4.6M424.5 362.1c-8.1-29.2-21-32.4-26.3-32.4-1.4 0-2.2.2-2.3.2l-.4.1v75.7h17.1v-30.5l11.9 30.5h17.4v-75.8h-17.3v32.2zM202 329.8l-42.6.1h-.5v.5c0 .1-.4 9 9.6 11.1v64.2H186v-32.2h14.7c7.8 0 12.2-5.1 12.2-14v-2.7c0-21.6-.9-25.9-10.9-27m-6.8 33.7h-9.5v-22s5.2-.1 5.9 0c1.9.2 3.6 1 3.6 3.2.1.7 0 18.8 0 18.8M335.9 329.9h-39.5v11.9h11.3v63.9h17.4v-64h.6c3.1 0 5.6-.9 7.3-2.8 3.2-3.3 2.9-8.3 2.9-8.5v-.5zM487.8 329.9h-.5c-4.7 0-22-.1-25.3 0h-.9c-5.1 0-8.3 2.4-9.1 6.8-.1.7-.1 1.3-.1 1.3 0 .2-1.2 14.4.2 18.4 2.3 6.5 7.5 8.9 12.4 10.4.2 0 .3.1.5.1l.9.3c.5.2.9.5 1.1.9l.1 27.3h-13.9l.1 10.1h18.3c6.4-.3 10.7-3.1 12.4-7.9.5-3.7.5-29.1.2-34.4-.1-2-1-3.6-2.9-5.1-.7-.6-1.6-1.1-2.7-1.8-1-.5-2.1-1.1-3.1-1.5-4-1.9-8.4-4.1-8.4-9.2v-4.3h13.2c2.7 0 4.9-1.3 6.3-3.8 1.1-1.9 1.4-3.8 1.4-4 .1-1.2.1-2.4 0-3.2l-.2-.4z"/><g><path class="st3" d="M332.9 283.1h2.9c2.8.1 7.5.9 7.5 6 0 2.4.2 10 .3 12.8v1.1c0 .4.2 4.1.4 4.8 1.2 4.4 4.6 7.1 10 7.6h4.9v-27c0-2.3-1.3-5.6-3.1-7.9l-.4-.5c2.7-3 3.8-6.1 3.8-10.8v-2.6c0-20.9-.8-25.1-10.6-26.2H316v74h16.9v-31.3zm.1-30.9h3.4c4.4.1 6.1.1 5.9 7.9 0 6.2 0 6.6-.1 9.7v.6c0 .9-.4 1.9-.9 2.5-.4.4-.9.6-1.4.6H333v-21.3zM437.6 240.5h-16.5v74h16.5zM279.7 314.6h16.9v-62.5h.6c3 0 5.5-.9 7.2-2.7 3.1-3.2 2.8-8.1 2.8-8.3v-.5h-38.5v11.6h11v62.4zM457.2 314.6h16.9v-62.5h.6c3 0 5.5-.9 7.2-2.8 3.1-3.2 2.8-8.1 2.8-8.3v-.5h-38.5v11.6h11v62.5zM259.8 302.6h-17.7v-18h12.2v-16h-12.2v-16.7h17.7v-11.4h-34.1l-.1 74h34.2zM204.2 240.5H162l-.1.5c0 .2-.5 4.4 2.2 7.7 1.7 2.1 4.4 3.2 7.9 3.4v62.3h31.4c7.2 0 12-6.1 12-15.1V265c0-19 0-24.1-11.2-24.5m-5.9 62.1h-9.4v-50.5c5.8-.2 7 .3 7.1.3 2.2.9 2.1 4.9 2.1 5 .7 5.9.3 40.6.2 45.2M391.2 240.5c-3.8 0-7.7.1-10.9 1-8.2 1.9-12.2 7.4-12.2 16.5v44.1c0 11.3 8.2 13.6 20.5 13.6 14.9 0 23.5-5.2 23.5-14.2v-46c0-15-9.7-15-20.9-15m-5.6 16.8c.1-2 .2-3.4.5-4.6l.3-.3c.7-.1 1.5-.2 2.4-.2h.3c5.7.1 5.8 1.8 5.8 11.9v31c0 .9 0 1.8-.1 2.7 0 .9-.1 1.7-.3 2.5l-.3.3c-1 .1-2 .2-3 .2-2.1 0-3.5-.4-4.4-1.4-1.3-1.4-1.4-3.6-1.3-6.2v-31.3c.1 0 .1-3.4.1-4.6"/></g></svg>