<svg version="1.1" id="Layer_1" xmlns="http://www.w3.org/2000/svg" x="0" y="0" viewBox="0 0 648 648" xml:space="preserve"><style>.st0{fill:#fff}.st1{fill:#061922}.st2{fill:#008348}.st3{fill:#a73832}.st4{fill:#fab383}.st5{fill:#bb9753}</style><path class="st0" d="M583.1 306.8c0-69.2-27-134.3-75.9-183.2-42.3-42.2-96.6-68.1-155.2-74.3-1.4-1.3-2.9-2.6-4.6-3.7-20.7-13.3-38.1-3.4-50.1 2.4-.9.4-1.9.9-3 1.5-22.6 2.6-44.3 8.1-64.8 16.1-2.4-3.6-5.2-7-8.4-10.2-12.4-12.5-29-19.4-46.7-19.4-36.5 0-66.3 29.7-66.3 66.3 0 15.3 5.2 29.8 14.7 41.6C86.6 188.4 65 245.2 65 306.9c0 69.2 26.9 134.3 75.9 183.2 23.9 23.9 51.7 42.5 81.9 55.4-1.7 13.7.5 23 3 26.8-3.8 3.2-5.4 5.2-6 8.8-6 8.2 8.6 18.6 14.6 23.2 12.3 9.5 18.8 7.8 28.4 7.4 11.9-.5 23-14.4 29.4-23.4 12.8-1.8 15.2.2 15.6 1.8 4-.6 9.6-1.6 17.2-4.8 17.3-7.3 12.4-16.2 10.6-17.8-.5-.4-.9-1-1.2-1.7 41.1-1.6 80.4-12.8 115.6-32.4 1.2 1.4 2.5 3 3.8 4.8 3.8 5.6 5.8 23.8 6.6 33.2.8 9.4 2.4 15.8 7 30.6s6.4 4 6.6 0c.2-4 1-18.4.4-28.8-.6-10.4-.8-25.4 1.2-31.8 2-6.4-1.6-8-2.6-9.2-1-1.2 0-1.6-2.6-9.8-.1-.5-.3-.9-.4-1.4 13.2-9 25.6-19.3 37.2-30.9 48.9-49 75.9-114.1 75.9-183.3z"/><path class="st1" d="M583.1 306.8c0-69.2-27-134.3-75.9-183.2-42.3-42.2-96.6-68.1-155.2-74.3-1.4-1.3-2.9-2.6-4.6-3.7-20.7-13.3-38.1-3.4-50.1 2.4-.9.4-1.9.9-3 1.5-22.6 2.6-44.3 8.1-64.8 16.1-2.4-3.6-5.2-7-8.4-10.2-12.4-12.5-29-19.4-46.7-19.4-36.5 0-66.3 29.7-66.3 66.3 0 15.3 5.2 29.8 14.7 41.6C86.6 188.4 65 245.2 65 306.9c0 69.2 26.9 134.3 75.9 183.2 23.9 23.9 51.7 42.5 81.9 55.4-1.7 13.7.5 23 3 26.8-3.8 3.2-5.4 5.2-6 8.8-6 8.2 8.6 18.6 14.6 23.2 12.3 9.5 18.8 7.8 28.4 7.4 11.9-.5 23-14.4 29.4-23.4 12.8-1.8 15.2.2 15.6 1.8 4-.6 9.6-1.6 17.2-4.8 17.3-7.3 12.4-16.2 10.6-17.8-.5-.4-.9-1-1.2-1.7 41.1-1.6 80.4-12.8 115.6-32.4 1.2 1.4 2.5 3 3.8 4.8 3.8 5.6 5.8 23.8 6.6 33.2.8 9.4 2.4 15.8 7 30.6s6.4 4 6.6 0c.2-4 1-18.4.4-28.8-.6-10.4-.8-25.4 1.2-31.8 2-6.4-1.6-8-2.6-9.2-1-1.2 0-1.6-2.6-9.8-.1-.5-.3-.9-.4-1.4 13.2-9 25.6-19.3 37.2-30.9 48.9-49 75.9-114.1 75.9-183.3z"/><path class="st2" d="M262.7 548.6c9.6-.4 23-3.4 29.1-6 .8.2 2.1 1 4.1 1.8.8-6.4-3.3-19.7-5.6-25.8-1.5-4.1-3-6.8-4.8-11-5.4-1-12.1-3.9-16.9-5.9 0 3.8.7 13.7 1.5 20.3-2 .2-4.8.4-8.2.4.4 7.1 1.2 20.2.8 26.2zM444 527.3c-1.8-1.8 2.2-7.4 4-17.8 1.8-10.4 2-27.8-5.6-37.7-3.7-4.8-5.5-7.8-6.1-9.9-23.7 17.2-50.9 28.7-79.8 33.6-.3.6-.7 1.1-1 1.5-4.2 5.4-12.4 13.2-18.4 16.4-6 3.2-13 5.6-16.8 6.8-.8 6.4-1.8 20.7-.2 25.6.6 1.8 8 6.2 10.6 11 .3.5.5 1 .8 1.5 40.9-1.2 79.3-12.1 113.1-30.6-.3 0-.5-.2-.6-.4zM502 128.8c-39.5-39.5-89.8-64.2-144.2-71.5 4.4 8.6 5 18.5 5.4 24.8 7.8-3.4 13.8-5.2 17-10.4 3.2-5.2 7.6-4.2 10.4-.4 2.8 3.8 2.8 8.6-4.6 13.2-7.4 4.6-12.8 6.8-14.4 7.6-1.6.8-.2 2.2 1.6 5.2s6.4 10.4 7.2 26v.5c29.4 9.1 56.4 25.2 78.8 47.6 36.2 36.2 56.1 84.2 56.1 135.3 0 29.4-6.6 57.7-19 83.4 1.7.9 3.9 6.7 4.7 14.3.4 4 .2 8.4-1 11.2-1.2 2.8-10.7 17-15.4 21.2-1.8 1.6-6 1.4-7.8-1.2-1.8-2.6-2-1.2-3.4.2s-6.2 8.4-7.4 10.2c-1.2 1.8-5.2 3.6-2.6 10.8 2.6 7.2 5.6 12.6 4.6 16.6-1 4-1.4 5.2 4 9.8 5.4 4.6 5.2 10.2 2.8 13.8-1.5 2.3-3.9 8.3-4.8 14.5 63.9-45.7 105.7-120.5 105.7-205 0-66.9-26.2-130.1-73.7-177.7zM212.9 492.7c-.7-6.8-1.7-19 3-27.8-9.7-6.6-18.8-14.2-27.3-22.7-36.2-36.2-56.1-84.2-56.1-135.3 0-54.7 23.1-104.2 60.1-139.1.3-.7.8-1.5 1.3-2.1-6.3 1.9-12.8 2.9-19.6 2.9-17.6 0-34.2-6.9-46.7-19.3-35.9 44.5-55.4 99.5-55.4 157.5 0 67.2 26.2 130.5 73.7 178 22.8 22.8 49.2 40.7 77.9 53.1 1.1-5.4 2.8-11.2 5.2-17.6 2.2-5.8-1.2-19.2-6.8-26.2-2.9-.8-6.7-1.2-9.3-1.4zM279.6 59c-15.9 2.8-31.4 7.1-46.3 12.9 4.8 9.3 7.4 19.6 7.4 30.4 0 14.3-4.5 27.8-12.8 39.1 13.9-8.1 28.8-14.5 44.6-18.9 1-1 2-2 3.1-2.9-5.8-9.6-13.6-25-6.8-45.9 1.9-5.8 6.1-10.7 10.8-14.7z"/><path class="st0" d="M380.3 134.9c5.6 2.8 11.9 8.9 9.4 20.2-1 4.6-4.8 9-5.2 10.8-.6 3-6.9 8.1-8.9 12.1s-2.3 7.4-1.7 9.1c3.2 3 10.4 7 14.4 8.4 3.1 1.1 2.9 1.9 1.6 4 2.2.2 3.3 1.6 5.4 4 2.2 2.6 8 1 11.6-.8 3.6-1.8 8.2-2.4 11.8 2 3.6 4.4 9 12.6 11.6 20.2 2.6 7.6 5.4 13.8 6.2 15 .8 1.2-2.8 23.2-3.8 32s-1.8 12.6-2 14c-.2 1.4 5.6-5 5.8 2.6.1 6.1 3 25.5 6.3 39.9.8 3.7 1.7 7 2.5 9.7 2.4.4 4.4 5.2 5.8 12.6 1.4 7.4 4.4 12 4.6 15.6.2 3.6 1.2 4.2 2.4 4.8 1.2.6.8 2.4-2.8 6.6.8.6 2 1.8 2.8 2.6 1-1 3.8-4.2 3.8-4.2s11 4.4 13.4 5.2c2.4.8 5.3-5.1 12.4-2 2 .9 4.1 3.6 5.7 6.2 11.2-24 17.5-50.7 17.5-78.9 0-49.9-19.5-96.9-54.8-132.2-21.6-21.6-47.4-37.2-75.7-46.1 0 3-.1 5.6-.1 6.6zM438.1 449.8c-2.8-1.4-4.6.6-6-10.4-.4-3.2-3-7.4-5-9.4s-2.2-5.8-1.2-9c1.6-5 2-9.6 1.8-13.6-.2-4 .6-9 6.2-11.4-2-2.2-3-5-3.6-7.2-8.2-2.7-9.8-2.9-11.5-6.9-2.8-6.7-4.5-16.4-5.4-21.7-.4-2.6-.7-5-.7-7.2-2.6-5-8.5-16-13-24.3-1.7-3.1-3.2-5.8-4.2-7.7-4-7 0-16.2 2-21.6 2-5.4 3.6-10.2 1.8-15.6s-1.8-6.6-2.2-8.8c-.4-2.2-2.2-5-4.6 2.6-2.4 7.6-7 18.8-9.6 30.4-1.5 6.6-2.5 13.8-2.2 20.7.3 5.3 1.3 10.4 3.6 15.1 5.2 10.8 11.4 20.8 10.6 26.8-.8 6-2.1 6.2-2.2 7.2-1 11.6-6 33.8-8.6 40.2-2.6 6.4-12.8 29.6-15 39.4-1.7 7.5-6.3 23.6-10.3 33.2 30-5.7 57.4-18.5 80.5-36.6.7-1.7.6-3.3-1.2-4.2zM215.6 187.1c2.2 2.9 5.1 5.5 8.9 7.5 9.8 5 11.8 8.6 11.8 17.2s1.6 26.2 4.4 29.2c1.8-1.8 3.8-4.4 4.2-5.2 2.8 5.2 8.4 14.8 17.4 20.8.6.4.3 2.6 1.8 3 3 .8 22.4 3.8 23 7.8 4-4 10.4-14 11.6-17.4 1.2-3.4 8.2-14.2 13.4-20.2 0-2.4 0-3.8.2-4.4-1.4 1.2-3.6 4.2-6.8 5.6-3.2 1.4-14.4 6.2-22.4 10.2-2.8 1.4-7.8 3-9.8-11.6-2-14.6 0-22.2 1.4-25.6 1.4-3.4 4-6.4 9-5 5 1.4 13 4.4 15.2 4.4.4-1.6 1.8-4.6-3.6-5.2-3.9-.4-13.9-3.3-19.6-11.1-2.3-3.1-3.9-7.1-4.1-12-11.4 1.8-37.6 5.2-43.4 6.6-5.8 1.4-10.7 2.6-12.6-10.6-.8-5.6-2.2-13.4 1.8-10.6 3.2-2.4 7.6-5.2 15.4-4 1.4.2 3.2 1.4 3.8 2.5.4 1.9-.4 5.1-1.4 8.1-1.7 5.4-5.1 9.2 5.8 6.7 11.4-2.6 25.9-4.8 29.7-5.6.5-3.9 3.7-9.9 7.5-14.3s4.4-8 4.6-9.4c.2-1.4-1.1-1.7-3 0-2.2 2-8.8 6-15 4.4-2.4-.6-5.4-5.2-7-7.8 1.3-2.8 4.6-7.5 8.7-12.3-21.3 6.8-41.3 17.5-59 31.7-.1 2.2.2 7.4 1.6 13.1 1.2 3.7 3 8.9 6.5 13.5zM229.5 460.7c8.2-3.2 14.7-3 21 5.4 1.8 2.4 3.2 9.4 18.6 3.2-8.2-9.8-13.1-21.4-17.6-37-7.1-24.6-23.1-52.7-17.2-65.5-3.4-3.2-7.4-15.6-11.6-14.2-2.8.9-6.8 1-3.6-8.4 1.4-4.2 3.8-9.4 8.3-15.5 5.5-7.5 14.1-16.5 28.1-27.3 1.2-1 1.4-1.8.6-2.6-1.4-1.4-2.8-3-4.2-3.8-1.4-.8-2.8-.4-4 .8-1.2 1.2-3.2 2.6-4.4 3.4-1.2.8-10.8-8.6-15.8-15.4-5-6.8-10.2-9-11.8-9.8 2-2.2 6.5-7 4.8-6.4-3 1-8.3 1.7-13.6-4-6.6-7-4-10.6-5.4-11.6-1.4-1-8.6.6-14-7.8s-7.6-12.1-3.2-18c2.2-3 3-4.4 2.4-8.2-.6-3.8 0-6.2 5-11s8-9.2 10.2-8.8c1.8.3-3.3-6-6.4-10.9-.8-1.3-1.5-2.4-1.8-3.4-.8-1.9-2-5.3-2.3-8.9-35.2 35.3-54.6 82.2-54.6 132 0 49.9 19.5 96.9 54.8 132.2 8.3 8.3 17.2 15.7 26.7 22.2 4-4.6 8.9-2.9 11-.7z"/><path class="st3" d="M123.1 65.7c16.4 4.2 28.7 17.5 34.1 24.9 1.4 1.9 2.8 1.6 3.4.2 1.3-3 3.6-12.6 3.6-20 0-16.8 2.3-23.5 6.5-31.3-19.6 1.1-36.8 11.2-47.6 26.2zM113.2 117.3c30.8 2.8 40.4-14.4 42.4-17 2-2.6-.4-4.2-1.4-5.6-5.3-7.5-17.3-20.7-33.7-24.9-5.8 9.5-9.1 20.6-9.1 32.5 0 5.1.6 10.2 1.8 15z"/><path class="st3" d="M235.5 116.1c-13-5.4-28.5-.4-39.5 9.2s-16.6 17-20.4 39.8h-1.4c-16.3 0-31.1-6.2-42.3-16.4 18.8-4.8 34.7-13.4 52.5-30.2 17.8-16.8 26.6-36.4 29-45.7 2.4-9.2-1-3.8-2.8.4-2.8 6.5-12 24-30.2 41.1-18.2 17-32.2 25.4-51.2 31.8-6.4-6.5-11.2-14.4-14.3-23.2 6.4.4 26.6-1.9 36.7-10.2 13.3-10.9 14.8-23.8 16.6-42.3 1.8-18.4 4.5-23.9 8.9-30.9 33.4 1.5 59.9 29 59.9 62.8.1 4.7-.5 9.3-1.5 13.8z"/><path class="st3" d="M233.8 122.4c-3-4.2-13.7-6.2-30.7 4.4-1.6 1-2.7 1.7-.8 3.6 3.6 3.6 9 10.4 12.8 19.6 8.5-7.3 15-16.8 18.7-27.6zM210.1 153.9c-3.6-8.8-6.6-15.2-10-19.6-1.8-2.4-2.2-3.4-5.6-.4-9.5 8.4-13.1 21-15.1 31 11.3-.9 21.8-4.8 30.7-11z"/><g><path class="st4" d="M192.9 224.2c-2.6-.8-4.6 2.2-5.8 4.6-1.2 2.4-2.6 5 1.2 10.4s6.2 8.6 12.8 8.2c3.2-.2 6-2.6 7-4s1.2 1-.4 3.4-2.8 8 .2 11.8c3 3.8 9.2 7 17.4 2.2s11.6-10.6 13-13.2c1.4-2.6 1.4-3.8 0-5.4-1.4-1.6-6-9.2-7-24.2-.6-9 1-14.8-4.6-18-5.6-3.2-18.4-10.8-20-25.6-.6-5.6-.2-14.2-5.8-9.6s-5.6 7.8-6.2 11.2c-.6 3.4 2.2 8 4.6 11.2 2.4 3.2 5.2 10.2 7.4 12 2.2 1.8 3.6 3.2 5.4 3.4 1.8.2 9 .2 10.8.8 1.8.6 2.8 2.8-1.6 2.8s-11.2 1.2-14.2 1.6c-3 .4-5.8.6-7.2 6.6-1.4 6-3.4 13-3.6 15.2-.2 2.2-1.4 3.4-1.4 4.6 0 1.2 2.4 7 7.8 1.2s7.6-11.6 8.6-14.4c1-2.8 2.2-2.4 1.2 2-1 4.4-1.3 15.4.8 19.2 2.3 4.1 6.8 8.3 12.6 5.4 1.2-.6 3.2-1.6 4.8-1.4 1.6.2-.3 3-1.7 4.2-1.4 1.2-6 6.3-14.1-1-2-1.8-4.8-5.8-5.4-10.8-.2-1.6-2.4-2.2-3.4-.8-1 1.4-6.4 6.4-10.2 2.8-3.8-3.6-5.4-5.6-3.2-13.2.4-1.4 1.1-2.9.2-3.2z"/><path class="st4" d="M196.9 213c-.9 2.6-1.6 6-2 7.2-.4 1.2-2.2 3.8-3.8.4-1.6-3.4-1.5-6.1 1-8.6.8-.8 2-2.4 2.8-1.6.8.8 2.2 2 2 2.6zM205.9 203.8c-1.7.8-5.2.8-6.4 3.6-.8 1.8-4-.2-2.4-2.4 1.6-2.2 2.8-2 3.8-2.6 1-.6 1.4-2.4 3.4-1.4s2.4 2.4 1.6 2.8z"/></g><g><path class="st4" d="M337.8 104.6c-5.6.6-10.8 4-16 7.6-5.2 3.6-24 19.4-28.4 22.6 4.6 2.4 5.8 7.2 4.2 15.2-.4 1.8 0 2.4 1.2 1.2s6.8-7.2 6.6-12c-.2-4.8-2.4-7.6-2.8-8.2-.4-.6 1.6-3 3.8 2 2.2 5 1.6 12-5 19.8-6.6 7.8-11.8 7.6-14.6 9-2.8 1.4-5.6 3.6-3 7.8 2.6 4.2 7.6 2.6 9.6 1.2 2-1.4 4.8-3 11.2-2.4 6.4.6 8.5-3.5 4.2-7.8-1.4-1.4-5-4.6-.6-4.6 2.6 0 5.8 5.8 7.6 7.4 1.8 1.6 5.8 2.2 11.2 2.6 5.4.4 13.8 2.4 13.8 7.6 0 3.2-1.7 4.1-4 1.6-.9-1-2.2.6-3.2 1.6-3.4 3.4-12.1 12.6-18.3 14.2-6.2 1.6-8.5-.2-16.7-4.6-8.2-4.4-15.8-8.8-18-10.2-2.2-1.4-6.8-4.6-4.6 1.8 2.2 6.4 7.6 13 18.4 16.6 10.8 3.6 12.4 4.8 14.8 6 2.4 1.2 1 2.4-2.2 2-2.8-.3-5.8-2.8-3.4 2.6s6 11.2 17 9.8c11-1.4 11.3-3.7 18.2-15.2 1.2-2 2.4-.6 1.6 4.6 5.4-2.6 8.4-3.4 11.6-4.2 3.2-.8 11.5-3.6 17-13.8 2.8-5.2 4.3-7 3.8-12.4-.2-2 2.8-6 5.8-8.8 3-2.8 11.2-13.4 7-21-4.2-7.6-11.2-3.8-14.6 1.8-3.4 5.6-7.2 11.8-7.4 21.4-2.4-.8-4.9.1-6 2-.6 1-9.4-.2-12.4.6s-4-1-.8-5.2 14.5-19.4 13.8-30.8c-.2-3.4.3-4 .8-6.6.7-3.3 1-3.4-3.1-5.6-2.7-1.5-2.8-5.6-3.3-8.8-.5-3.4-1.2-3.4-5-2.6-2.8.7-7.6-2.2-9.8-5.8z"/><path class="st4" d="M314.4 167.3c-1.1 2.5-4.1 4.9-11.1 4.1-3.5-.4-6.9-.4-7.5 2.3-.4 1.9-2 1.8-4.2 1.7-2.3-.1-4.8-.7-4.9.1-.1.8 9.8 6.7 13.1 8.2 3.3 1.5 8.1 5.1 12 4.7 5.2-.5 9.7-3.1 17.4-11.2 3.2-3.4 5.7-5.1 2.7-6.5-2-.9-4.1-1.2-6.8-1.2s-8.5-.4-10.7-2.2zM277.1 167.4c-2.7-.1-3-2.1-1.2-5.1 1.8-3 3.5-5.8 5.9-7.6.4 1.3 1.2 2.9 2.4 3.6-1.6 1.7-3.7 3.8-3.3 8l-3.8 1.1z"/></g><g><path class="st1" d="M338 155c-3.4 0-8.5-1.1-12.2-3.6-3.7-2.5-4.9-3.7-4.3-7.5.4-2.3.6-3.6.7-4.4.1-.6.2-1 .3-1.5.3-1.8.2-2.9-.3-3.5-.3-.3-.7-.5-1.1-.5-.8 0-1.8.5-3.1 1.5-2.1-1.6-4.1-3.4-5.6-4.7-1.2-1-2-1.8-2.5-2.1-.4-.3-.9-.7-1-1.3 0-.4.2-.9.6-1.3.3-.3.7-.3 1.2-.3h.4c.4 0 1 0 1.5-.5.4-.5.5-1.3.3-2.7 0-.1.2-.2 1.1-.2h1.4c.5 0 .8-.1 1.1-.2.5-.2.6-.7.6-1 .1-.4.2-.6.8-.6.4 0 .9.1 1.5.2h.3c.7 0 1-.5 1.2-.9l.1-.2c.3-.4.5-.6 1.1-.6h.4c.5.1 1 .2 1.4.3.6.1 1.1.3 1.5.3 1.2 0 1.5-.9 1.7-1.6.4-1.4.6-1.8 1.2-1.8.5 0 1.2.3 2.1.9.8.5 1.5.8 2.1.8.9 0 1.6-.6 1.8-1.6 0 0 0-.1.3-.1.6 0 1.6.4 2.7 1l.5.3c1.9 1.1 5.8 3.3 10.2 8.5 1 1.2 1.3 2.1 1.2 2.3h-.4c-.7.1-1.7.3-1.9 2-.1.9-.4 1.5-.6 1.6 0 0-.1-.1-.4-.6-.3-.5-.6-1.1-1.2-1.1h-.3c0-.1-.1-.2-.2-.5s-.4-1.1-1.1-1.1c-.4 0-.7.2-.9.3l-.1.1c-.1-.3-.4-1-1.1-1-.2 0-.3 0-.5.1h-.1s-.1-.1-.1-.3c-.1-.3-.4-.5-.8-.5-.3 0-.6.1-.9.2-.3.1-.6.2-.8.2-.2 0-.2-.1-.3-.1-.3-.5-.7-.6-.9-.6-.4 0-.7.2-1 .3-.2.1-.5.3-.7.3-.1 0-.2 0-.3-.2-.1-.1-.4-.6-.9-.6s-.8.4-1 .7l.3.4c-.2.3-.4.4-.6.4-.1 0-.2 0-.3-.1-.3-.1-.5-.1-.7-.1-.7 0-1 .5-1.2.8-.2.3-.2.3-.3.3 0 0-.2 0-.4-.1s-.5-.2-.7-.2c-.8 0-1.1.7-1.4 1.2-.2.5-.3.6-.5.6h-.1c-.3-.1-.6-.1-.8-.1-1.1 0-1.3 1-1.4 2 0 .2-.1.4-.1.6-.3 1.6-1 8.3-.9 10 .1 1.6 2.2 1.6 3 1.6 1.5 0 3.5-.3 6-.6 4.9-.7 14-3.4 18.7-7.3 1.2-1 2.1-1.1 2.5-1.1.3 0 .4.1.5.1 0 .2-.5 1.5-1.7 2.5-.1.1-.2.2-.4.3-1.5 1.3-4.9 4.3-11.8 5.6-6.6 1.3-12.7 2.4-14.7 2.4h-.8c-.3 0-.6.2-.7.5-.1.4.1.8.6 1.2.7.5 1.6.9 2.5.9.3 0 .5 0 .8-.1.2 0 1 .7 1.5 1.2 1.4 1.3 3.6 3.3 6.4 3.3 3.6 0 8.7-3.8 10.2-5 .7-.5 2.2-1.3 3.1-1.6-.1.2-.4.5-.7.8l-.3.3c-3.3 3.3-6.7 6.7-10 6.8 0-.1-.2-.1-.3-.1zM380.3 150.5c-2.3 1.6-3.6 2.2-3.8 5-.2 2.8-.8 7.6-1.8 8-1.4.6-1.2-2.6-1.6-1.6-.6 1.4-2.3.8-2.8-.5-.2-.6-5.2-.5-1.2-6.3 3.6-5.3 6.4-8 9-9.2 2.6-1.2 7 1.2 2.2 4.6z"/></g><g><path class="st4" d="M478.3 388.5c-.9-2.4.7-6.3 5.7-3.5s8.8 5.2 5.2 16.2c-3.6 11-6.2 17.4-7.6 22-1.4 4.6-6.8 10.4-5 2.6 1.8-7.8 2.8-17.2 2-22-1.4-8.8 1.4-8.3.5-12.3-.3-1.3-.5-2.2-.8-3zM497.2 398c1.4 4.3 3 14.2.6 18.2s-9.8 15-12.6 17.8c-2.8 2.8-5 1.6-3.2-1.4 1.8-3 4.2-7 4.2-8.4 0-1.4-.2-3 2.2-7.6 2.4-4.6 6.6-20 7-21.2.4-1.2 1.4 1.4 1.8 2.6zM445.6 435c-1.2-3.6-1.8-8.8-3.8-11.8 1.6-4.4 6.9-16.2 15.8-19.8 1-.4 1.6-1.4 1.2-2.2-.4-.8 1.2-1.4 2 1.4s2.2 10.8 2.2 10.8c.4 1.8-.4 3.2-.8 5.6-.4 2.4-1.4 7.8-.8 10.6.6 2.8 1.6 4.8 7.2 3.6 2.8-.6 2.6-1.4 3.4-3.8.8-2.4 3-9.2 3.8-13 .8-3.8.1-13.1-.7-15.5-.8-2.4.3-10.5-.3-12.1-.6-1.6-1-4-6-5.6-5-1.6-6.4-2-9.8 1.4-3.4 3.4-4.6 4.8-6.2 6.4-1.6 1.6-5.6.2-2.2-3 3.4-3.2 6.6-6.4 7.6-7.4l-1-2.6h-1.8c-5.4 5.4-12.6 8.6-17.4 9.6-1.8.4-5.2.6-2.8 3.8.6.8.8 3 2.2 2.2 1.4-.8 3.6-4.4 5.6-2.8 2 1.6-.4 5.4-2.8 7.2-2.4 1.8-5 3.6-6.8 4.6-1.8 1-2.8 2-2.6 5.2.2 3.2.4 9-1.4 13.4-1.8 4.4-.8 5.6.8 8.6s4.2 5.6 5 10.4c.8 4.8 1.2 6 4.4 5.6 3.2-.4 4.4-1.8 5.6-3.8l.4-7z"/></g><path class="st3" d="M446.7 444.2c-1.4 2.4-3.8 6.2-3.8 9.6 0 3.4-3.4 7-3 8.6.4 1.6 4.8 5.8 7.4 10.2 2.6 4.4 6 11 6 22s-3.6 26-4 28c-.4 2-1.4 3.6 1.6 6.4 3 2.8 7.8 8 9.6 19.8 1.8 11.8 3 18 3.8 18.6.8.6.6 1.6.6 3.8 0 2.2 2 14.8 3.4 17.2 1.4 2.4 1.2-13.6 1-18.2-.2-4.6.2-26.6 1-29.8.8-3.2 1.6-6.8-1.2-10.8-2.8-4-7.6-11-4-22.6 3.6-11.6 9.4-11.4 7.6-16-1.8-4.6-5-7.8-7.4-10.4-2.4-2.6-.5-8.8-.6-11.4-.2-4.8-4-5.6-4.4-11-.4-5.4-.8-9.8 3.2-15.2 4-5.4-1.4-5.2-3.2-8.6-1.8-3.4-2.8-8-1.2-15 .8-3.6.4-4.6-.6-5-1-.4-5.2-1.2-5.2-1.2l-6.2 12.4c1 2.4 1.4 6 1.4 8.4l-1.8 10.2z"/><g><path class="st0" d="M388.9 200.6c-4.9 6.6-12.6 23.2-16.2 33.6-3.6 10.4-11.8 35.2-6 51.7 5.8 16.4 17.2 6 19.8-.2 2.6-6.2 6.6-16.8 7.8-19.6 1.2-2.8 1.8-4.4 4 2.2 2.2 6.6 5.4 22.4 5.4 23.8 0 1.4-2.2 5.4-4.6 11.6-2.4 6.2-3.8 10.6-1.4 14.4 2.4 3.8 11.8 20 14.8 27 1.8 4.2 3.4 5 8.2 3.8 4.8-1.2 16.4-5.2 19.8-6.8 3.4-1.6 1.8-4.4.8-7.8-1.5-5.2-7.6-34-7.6-37.8 0-3.8 1-8.8-4-3.2-1.8 2-4.2 0-3.6-2.8.6-2.8 6.6-41.8 7-46.7-3.4-7.4-13.4-30.8-16.2-35-2.8-4.2-3.8-4.4-8-2.2s-13.6 5.6-17-2.4c-.6-1.4-1.6-4.6.8-5l-1.8-.6c0-.1-1.4 1.2-2 2zM441.3 344.5c-3.7 2.1-16.4 7.6-21.6 8.4-5.3.8-4 2.2-3 6.2s4 16 5.6 20.2c1.6 4.2 3.8 4.1 8 4 6.4-.2 17.2-3 25-10.2-2.2-2.6-6.1-15.1-7.2-20.4-1.2-5.6-1.2-11.4-6.8-8.2zM326.6 229c-.4.8-1.8 3.2-5 3.2s-5.8-1-7.8 1.8-13 16.2-15.4 24.4c2.4 5 5.6 14 8 20.4 7.8-6.6 32.7-30.9 37.4-35.6 1.8-1.8 2-3.4-.6-5.2-2.6-1.8-12.2-7.8-13.8-8.8-1.6-1-2.4-1-2.8-.2zM263.5 264.2c-1.5 6.2-4.6 17-9.6 25.4 2 3.2 3.6 6 6 7 5.6-4 16.2-13.8 19.2-17.4 3-3.6 6.8-9 6.8-10.2 0-1.2-1.4-1.6-3.2-1.2-1.8.4-9.2-2.6-16.4-4-2-.4-2.6-.4-2.8.4zM259.1 258.2c-2.2-.4-9.8-8.6-12.4-13-2.6-4.4-3-4-4-.8s-4.8 10.2-7.4 13.6c-2.6 3.4-9.4 12.2-11.2 14.2-1.8 2 0 2.8 1.6 4.4 1.6 1.6 9.8 11.6 11.6 13.8 1.8 2.2 3.8 6.2 8.6 1.8s10.6-12.4 13.2-20.6c2.6-8.2 2.8-12.5 5-12l.1-1.7-.6-1-1.2-1c.3.7.3 1.3-.2 2.1s-2.1.4-3.1.2z"/><g><path class="st0" d="M381.7 74c-5.4 6.4-16.2 12-34.4 16.6-18.2 4.6-35.6 17.4-43.1 23.6-7.4 6.2-26.1 21.5-35 25.2-2.4 1-7.5 4.4-1 5.2 4.8.6 8.2-2.2 18.6-9.8 10.4-7.6 18.5-13.1 26.4-20.8 7.4-7.2 20.8-14 35.2-18 14.4-4 33.4-10.3 38.8-16.2 2.6-2.8 2.8-4.2.4-6.6-2.3-2.4-3.7-1.8-5.9.8zM289.8 137c-1.6.9-2.2 1.8-4 7.6-1.8 5.8-1.6 9.2-.1 10.6 1.1 1 2.7 1.1 3.5 1.1.6 0 1.2.2 1.1-1.5-.1-1.7-.2-9 5.2-12.2 1-.6-.1-4.8-3.7-4.2-1.2.2 0-2.5-2-1.4z"/></g><g><path class="st0" d="M227.9 159.9c2.8 0 4.6 0 4.4 3.2-.2 3.2-1.6 7.6-1.8 10.6-.2 3-.2 4.2 1.6 4.2s-2.6 1.8-5 2.2c-2.4.4-6.1 1.8-8-8.4-.6-3.2-.4-8.2-.8-9.4 2.6-1.2 6.2-2.4 9.6-2.4zM281.1 168.5c.7 4 1.8 4 1 4.6-.8.6-1.6-1.5-4.9-1-3.1.5-28.3 4.4-30.1 4.6-5.6.6-5.9-.3-.7-1.4 5.2-1.1 24.3-4.6 29.9-5.7l4.8-1.1z"/></g><g><path class="st0" d="M250.7 474.7c2.6 1.6 8.8 3.4 19.4-1 10.6-4.4 22.4-1.4 24.2 6.2 1.8 7.6 1.9 17.4-1.4 21.6-2.8 3.6-5.4 3.2-8.6 2.2-5.8-1.8-19.2-8-23-9.8-3.8-1.8-10.2-3.8-14.8-3.8-1.8-3.8-1.6-10.4-.4-12.8 1.2-2.4 1.2-4.8 2.2-4.2 1 .6 2.4 1.6 2.4 1.6zM292.8 510.1c2.6 0 7.3 1.1 8.8 5.8 1.2 3.8 9 4.8 12.4 4.6 3.4-.2 2.8 1.6 2.6 3.6-.2 2-.8 8-.8 10.4 0 2.4.6 10.8 1 12.4.4 1.6-1 2.4-2.8 3.2-1.8.8-8.4 2.8-12.6-.2-2.2-1.6-4.8-3.8-2.2-4 2.6-.2-3.2-22.8-4.8-26.8-1.6-4-6.2-9-1.6-9zM223.9 462.9c1.1.4 1.6 1.4 2.4 2.8.8 1.4 1.1 2.6-.2 4-2.2 2.4-4.8 13.4-4.4 21.2-1.4-.4-4.4-1-6-.6-.6-4.4-.2-18.2 1.8-22.6 2-4.4 4-5.6 6.4-4.8zM224.3 585c5 5.6 14.4 14.2 21.4 17.2 7 3 11.6 4 17.8 3.4 5-.5 4 1.6 0 2.2-4 .6-13.2.6-19.2-2.6s-15.5-9.1-21.6-17.8c-1.4-2 0-4.2 1.6-2.4zM328.6 571c-4.1 1.9-11.6 5.6-18.8 7.4.8 3.6 1 5.2 1 6.2 4.4 0 12.9-3.1 19.8-7.4 1.6-1 2.2-2.2 1.6-3.6-.6-1.4-1.4-3.6-3.6-2.6zM281.2 554.6c-1-1 4.7-2.2 5.9-2.2 1.4.9 4 3.2 4.9 4.1.6.6.3 1-.3 1.4-.6.4-4.1 1.3-5.7 1.4-1.8-1.6-4.3-4.2-4.8-4.7zM291.8 471.3c-1.6-1.2-1.4-1.8-.6-3 .8-1.2 1.6-2 2.4-2.4.8-.4 2-.6 3.4 1.4s9 14.6 10.6 18c1.6 3.4 3.6 1.2 2.8-.8-.8-2-2.4-5.4-3-6.4 2.2-6.8 4.4-17.2 4.4-24 0-6.8-1.6-13.6-2.8-16 5.4.2 17.2 0 21.8-1.4 4.6-1.4.8-1.8-1-1.6-1.8.2-14.8.2-24.2-1-16.4-2-32.5-11.2-37.6-17.6-.8-1-5.6-.6-1.6 2.6 4 3.2 14.2 12.8 29.2 15.4 3.4.6 8.8 1.6 9.6 14 .8 12.4-.4 20.4-.4 21.6 0 1.2-.8 1.6-1.8.2-1-1.4-4.4-6-6.2-7-1.8-1-3-.8-4.6.4-1.6 1.2-4 3.6-5 4.8l4.6 2.8zM259.5 510.4c-1.5 0-10.5.7-12.4 0-1.9-.7-3.1-2.9-1.8-3.8 1.6-1.1 4.7.3 7.8.3 3.1 0 6.4-.8 7.2-.3.8.5 1.9.3 1.9 4.1l-2.7-.3zM237.7 565.4c-2.6-1.6-5.6-9-6.2-23.8-.2-5 1.8-13.4 3.4-17.4 1.6-4-1-2.4-1.6-1-.6 1.4-2.6 7-3.2 11.2-.6 4.2-1.6 10.4 0 19.4 1.6 9 2.4 11.8 2.8 13.4l4.8-1.8z"/></g></g><g><path class="st2" d="M329.3 87.2c2.7.3 5.7.1 6.4-1.8.7-1.9.1-3.1-.8-3.5-.9-.4-1.3-.3-.9-2.1s1.7-1.6 1.6-4.4c-.1-2.8-2.2-2.9-4.1-2.3-1.9.6-2.6 1.5-4.4 3.9-1.8 2.4-1-1.6-.7-2.3.3-.6 1-5.3-1.5-6.1-1.4.7-2.8 1.4-4.1 2.1-.4.9-.8 1.9-1.2 2.9-1 2.6-2.2.7-3.1-.6-2.7 1.5-5 2.9-6.8 4-.2.1-.4.3-.6.4.2 1.6 2.1 3.6 3.2 4.3 1.3.9.5 2.6-1.1 2.6s-3.6-1.1-5.6 1.3c-2 2.4-.7 4.7 1.2 4.7s3.5.7 4.2 2.9c.7 2.2 1.3 3.1 3.9 3.4 2.6.3 4.1-1.7 4.8-2.9.7-1.2 1.6-2.9 2.7-2.5 1.6.6 1.4 2.3.9 4.1 1.9-1.1 3.8-2.1 5.9-3.1-.3-1.7-1.3-3.3-2.1-4-.8-.9-.5-1.3 2.2-1zM351.6 58.2c-.9.2-1.9.5-2.9.8.5 2.3 1.4 5.2.9 5.7-.6.5-2.9.9-4.7 1.4-1.8.5-6.1 4.5-3.9 7.4 2.2 2.9 2.9 4.6 3.3 6.1.4 1.5 4 3.3 6.5.3s4.4-6.3 5-4.2c.5 1.8.4 6 0 8.3.5-.1 1-.2 1.6-.3 1-11.3-1.7-19.3-5.8-25.5zM296.7 111.9c-1.4-1.1-1.8-2.8-.1-3.3s4-.9 8.2-2.7c4.2-1.8 2-4.9.1-5.7-1.9-.8-2.1-2.6-1.9-4.5.2-1.9-.3-4.7-4-3.3-3.7 1.4-2.4 5-3.5 6.2-1.1 1.2-1.7.8-1.5-1 .2-1.8-1.4-3-2.3-3.4-.7-.3-2.2-.7-3.6-.8-3.8 3.5-7.3 7.1-10 10.7.6 1.2 2 2.6 2.7 2.8 1 .3 2.5 1 2.4 3-.1 1.7-3.9 1.8-6.4 1.9 1.8 4.8 3.6 8.2 6.1 10.9.6-.2 1.3-.4 2.3-.9 3.1-1.3 4.1-6 4.6-7.4.5-1.4 1.8-1.1 2.7.7.6 1.3.9 2.4.9 3.6 1.8-1.8 3.5-3.4 5.2-5-.4-.5-1-1.1-1.9-1.8zM349.8 231.6c.6-.1-1-7.2.3-7.5 1.3-.3 1.9 3.9 4.7 3.4 2.8-.5 3.5-3.3 3.1-6.4-.4-3.1 1.4-1.4 2.8-3.6s-1.6-5.2-5-3.1-2.8-.7-1-1.8c1.8-1.1.5-5.1-3.3-3.8-2.8.9-4.1-.8-5.5-1.6-1 .4-2 .8-3 1.3-.2.8 0 1.7.2 2.7.3 1.3.9 4.6-1.2 3.2-1.8-1.2-4.3-1.9-5 .4-.7 2.3.7 2.5.5 3.9-.2 1.4-3.8 1.7-2.1 4.6 1.7 2.9 4.2 1.3 5.9.2 1.7-1.1 3.3.2 2.7 1.7-.5 1.2-1.4 5.1-1.5 7.7.8.5 1.6 1.1 2.5 1.7 1.1-1 3-2.7 4.9-3zM295.3 224.7c1.5-.4 4.4 2.7 7 .9 2.6-1.8-1.1-3.6-.6-5.1.5-1.5 1.7-4.4-.1-5.8-1.8-1.4-3.7-.1-5.6 2-1.9 2.1-1.2-1.9-.2-3.6 1.3-2.2 0-3.7-2.2-4.1-2.2-.4-2.9 2.7-4.4 1.3-2.4-2.2-6.1-1.3-5.2 1.8.9 3.1 1.9 4.1 0 4.5-1.9.4-3.7-4.6-5.9-.6-2.2 4 1.3 5.2 1 8.2-.3 3 .9 6.2 2.7 6.5 1.8.3 3.7-1.7 4.7-2.9s3.4-2.1 3.1.2c-.2 1.6-.3 4.9-.4 6.8 3.7-1.8 7.6-3.7 9.8-4.4.1 0 .2-.1.3-.1-1-.4-2.4-1.1-3.8-2-2-1.4-1.7-3.2-.2-3.6zM250.9 315.9c4.6-1.4 4.8 2.2 4.2 5.2-.6 3-.6 9.4-.4 12.6l7.6.4c-.4-2 0-7.8.2-11.2.2-3.4 3.6-8.6 4.8-3.4 1.2 5.2 6.4 5.4 10 3.2 3.6-2.2 6.2-7 10-13.8 3.8-6.8-1.2-8.6-4.2-8.2-3 .4-6 .8.8-4.8 6.3-5.2-4.3-7.8-9.2-8.8-8.1 8.5-18 18.1-26.8 25.6-1.1 1-2.2 1.9-3.2 2.8 1.1.6 3.2 1.3 6.2.4zM242.9 366.4c3.8-1.2 6.2 7 11.8 2.2 5.6-4.8 1.6-8.8 1.4-12.8-.2-4 4.4-5.6 3-10.6-2.1-7.6-9.2-.4-13.6 3.8s-4.6.8-.2-6c4.4-6.8-2.8-9-7.2-7.2-3.9 1.6-7.5 0-9.8-2-1.7 2.7-2.9 5.2-4.2 7.8-3.8 7.8-1.2 8 1.6 8s8.8 11.8 9.6 14c.3.8 2.3 3.8 5.1 7.6-.2-1.9.2-4.1 2.5-4.8zM352.4 287.5c-3.6-.8-8.3-1.4-8.8 6-.2 2.8 2.6 5 5.2 6s2.2 2.8-.6 1.8c-2.8-1-5-1.6-7 4.2-2 5.8 1.6 6.6 3.4 7 1.8.4 3.2.8 2.8 3.2-.4 2.4-1.6 9.4 3 10 4.6.6 8.6-5 10-7.8 1.4-2.8 3-5.6 3.4-2.4.4 3.2-.2 4.8-1.8 8.4-1.6 3.6-1.6 5.2.8 5 2.4-.2 6.4 0 7.6-2.8 1.2-2.8 3-8.2 3.2-12 .1-2.4 2.2-2.6 3.7-2.5.5-4.1 1.1-8 1.7-11.5-7.9 1.2-14.5-8.4-16.9-16.7-2.6 2.8-6.5 4.8-9.7 4.1zM315 286.1c-1.4 2.4-5.4 9.2-3.6 11.4 1.8 2.2 3.8-2.2 5.4-.6 1.6 1.6 5.2 3.4 5.2 2.2 0-1.2.4-3.6 1-6.8.6-3.2 2-5 3.4-2.4s3.4 4.8 8.4 3.6c5-1.2 4.4-6.4 3.4-10.2-1-3.8 2.6-5.6 4.4-6.6 1.8-1 6.4-4.6 3-7.8-3.4-3.2-6.4 1.4-9.4 2-3 .6-1.8-2 4.4-6.8 5.4-4.1.9-8.3-2.4-9.7-8.6 8.7-23.9 22.8-27.2 26-1.2 1.2-2.2 2.5-3.2 4.1 8-3.9 8.5-.7 7.2 1.6zM364.7 366.6c2.6 2.4 8.8 5.8 13.2 1.8 4.4-4-1-8.4-1.6-11.6-.6-3.2 3.2-5.2 1.2-10.4-3.5-9.1-8.6 1.8-11.6 4.8s-2.5-2.1.2-4.8c1.4-1.4 7.6-5.2 4-9.4-3.6-4.2-8.8-1.8-11.4 0-2.6 1.8-4.6 4-8.6 2.8-4-1.2-7.4-1.6-9.8 4.2-2.4 5.8 2.2 4.2 6 8.4s1.4 4.4-1.6 3.4c-3-1-4.4-4.8-8.8-4.2-4.4.6-4.4 7.6-3 9.4 1.4 1.8 4.2 2.8 2.2 6.2-2 3.4 1 7.4 4.6 9 3.6 1.6 9-4.8 11-7.4 2-2.6 4-2 3.6 0-.3 1.7-1.3 6.3-1.4 10 3-1 6.1-1.9 9-2.7 0-2.1-.5-5.5-1.3-8.8-1.3-4.4 1.5-3.2 4.1-.7z"/></g><g><path class="st2" d="M312.6 388c-4.8 1.4-5.6-.8-8.8-2-3.2-1.2-3.4 1.6-1.2 5s4.6 6.6 2 6.6c-2.6 0-4.6.4-5 2.4-.4 2-4.6-.4-5.6-4.6-1-4.2-2-12.2-4.2-8.2s-4.2 10.6-9.8 7.6c-5.6-3-1.8-7-4.6-9.8-2.8-2.8-5.4-6.4-2.6-11.4 2.8-5 5.2-.8 7.8-.8 2.6 0 3-2.4.6-4.2-2.4-1.8-5.4-10.4 5.6-9.8 4.2.2 8.8-1.2 12.4-3.8 3.6-2.6 13-1.2 9.2 5.4-3.8 6.6-2.6 8-.4 5.6 2.2-2.4 5-6.8 9.2-5.6 4.2 1.2 2.4 4.4-.2 8-2.6 3.6-1 6 1 7.4 2 1.4 5.7 8.9-5.4 12.2zM333 340.7c-3.6.2-8-.8-8-.8-.4 3.8-4.1 9.3-7.8 14.8-.4.6-2.6.6-3.6-.2s-3.8-2.2-1.6-4.6c2.2-2.4 5.8-7.4 5.2-9.6-.6-2.2-2.2-4.2-4.6-1.2-2.4 3-6.2 9.2-10.4 9.4-4.2.2-8.4-3.6-6.4-7.4 2-3.8 2.6-5.8-.2-9.2-2.8-3.4-1.8-7.8 4.2-10.4 1.8-.8 5 0 7.2 1.8s3.4 0 .4-1.8-5.4-4-5.8-8c-.4-3.8 2-7.8 7.2-5.6s8.4.4 10.6-1.4c2.2-1.8 11.6-4.1 10.2 4.2-1 6-3.8 6.2-4.6 9.4-.8 3.2 1.6 1.2 3-1.2s4.6-12.2 11.2-4.8c1.6 1.8 1 4.8-1 8.2-2 3.4-.4 5.4.8 7.2 1.2 1.8 4 10.7-6 11.2z"/></g><g><path class="st0" d="M498.2 181.5l6.1-4.4 13.3 19.7 7.8-5.5-13.7-19.3 6-4.2 14.5 20.4 7.8-5.6-21.6-30.2-35.5 25.1 19.6 27.9 7.8-5.6zM523.8 249.8l11.6-5.3-7.9-17.4 27.1-11.3-4.9-10.9-38.4 16.7zM530.8 268.2l1.2 10.7 25.7-3 1 11.1 11.6-.8-3.2-37.5-11.6.9 1 15.6zM532.1 304.7l.1 12.8 37.9-.1-.2-12.8zM549.8 335.5c-6.3-1.2-13.9-.2-19.1 3.8-4.7 3.6-6.9 7.2-8.2 13.7-.8 4.1-.2 9.6 1.2 14.3l10-3.4c-1-2.3-1.4-5.8-.3-9.4 2-6.8 7.6-9.9 14.4-8.9 7.2 1.1 11.3 7.7 10 15.5-.5 3.1-2.1 5.8-5.6 8l6.2 7.5c5-3.1 8.9-9.2 9.7-13.5 1.4-7.2-.3-12.2-3.7-18-3.2-5.6-8.7-8.5-14.6-9.6zM542.9 388.4c-5.3-1.4-12.5 4.5-16 7.8-2 1.9-9 9-12.2 7.9-2.9-1-2-5.4-1-8.3 1.4-4.2 3.6-7.7 7-10l-6.3-2.8c-3 2.6-6.4 6.7-7.8 10.8-1.6 4.8-2.3 10.4-1.6 13.9.9 4.6 2.5 7.5 7.7 7 4-.4 14-6.9 19.8-12.3 2.9-2.8 5.4-3.1 6.7-2.3 2.1 1.2 2 4.8 1.2 7-1 3-2.5 7.6-4.9 9.3l8.6 5.7c3.5-3.5 5.3-8.8 6.3-13.7 2.4-11.8-4-19.1-7.5-20zM495.3 137c-.7-5.9-4-12.6-7.3-15.5-5.1-4.4-11.1-5.6-17.5-4.8-6.5.9-12.6 5-16 9.9-3.7 5.3-5.9 12.6-4.4 19 1.3 5.8 3.7 9.3 9.1 13.1 3.4 2.4 8.7 4.1 13.6 4.8l1.1-10.5c-2.5-.1-5.9-1.1-8.7-3.6-5.4-4.7-5.7-12-2.2-16.8 4.3-5.9 11.7-7.2 18.4-2.7 2.6 1.8 3.7 4.6 4.2 8.7l9.7-1.6zM108 355.2c.3-2.9.1-8.1 3.2-8.8 3-.6 5 2.3 5.6 5.3.9 4.4 2.1 7.7.4 11.4l8.1-.8c1.3-3.7.9-8.7 0-13-1-4.9-2.6-8.4-6.2-11.6-3.5-3.1-6.1-3.9-11.2-2.8-3.1.7-8.6 6.2-8.8 17.4 0 2.1-.5 6.2-2.4 6.3-2.4.1-4.2-2.8-4.7-5.1-.7-3.1.2-9.9 1.4-12.6H85c-1.2 4.8-1.7 11.5-.6 16.5 2 10.6 8.6 14.2 14 13.6 5.7-.6 8.7-6.6 9.6-15.8zM91.1 309.4l29.9-.4-.2-9.4-29.9.4-.1-12.8-9.5.1.3 35.7 9.6-.1zM145.1 215.5L122 202.2l.1-.1 30.5-.5 7.3-11.3-37.6-21.7-5.7 8.8 25.7 16.2-35.1 1-4.9 9.4 37.1 21.6zM107.7 272.5c12.8 0 23.1-10.4 23.1-23.1 0-12.8-10.4-23.1-23.1-23.1-12.8 0-23.1 10.4-23.1 23.1 0 12.8 10.3 23.1 23.1 23.1zm0-35.2c6.7 0 12.1 5.4 12.1 12.1 0 6.7-5.4 12.1-12.1 12.1-6.7 0-12.1-5.4-12.1-12.1 0-6.7 5.4-12.1 12.1-12.1zM145.8 401.7c0-12.8-10.4-23.1-23.1-23.1-12.8 0-23.1 10.4-23.1 23.1 0 12.8 10.4 23.1 23.1 23.1 12.7 0 23.1-10.3 23.1-23.1zm-23.2 12c-6.7 0-12.1-5.4-12.1-12.1 0-6.7 5.4-12.1 12.1-12.1 6.7 0 12.1 5.4 12.1 12.1 0 6.7-5.4 12.1-12.1 12.1zM150.5 428.1c-3.6 3.1-5.3 10.6-1.9 15.7-3.6-1.8-11-2.4-14.4.5-8.3 7.2 1.8 17.7 10.1 26l11.6 11.4 30.7-25.4-12.4-14.5c-4.5-5.4-16.5-20-23.7-13.7zm1.4 40.4c-3.1-3.7-12.2-10.8-8.3-14.5 3.7-3.5 12.8 7.7 14 9l-5.7 5.5zm14.2-12.9l-.8-1c-2.6-3.1-11.2-12.2-7.6-15.5 3.2-3.1 11.4 7.3 13.8 10.1l1 1.2-6.4 5.2z"/></g><path class="st5" d="M287.3 547.8c1.3-.6 3.1-1.4 3.9-.8.8.6 5.6 4 8.6 6.6 3 2.6 4 3.4 1.6 4.8s-4.6 2.8-4.2 1.6c.4-1.2 1-3-.6-4.6-1.6-1.6-5.5-4.6-7.2-6-1.1-.9-2.1-1.6-2.1-1.6zM276 551.1c-1 .9-1.2 2.4 0 3.6 1.2 1.2 7.9 6.8 9 7.9 1.1 1.1 2.7 1.5 4.5 1.1 1.8-.4-2.1 2.2-3.6 2.5-1.5.3-3.2.3-4.8-1.2-1.6-1.5-10.6-10-12.4-11.7-1.8-1.7.5-1.7 2.1-1.9 1.6-.2 2.9-.1 5.2-.3z"/><g><path class="st5" d="M319.7 73.6c.4-1 .7-2 1.1-2.9-1.5.8-2.9 1.5-4.2 2.3.9 1.2 2.1 3.2 3.1.6zM355.9 75.6c-.6-2.1-2.5 1.2-5 4.2s-6.1 1.2-6.5-.3c-.4-1.5-1.1-3.2-3.3-6.1-2.2-2.9 2.1-6.9 3.9-7.4 1.8-.5 4.1-.9 4.7-1.4.5-.4-.4-3.4-.9-5.7-7.2 2.1-16 5.8-23.7 9.6 2.4.9 1.7 5.5 1.4 6.1-.3.7-1.1 4.7.7 2.3 1.8-2.4 2.5-3.3 4.4-3.9 1.9-.6 4-.5 4.1 2.3.1 2.8-1.2 2.6-1.6 4.4-.4 1.8 0 1.7.9 2.1.9.4 1.5 1.6.8 3.5s-3.7 2.1-6.4 1.8c-2.7-.3-3 .1-2.1 1 .7.7 1.7 2.3 2.1 4 6.5-3.2 14.4-5.8 26.6-8.3.2-2.2.3-6.4-.1-8.2zM292.6 115.2c-.9-1.8-2.2-2.1-2.7-.7-.5 1.4-1.5 6.1-4.6 7.4-1 .4-1.8.7-2.4.8 1.1 1.2 2.3 2.2 3.6 3.2 2.5-2.6 4.7-4.9 6.9-7.1 0-1.2-.2-2.4-.8-3.6zM322.5 91.2c-1.1-.4-2 1.3-2.7 2.5-.7 1.2-2.2 3.2-4.8 2.9-2.6-.3-3.2-1.2-3.9-3.4-.7-2.2-2.3-2.9-4.2-2.9-1.9 0-3.2-2.3-1.2-4.7 2-2.4 4-1.3 5.6-1.3 1.6 0 2.4-1.7 1.1-2.6-1-.7-2.9-2.8-3.2-4.3-5.7 3.8-13.9 9.6-21 16 1.3.1 2.8.5 3.5.8.9.4 2.5 1.6 2.3 3.4-.2 1.8.4 2.2 1.5 1 1.1-1.2-.2-4.8 3.5-6.2 3.7-1.4 4.2 1.4 4 3.3-.2 1.9 0 3.7 1.9 4.5 1.9.8 4.1 3.9-.1 5.7-4.2 1.8-6.5 2.2-8.2 2.7-1.7.5-1.3 2.2.1 3.3.9.7 1.5 1.3 2 1.8 5.3-4.9 10.3-8.9 16-12.7 3.1-2.1 5.9-4 8.9-5.7.3-1.7.5-3.5-1.1-4.1zM283.3 109.9c.1-2-1.4-2.7-2.4-3-.7-.2-2.1-1.6-2.7-2.9-1 1.3-1.9 2.7-2.6 4 .4 1.3.9 2.6 1.3 3.8 2.5 0 6.3-.2 6.4-1.9z"/><g><path class="st5" d="M367.9 203.4c-6.6-.4-14.4.9-21.8 3.8 1.3.8 2.7 2.5 5.4 1.6 3.8-1.3 5.1 2.7 3.3 3.8-1.8 1.1-2.4 3.9 1 1.8 3.4-2.1 6.4.9 5 3.1-1.4 2.2-3.2.5-2.8 3.6.4 3.1-.3 5.9-3.1 6.4-2.8.5-3.4-3.7-4.7-3.4-1.3.3.3 7.4-.3 7.5-2 .3-3.8 2-4.8 3 .1.1.2.1.2.2 11 7.9 13.8 3.6 15.4-.2 1.6-3.8 5.2-15.1 6.2-21 .6-3.4 1.4-7 1-10.2zM343.9 225.2c.6-1.5-1-2.8-2.7-1.7-1.7 1.1-4.2 2.7-5.9-.2-1.7-2.9 1.9-3.2 2.1-4.6.2-1.4-1.2-1.6-.5-3.9s3.2-1.6 5-.4c2.1 1.4 1.5-1.9 1.2-3.2-.2-1-.4-2-.2-2.7-2.2 1-4.3 2.1-6.3 3.3-10.3 6.3-10.6 11.6-8.2 13.6 2.2 1.8 6.6 2.6 14 7.5.1-2.6 1.1-6.6 1.5-7.7z"/></g><path class="st5" d="M311.2 219.2c-4.3-2.1-8.4-6.8-11.2-12.2 0 0 .2-.8-1-.8s-5.6-.4-13-3-8.4-1-9.4 2.2-1.8 9-2 18.6c-.2 9.6 4 15.6 6.6 14.6 1.3-.5 4.5-2.1 8-3.8 0-1.9.2-5.2.4-6.8.3-2.3-2.1-1.4-3.1-.2s-2.9 3.2-4.7 2.9c-1.8-.3-3-3.5-2.7-6.5.3-3-3.2-4.2-1-8.2 2.2-4 4 1 5.9.6 1.9-.4.9-1.4 0-4.5s2.8-4 5.2-1.8c1.5 1.4 2.2-1.7 4.4-1.3 2.2.4 3.5 1.9 2.2 4.1-1 1.7-1.7 5.7.2 3.6s3.8-3.4 5.6-2c1.8 1.4.6 4.3.1 5.8s3.2 3.3.6 5.1c-2.6 1.8-5.5-1.3-7-.9s-1.8 2.2.2 3.6c1.3.9 2.7 1.6 3.7 2 4.2-1.4 9.1-4.2 10.6-5.1l2.6.2c.2-3.4 0-5.6-1.2-6.2zM296.4 263.2c-1.6-3.6-2.2-.8-6.6 6.2-2.2 3.6-7.9 10.2-15 17.6 4.9 1 15.5 3.6 9.2 8.8-6.8 5.6-3.8 5.2-.8 4.8 3-.4 8 1.4 4.2 8.2-3.8 6.8-6.4 11.6-10 13.8-3.6 2.2-8.8 2-10-3.2-1.2-5.2-4.6 0-4.8 3.4-.2 3.4-.6 9.2-.2 11.2l-7.6-.4c-.2-3.2-.2-9.6.4-12.6.6-3 .4-6.6-4.2-5.2-3 .9-5.1.1-6.1-.5-8.9 8-13.5 13.5-16.5 18.3 2.3 2 5.9 3.6 9.8 2 4.4-1.8 11.6.4 7.2 7.2-4.4 6.8-4.2 10.2.2 6 4.4-4.2 11.5-11.4 13.6-3.8 1.4 5-3.2 6.6-3 10.6.2 4 4.2 8-1.4 12.8-5.6 4.8-8-3.4-11.8-2.2-2.3.7-2.8 2.8-2.6 4.7 5 7.1 12.2 17 14.8 21.3 4 6.6 4 14.6 5.6 13.4 1.6-1.2 5.4-4.8 6.6-5.8 1.2-1 2.4-2.2 1.8-4.4-.6-2.2-2.9-14-2.2-22.2.8-9.4 5.2-19.7 8.4-25.6 3.1-5.7 12.4-23.8 14.6-28.6 2.2-4.8 6.2-10.4 7.2-14.8s4.8-14.6 6.4-19.4c-.4-4-3-12.1-7.2-21.6z"/></g><path class="st5" d="M326.4 218.6c-1.2 3.2-2.8 7.2-3.6 9.2-.8 2-4.5 1.2-4.2-.2.6-3-3.7-1-3.2-3.4.4-2-.4-5.2 1.8-5.2s6.4-.4 9.2-.4z"/><g><path class="st5" d="M319.7 73.6c.4-1 .7-2 1.1-2.9-1.5.8-2.9 1.5-4.2 2.3.9 1.2 2.1 3.2 3.1.6z"/></g><g><path class="st5" d="M383.7 352.1c-5.2-8.6-6.2-12-7-20.8-.5-5.6 0-12.8.8-19.7-1.5-.1-3.6.2-3.7 2.5-.2 3.8-2 9.2-3.2 12-1.2 2.8-5.2 2.6-7.6 2.8-2.4.2-2.4-1.4-.8-5 1.6-3.6 2.2-5.2 1.8-8.4-.4-3.2-2-.4-3.4 2.4s-5.4 8.4-10 7.8c-4.6-.6-3.4-7.6-3-10 .4-2.4-1-2.8-2.8-3.2-1.8-.4-5.4-1.2-3.4-7 2-5.8 4.2-5.2 7-4.2s3.2-.8.6-1.8-5.4-3.2-5.2-6c.5-7.4 5.2-6.8 8.8-6 3.1.7 7.1-1.2 9.8-4.1-.1-.2-.1-.4-.2-.5-5.3-20.4 4.8-45.4 7.6-52.5 2.8-7 13.6-26.7 17.3-32.6-2-1-7.3-3.7-10.2-5.2-2.9-1.5-4.5-2.2-5.3-1.1-.8 1.1-1.8 1.7-3.2 3.7-2.8 4-.4 3.4.4 3.4s4.2 4.4 4.8 5.4c.6 1 0 1.8-1.4 5-1.8 4.2-3 13.8-4.6 19.6-4.9 17.6-12.4 15.8-15.8 13.6-3.4-2.2-4.4 1.2-7.8 6-.8 1.1-2.9 3.3-5.5 6 3.3 1.5 7.7 5.7 2.3 9.8-6.2 4.8-7.4 7.4-4.4 6.8 3-.6 6-5.2 9.4-2 3.4 3.2-1.2 6.8-3 7.8s-5.4 2.8-4.4 6.6 1.6 9-3.4 10.2c-5 1.2-7-1-8.4-3.6-1.4-2.6-2.8-.8-3.4 2.4-.6 3.2-1 5.6-1 6.8 0 1.2-3.6-.6-5.2-2.2s-3.6 2.8-5.4.6c-1.8-2.2 2.2-9 3.6-11.4 1.3-2.3.8-5.4-7.2-1.7-2.6 4.3-4.6 10.6-7.8 20.3-4.4 13.4-14.4 31.7-18.5 38.3-10.8 17.3-12.7 33.7-11.1 44 1.6 10.2 3 9.4 5.2 9.4s7.6 6.8 11.2 11c3.6 4.2 5 2.4 6.8 1 5.8-4.5 17.4-12 33.8-19.8 7-3.3 16.3-6.9 25.4-9.8.1-3.8 1.1-8.3 1.4-10 .4-2-1.6-2.6-3.6 0s-7.4 9-11 7.4c-3.6-1.6-6.6-5.6-4.6-9 2-3.4-.8-4.4-2.2-6.2-1.4-1.8-1.4-8.8 3-9.4 4.4-.6 5.8 3.2 8.8 4.2 3 1 5.4.8 1.6-3.4-3.8-4.2-8.4-2.6-6-8.4 2.4-5.8 5.8-5.4 9.8-4.2 4 1.2 6-1 8.6-2.8 2.6-1.8 7.8-4.2 11.4 0 3.6 4.2-2.6 8-4 9.4-2.7 2.7-3.2 7.8-.2 4.8s8.1-13.9 11.6-4.8c2 5.2-1.8 7.2-1.2 10.4.6 3.2 6 7.6 1.6 11.6s-10.6.6-13.2-1.8c-2.6-2.4-5.4-3.6-4.2.8.9 3.2 1.3 6.7 1.3 8.8 8.8-2.4 16.4-3.9 20.3-3.6 5.7.5 10 2.2 9.8-3-.3-5.2-3.1-8.8-8.3-17.4zM312.6 388c-4.8 1.4-5.6-.8-8.8-2-3.2-1.2-3.4 1.6-1.2 5s4.6 6.6 2 6.6c-2.6 0-4.6.4-5 2.4-.4 2-4.6-.4-5.6-4.6-1-4.2-2-12.2-4.2-8.2s-4.2 10.6-9.8 7.6c-5.6-3-1.8-7-4.6-9.8-2.8-2.8-5.4-6.4-2.6-11.4 2.8-5 5.2-.8 7.8-.8 2.6 0 3-2.4.6-4.2-2.4-1.8-5.4-10.4 5.6-9.8 4.2.2 8.8-1.2 12.4-3.8 3.6-2.6 13-1.2 9.2 5.4-3.8 6.6-2.6 8-.4 5.6 2.2-2.4 5-6.8 9.2-5.6 4.2 1.2 2.4 4.4-.2 8-2.6 3.6-1 6 1 7.4 2 1.4 5.7 8.9-5.4 12.2zm20.4-47.3c-3.6.2-8-.8-8-.8-.4 3.8-4.1 9.3-7.8 14.8-.4.6-2.6.6-3.6-.2s-3.8-2.2-1.6-4.6c2.2-2.4 5.8-7.4 5.2-9.6-.6-2.2-2.2-4.2-4.6-1.2-2.4 3-6.2 9.2-10.4 9.4-4.2.2-8.4-3.6-6.4-7.4 2-3.8 2.6-5.8-.2-9.2-2.8-3.4-1.8-7.8 4.2-10.4 1.8-.8 5 0 7.2 1.8s3.4 0 .4-1.8-5.4-4-5.8-8c-.4-3.8 2-7.8 7.2-5.6s8.4.4 10.6-1.4c2.2-1.8 11.6-4.1 10.2 4.2-1 6-3.8 6.2-4.6 9.4-.8 3.2 1.6 1.2 3-1.2s4.6-12.2 11.2-4.8c1.6 1.8 1 4.8-1 8.2-2 3.4-.4 5.4.8 7.2 1.2 1.8 4 10.7-6 11.2z"/></g><g><path class="st5" d="M265 511.9c-.9 0-2.8-.3-2.8-1.1l-2.3-.3c1.4.3 2.7 1.9 1.2 2.9-1.6 1.1-6.7 1.7-12.1 1.4-5.4-.3-6.7-3.2-6.8-5.4-.1-1.4.1-2.6.1-4.7 0-2-.5-3.8.7-4.6 1.2-.8.9 1.2 1.7 1.2 3.4 0 15.2 1.1 18 1.5 2.8.4 2.6-1.3 2-3.2-.2-.6-1-.4-1.3.4-.3.8-2.9.5-2.9.5s-5.2-.5-8.6-.7c-3.4-.2-6-.6-8.1-1-2.1-.4-4.7-.3-4.5.7.2 1 .8 13.7.9 15.5.1 1.8.2 2.5 1.1 2.5 2.3 0 17.8.2 21.4.2 3.6 0 3.4-.4 3.5-2.4.1-1.9-.3-3.4-1.2-3.4z"/></g></svg>