<svg version="1.1" id="Layer_1" xmlns="http://www.w3.org/2000/svg" x="0" y="0" viewBox="0 0 648 648" xml:space="preserve"><style>.st0{fill:#fff}.st1{fill:#061922}.st2{fill:#ce1141}</style><path class="st0" d="M610.8 174.4c-2.3-40.1-20.3-76.2-31-97.7l-1.3-2.6-4.7-9.3 1 10.4c1.3 14.4 4.5 63.5-10.1 91.4-18.2 37.8-71.6 34.1-89.1 32.9l-1.3-.1c-28.8-1.9-122.6-5.3-151.4-5.1-38 .2-79.9 3.2-113.6 5.7-16.5 1.2-30.8 2.3-40.4 2.6-.8 0-1.9.1-3.5.3-47.2 4.4-77.1-9.5-88.7-41.4-7.1-19.5-7-58.2-6.9-76.8V71.3l-3.7 6.9c-8.9 16.4-25.4 47-30.9 97.7-3.1 59.8 27.9 81.2 51.6 92.1 24.7 11.4 49.9 13.1 58.2 13.6h.6-.2c1.7.3 3.6.4 5.7.5 2.6.1 5.3.3 8.1.8-4.5.9-10.3 1.9-15.5 2.8-5.5.9-10.7 1.8-13.4 2.4-5.6 1.2-29.4 6.7-42.2 11.1-10.9 3.7-22.6 9.2-22.7 9.3l-2.1 1 1.4 1.9c.2.2 4.1 5.7 8.2 9.7 8.4 8.2 31.7 22.9 59.8 19.4 22.5-2.8 34.5-8 39.2-10.5 1.5 4.8 4.9 16 8.4 24.8 10.1 25.2 33.2 73.2 41.9 89.9 7 13.5 14 25.5 18.6 33.4l1.7 2.9c-1.5 5.2-5.1 8.4-7.8 10.7-.7.6-1.3 1.2-1.9 1.7l-.5.5v.7c-.2 4.7-1.3 46.4 27.1 76.9l.3.3.4.2c14.1 5.4 32.6 11 62.3 11 30.3 0 55.8-7.2 64.8-11.7l.4-.2.3-.3c19.8-23.4 28.8-58.6 29-71.4v-.8l-.6-.6-1.5-1.5c-3.1-3-6.9-6.6-9.1-15.3 2.4-4.1 7.1-14 11-22 2.1-4.5 4-8.4 5-10.4 8.4-16.3 32.8-68.8 42.5-93.6 6.1-15.7 9.6-23.5 11.1-26.8 4.3 2.3 15.9 7.4 37.7 9.7 28.4 2.9 55.4-16.1 62.9-26.4 1.3-1.7 3.4-4.2 3.4-4.3l1.7-2-2.4-1.1c-.2-.1-1.1-.5-5.3-1.9l-15.7-5.3-15.7-5.2c-4.3-1.5-23.4-5.6-37.4-8.6l-10.6-2.3 3.4-.6c32.3-5.6 118.3-20.8 113.5-106z"/><path class="st1" d="M610.8 174.4c-2.3-40.1-20.3-76.2-31-97.7l-1.3-2.6-4.7-9.3 1 10.4c1.3 14.4 4.5 63.5-10.1 91.4-18.2 37.8-71.6 34.1-89.1 32.9l-1.3-.1c-28.8-1.9-122.6-5.3-151.4-5.1-38 .2-79.9 3.2-113.6 5.7-16.5 1.2-30.8 2.3-40.4 2.6-.8 0-1.9.1-3.5.3-47.2 4.4-77.1-9.5-88.7-41.4-7.1-19.5-7-58.2-6.9-76.8V71.3l-3.7 6.9c-8.9 16.4-25.4 47-30.9 97.7-3.1 59.8 27.9 81.2 51.6 92.1 24.7 11.4 49.9 13.1 58.2 13.6h.6-.2c1.7.3 3.6.4 5.7.5 2.6.1 5.3.3 8.1.8-4.5.9-10.3 1.9-15.5 2.8-5.5.9-10.7 1.8-13.4 2.4-5.6 1.2-29.4 6.7-42.2 11.1-10.9 3.7-22.6 9.2-22.7 9.3l-2.1 1 1.4 1.9c.2.2 4.1 5.7 8.2 9.7 8.4 8.2 31.7 22.9 59.8 19.4 22.5-2.8 34.5-8 39.2-10.5 1.5 4.8 4.9 16 8.4 24.8 10.1 25.2 33.2 73.2 41.9 89.9 7 13.5 14 25.5 18.6 33.4l1.7 2.9c-1.5 5.2-5.1 8.4-7.8 10.7-.7.6-1.3 1.2-1.9 1.7l-.5.5v.7c-.2 4.7-1.3 46.4 27.1 76.9l.3.3.4.2c14.1 5.4 32.6 11 62.3 11 30.3 0 55.8-7.2 64.8-11.7l.4-.2.3-.3c19.8-23.4 28.8-58.6 29-71.4v-.8l-.6-.6-1.5-1.5c-3.1-3-6.9-6.6-9.1-15.3 2.4-4.1 7.1-14 11-22 2.1-4.5 4-8.4 5-10.4 8.4-16.3 32.8-68.8 42.5-93.6 6.1-15.7 9.6-23.5 11.1-26.8 4.3 2.3 15.9 7.4 37.7 9.7 28.4 2.9 55.4-16.1 62.9-26.4 1.3-1.7 3.4-4.2 3.4-4.3l1.7-2-2.4-1.1c-.2-.1-1.1-.5-5.3-1.9l-15.7-5.3-15.7-5.2c-4.3-1.5-23.4-5.6-37.4-8.6l-10.6-2.3 3.4-.6c32.3-5.6 118.3-20.8 113.5-106z"/><path class="st2" d="M42.5 157.2C47.3 132.8 55.1 110 65.7 88l.1-.3h.5v.5-.5h.5v.5c-.3 6.6-.5 13.3-.5 20.1 0 16.2 1.1 32.6 4.7 47.4l.4 1.4-1.1-1c-4.7-4.2-9.4-9-14.2-13.2-4.3 4.8-8.4 10-12.7 14.6l-1.1 1.2.2-1.5zM602.5 147.2l-.4.1.4-.1c-6.3-20.6-11.8-41.5-22.1-60.4l-.9.2c.4 6.5.6 13.1.6 19.5 0 15.8-1.2 31.3-3.8 46.4l-.1.9.8-.4c5-2.4 9.8-5.7 14.9-7.9l12.4 8.9-1.8-7.2zM400.7 367.6l-.9.4c-7 3.1-14.2 6.2-21.8 7.7-4.9 1.3-9.9 1.9-14.9 1.9-15.4 0-30.2-6.4-39.3-20.4l-.3-.4-.4.4c-1.8 1.6-2.9 3.6-4.8 5.3-9.7 11.2-23.8 15.5-38.2 15.5-11.2 0-22.5-2.6-32-6.5l-1-.4.4 1c7.3 19.3 11.8 40.7 11.8 62.3 0 9.6-.9 19.3-2.8 28.8-1.3 6.7-3.6 13.6-5.3 20.1l-.3 1 .9-.5c20.6-10.9 45.7-16.4 70.7-16.4 23.7 0 47.3 4.9 67 14.9 3.2 1.3 6.3 3.6 9.2 4.6l.9.3-.3-.9c-5.7-17-9.1-35-9.1-53.9v-.8-3.6c0-20.6 4.3-41 10.4-59.3l.1-1.1zM199.5 387.6c-2.2-2.7-4-5.7-4.6-9.2l-.2-1.1.9.6c3.7 2.4 7.8 3.4 11.9 3.4 8.6 0 17.6-4.2 24.4-9l.3-.2.3.3.2.2-.3.3.3-.3.2.2v.2c-.9 8.8-4.1 18.8-13.4 22.3-1.4.4-2.7.5-4.1.5-6.2 0-11.7-3.7-15.9-8.2zM418.1 384.3c-2-3-3.1-6.2-3.7-9.8l-.2-1.2.9.8c4.6 3.7 10.4 5.2 16.4 5.2 7 0 14.1-2.2 19.6-5.7l1.1-.7-.4 1.2c-2.7 7.9-9.6 16.1-18 17.9-.7.1-1.5.2-2.2.2-5.5-.1-10.4-3.1-13.5-7.9z"/><path class="st2" d="M428.8 395.9c1.1.2 2.2.3 3.3.3 3.2 0 6.3-.8 9.4-1.8l.9-.3-.4.9c-11.5 28.8-25.5 56.8-39.9 84.4l-.5.9-.4-1c-2.9-8-3.7-16.4-3.7-25.1 0-6.3.4-12.8.9-19.2 2.1-18.6 6.5-36.5 12.1-53.8l.3-1 .5 1c3.5 6.8 10 13.6 17.5 14.7M246.6 479.6c-17.4-26.5-30.6-54.6-43.4-83.1l-.5-1.2 1.2.6c3.5 1.9 8.1 3.3 12.5 3.3 3 0 5.9-.7 8.2-2.3 5.6-3.9 8.9-10.1 11.1-16.3l.4-1 .5 1c9.6 19.4 14.2 42.9 14.2 66.2 0 11-1 22-3.1 32.4v.1l-.1.1-.6.6-.4-.4zM261.9 568.5l-.2-.1c-17.7-19.4-24.4-44.5-25.4-70.9v-.2l.2-.1c23.3-17 54.5-25.9 85.2-25.9 20.2 0 40.2 3.9 57.6 11.9 11.2 5 21.9 10.4 31.8 18.4l-.3.4.3-.4.2.2v.3c-3 24.9-11.9 47.1-27.6 66.3l-.1.1h-.1c-18.7 7.3-40.7 11.2-62.7 11.2-20.7-.2-41.3-3.7-58.9-11.2zM573.7 306.9s-11-4.2-13.8-5.3c-30.1-11.3-68.7-18.2-101.5-19-3.1-36.6-7.3-59.4-14.5-80.1l-.1-.3h-.3c-16.9-1-92-4-121-4s-102.8 4.6-119.7 5.6h-.3l-.1.3c-6.8 19.7-14.6 44.3-18.2 80.4-33.2 2-77.9 11.5-107.9 22.9-2.2.8-3.8 1.6-4.9 2.2-.5.3-.9.5-1.2.7-.1 0-.1.1-.2.1l-.9-1 .3 1.7c0 .1.1.2.1.2 4.6 5.2 21.5 25.5 53 26.2h1.6c10.3 0 27.7-2 39.3-7.1 2.8-1.3 8.3-3.5 9.8-4.1.6 1.1 2.2 4.3 3 6.6 3.4 9.4 7.4 22.8 10.3 28.7 4.4 8.7 11.5 15.7 23.1 16h.5c10.4 0 17.6-8.4 18.9-10.1l.5-.7h-.8c-29.1-1.5-41-16.9-42.9-40.2v-.4l-.3-.1c-3.4-.6-5.6-1.1-7-1.8-1.3-.7-1.9-1.6-2.4-3.4-.2-.8-.3-1.6-.3-2.4 0-2.8 1.2-6 3.3-9.5 2.3-3 5.6-6 12.2-6 2.7 0 6 .5 10 1.8 9 2.9 16.3 8.7 21.3 13.1 6 5.3 23.6 23.6 34.2 29.9 6.2 3.7 15.7 7.2 25.4 7.2 7.7 0 15.6-2.2 21.9-8.4 13.5-13.2 15.2-24.7 16.9-31.7l.1-.6h-.6c-23.3-.7-45.4-2.9-65.8-5.8-2.3-.3-3.1-1.3-3.1-2.2 0-1 1.1-2.2 3-2.2.4 0 .7 0 1.2.1.1 0 38.5 5.1 65.4 5.3h.4v-.4c.2-3.1.3-8.6.4-14.8v-.5h-.5c-15.9-.4-42.7-2-68.1-7.2-2.2-.5-3.1-1.8-3.1-2.9 0-1.1.7-2 2.3-2 .4 0 .8.1 1.2.2 3.8 1 45.1 6.8 67.6 6.8h.7v-.5c.1-4.8.1-11.6.2-18.1v-.5h-1.9c-14.6 0-35.6-1.5-65.5-6-2.4-.4-3.3-1.6-3.3-2.5 0-.9.9-1.9 2.7-2h.5s36.5 5.4 65 5.4h2.5v-.5c0-4.4 0-9.6-.1-14.7v-.1c0-2.8 1.3-3.9 2.2-3.9.9 0 2 1 2 3.6 0 2 .1 7.5.1 14.5v.9h.5c27.6-.8 51.8-4.1 63.2-6.1.7-.1 1.2-.2 1.7-.2 2.3 0 2.9.9 2.9 1.8s-.8 1.9-1.9 2.1c-3.7.7-35.6 6.8-66 7.5h-.4v.4c0 5.4.2 12.3.3 18v.5h.5c20.4-.7 44.1-1.5 64.4-6 .9-.2 1.8-.3 2.5-.3 2.4 0 3.2 1 3.2 1.8 0 .9-1.2 2.3-4.1 2.8-19.9 3.3-48.6 6.7-65.9 6.9h-.5v.5c.1 5 .2 11 .4 14.9v.4h.4c32.6-.8 63.4-5.4 68.7-6.3.4-.1.7-.1 1.1-.1 2 0 3 1.1 3 2.1s-.9 2.2-3.4 2.6c-5.7.8-44 5.7-68.4 6.3h-.6l.2.6c2.4 8.3 2.9 20.3 14.9 30.7 5.9 5.1 13.8 7.3 21.9 7.3 8 0 16.3-2.2 23.2-6.2 10.7-6.2 27.7-24.8 33.8-30.1 5-4.4 16.4-15 31.7-15h.6c7.9.2 11.7 2.2 13.7 4.5s2.2 4.7 2.7 6.1c.4 1 .6 2.2.6 3.5 0 1.9-.6 3.8-2.5 5-2.7 1.7-5.2 1.2-8 2.5l-.2.1v.2c-2 12.7-6 27.2-16 34.8-5.4 4.1-12.4 6.4-18 7.7-5.6 1.3-9.8 1.5-9.8 1.5l-1 .1.7.7s2.4 2.6 3.2 3.4c1.8 1.7 6.8 4.1 13.4 4.1.7 0 1.4 0 2.2-.1 7.2-.6 15.5-6.1 19-9.7 5.4-7 10.3-21.4 13.9-30.7 1.3-3.3 4.2-9 5.4-12 3 1.4 4.7 2.3 10.4 4.6 11.7 4.7 26.7 6.8 36.7 6.8h1.7c16.4-.4 34.9-10.3 46-20.7 2-1.8 5.6-6.3 5.6-6.3l.4-.5-.8.1z"/><path class="st1" d="M339.8 507.8c-1.7 2.9-2.5 6.2-2.5 9.6 0 5.5 2 11.1 5.2 15.2.2.3.5.4.8.4.4 0 .8-.2 1-.5v-.3c0-3.2-2.1-6.1-2.1-9.6 0-.8.1-1.7.4-2.6l.3-.9.5.9c3.2 5.3 8.3 8.6 13.7 10.4 2.1.5 4.2.8 6.2.8 7.2 0 13.8-3.2 18.5-9 2.2-3.1 3.9-7.1 3.9-11 0-1.8-.4-3.6-1.2-5.3-3.4-6.6-10.2-10.4-17.1-11.5-1.2-.1-2.4-.2-3.5-.2-9.9 0-19.2 4.4-24.1 13.6zM300.8 535.2c.6 0 1.3-.6 1.7-1.4 2.6-4.1 4.4-9.4 4.4-14.6 0-3.4-.8-6.8-2.5-9.7l.4-.2-.4.2c-2.7-5.3-8.3-9.5-13.7-11.3-3-1-6.3-1.5-9.5-1.5-7.6 0-15.1 2.9-19.8 9.2-1.8 2.4-2.7 5.5-2.7 8.5 0 1.6.3 3.2.8 4.7 2.5 7 9.2 12.6 16.2 13.9 1.6.3 3.1.4 4.7.4 8.2 0 15.4-4 20.6-11.1l.5-.7.3.8c.2.6.3 1.3.3 1.9 0 1.4-.4 2.9-.5 4.1-.2 2.1-1.9 3.7-1.8 5.1 0 .5.1.9.5 1.5.1.2.3.2.5.2zM263.7 562.3c17.9-7.5 39.3-11.9 60.6-11.9 16 0 32 2.5 46.3 8 3.6 1.5 7.4 2.8 11 3.9.9-1.2 1.4-1.4 2-2.5-17.5-8.6-38-12.6-58.6-12.6-22 0-44.1 4.5-62.8 12.8.4 1 .8 1.6 1.5 2.3zM279.3 429.8c10.7 13.4 26.7 19.3 43.1 19.3 6 0 12.1-.8 17.9-2.3 27.3-7.6 43.7-37.3 49.4-63.3-.8-.7-1.5-.9-2.5-1.2-3.4 15.3-9.9 30.3-19.6 43-11.6 14.1-28.6 21.2-45.4 21.2-6 0-11.9-.9-17.6-2.7-25-7.8-37.9-35.2-40.4-60-1 0-1.7.1-2.5.6 1.7 17.1 6.9 32.3 17.6 45.4z"/><g><path class="st0" d="M76.4 172.9c14.3 27.6 43.2 36.5 72.5 35.1 16.4-.1 32.2-1.8 48.4-2.9v1.1c-8.2 23.2-13.6 46.9-17 71.3-42.5 1.6-86-1.8-117.4-30.2-21.3-21.6-26.7-51.3-22.1-80.6 5.1-6 10.3-11.1 15.6-17.1 7 7.3 18.1 13.2 20 23.3zM604.8 160.5c1.1 4.3 1.3 8.3 1.7 12.8 2 32.7-12.1 62.8-40 79.5-30.5 18.4-65.8 24.7-103.3 25.6-.6-3.4-1.1-7.6-1.5-11.4-3-21.5-7-43.2-13-63.9 40.1-.5 88.8 10.1 115.3-26.7 3.5-5.1 7.1-9.8 10.2-15.4 5.9-2.7 11.6-6.4 17.3-9.5 4.8 2.5 8.5 6.3 13.3 9zM452.4 326c.2 12.5-3.8 25.5-15.1 31.5-5.3 2.9-11.4 4-17.3 3.7-.2-1.1-.6-2.5-.2-3.8 9.2.3 18-3 22.8-10.6 3.3-5.6 4.7-11.8 4.7-18.8 1.6-.9 3.4-1.6 5.1-2zM226.2 360c-1.7.3-2.4.7-5.6 0-14.7 0-30.2-11.8-29.3-31.8 1.7-.7 3.7-.4 5.5.2 0 11.4 4.6 26.9 28.7 26.9 1.8 2.6.2 2.9.7 4.7z"/></g></svg>