<svg xmlns="http://www.w3.org/2000/svg" viewBox="0 0 1717.48 310.39"><defs><style>.cls-1{fill:#fff;}.cls-2{fill:#c8102e;}.cls-3{fill:#1d428a;}</style></defs><g id="Layer_2" data-name="Layer 2"><g id="Layer_1-2" data-name="Layer 1"><path class="cls-1" d="M376.23,59.76H316.9L239.36,310.39H174.08L250.61,59.76h-61.5L206.86.9H394.65Z"/><path class="cls-1" d="M421.47.9h190.4L511,310.39H324.12Zm-13.6,250.84H465l61.83-192H469Z"/><path class="cls-1" d="M604.28,310.39H539.43L626.57,44.56,688.64.9H823.87L745.62,231.84H630.34Zm96-137.84L738.07,59.76H687.44L650,172.55Z"/><path class="cls-1" d="M955.35,310.39H785.2l33-96.32h65.24l-13.07,37.67h40.38L928,202.51l-77-77.69L893.5.9h169.25l-32.51,92H970.59l11.53-33h-43l-14,40.45,77.12,77.48Z"/><path class="cls-1" d="M1113.72,128H1170L1216.07.9h66.08L1168.74,310.39h-64.85l44.84-123.71h-56.07l-44.42,123.71H983.39L1093.28.9h66.08Z"/><path class="cls-1" d="M1310.29.9h190.4L1383.2,310.39H1196.35Zm-27,250.84h57.14l72.12-192h-57.81Z"/><path class="cls-1" d="M1694.37,59.76H1635l-97.53,250.63h-65.28l96.52-250.63h-61.5L1529.7.9h187.78Z"/><path class="cls-1" d="M104.73,0H32.1A32.14,32.14,0,0,0,0,32.1V278a32.16,32.16,0,0,0,32.1,32.15h72.57A32.22,32.22,0,0,0,136.85,278V32.1A32.16,32.16,0,0,0,104.73,0"/><path class="cls-2" d="M86.71,56.86l.08,1c2.21,1.29,3.33,2.34,5.57,3.78,5.92,3.72,13.22,10.35,12.29,33.18,1.66,5,2.4,14.77,3.93,17.91,3.09,6.11,5.15,10.09,6,15.87,0,0,.89,9,2.05,9.63,6.12,1.38,4.35,2,5.25,3,.95,1.23,4.48,1.17,4.48,4.46a21.45,21.45,0,0,1,2.83,5.13V32.1A24.55,24.55,0,0,0,104.73,7.57H81.26C85,8.91,87.16,10.49,88.4,13c3,.26,6.63,7.05,1,17.08,2.49,1.66.55,4.13-1.24,7-.52.92-1.09,2.56-2.75,2.45-2.13,4.48-4.7,8.82-6.65,9.1-.59.72-1,2.65-.13,3.56,2.86,1.28,6.34,3,8.06,4.67"/><path class="cls-2" d="M129.24,167a21.9,21.9,0,1,1-25.53-29.37c-2.52-6.31-7.85-16.54-9.43-19.9S89.18,93.6,88.4,89.48c-.18-.9-9.44,5.38-9.46,5.76-.54.53-7,17.26-7.22,18.17a25.25,25.25,0,0,0-.14,2.8s3.15.39,5,5.89,7.27,25.53,7.27,25.53a12.36,12.36,0,0,1-1.55,1.44c6.92,23.14,4.5,33.1,7.6,39.88,3.9,9.57,5,8.31,8.3,16.35,2.39,5.85,5.07,28.89,6,29.91,3.74,4.73,5.74,8.43,5.74,11.1s-3.16,10.62-2,15.24c.69,2.72,1.06,8.81,2.33,10,0,0,1.16,2.29.59,3.3-.17.35-.5.89-.35,1.3,2.06,7.27,8.7,19.66-2.06,26.15h.23A24.39,24.39,0,0,0,129.24,278Z"/><path class="cls-3" d="M101.6,273.3c-3.94-3.52-1.31-5-1.46-6.4-2.6-10.74-11.14-17.24-6.72-20.78-1.09-3.55-3.31-8-3.23-8-13.29-7.63-24.62-20-26.54-21.86-2.33-2.53-6.3-5.08-7-7.13-3.2-2.94-18.87-25.17-22.52-33.36l-6.36-.9c-2.89-11.82-12.55-21.72-12.79-33.58-.09-4.48,2-14.08,2.82-16s4.47-5.13,4.47-5.13V117c-13.87.39-9.88-1-12.28-6.42-1.67-3.73-.47-4.55.13-7.14,1.87-7.65,8.05-19.44,10.61-24.8.78-2.71,3.46-9.23,3.46-9.23,10.34-21.06,14.2-19.51,26.48-20.7l.61-.87c12.31-.53,10.29-1.46,12-13.31-1.8.77-2.33-3.72-2.33-3.72-1-6.74,1.87-5.47,3.22-5.6.29-11.09,1.42-14.58,9.42-17.64H32.12A24.54,24.54,0,0,0,7.57,32.12V278a24.54,24.54,0,0,0,24.55,24.56h72.61C96.41,298.08,101.32,289.53,101.6,273.3Z"/><path class="cls-1" d="M45.85,287.12V242.6h8.64c5,0,8.08,2.68,8.08,8.92v6.6c0,4.05-1.23,6.11-3,7.11,1.73,1.19,3,3.18,3,6.55v6.49c0,6.1-3.27,8.85-8.08,8.85Zm5.93-19.33v13.72h2.28c2,0,2.59-1.07,2.59-3.19v-7.54c0-2.18-.68-3-2.65-3Zm0-19.58v14.71H54c2.09,0,2.65-.75,2.65-3.18V251.2c0-2.06-.62-3-2.59-3Zm24.74,29.87H71.15l-.75,9h-6l5.37-44.52H78.3l5.19,44.52H77.26Zm-2.66-30.49h-.31c-.37,5.36-1.11,14.77-1.36,17.77L71.52,273h4.63l-.68-7.66c-.25-3.06-1.11-12.35-1.61-17.77M28.21,287.12H23V242.6h8.21l6.6,36.47c-.55-8.72-1.3-19.26-1.3-28.24V242.6h5.19v44.52H34.19l-6.6-35.67c.43,8.23.62,14.78.62,21.64Z"/></g></g></svg>